<svg width="60" height="60" viewBox="0 0 60 60" fill="none" xmlns="http://www.w3.org/2000/svg">
<path d="M46.8749 28.3749C46.2118 28.3691 45.5507 28.3021 44.8999 28.1749C44.2742 28.0436 43.6629 27.851 43.0749 27.5999L42.6499 27.4999H42.3499C42.0999 27.4999 41.9749 27.6749 41.9749 28.0249V28.8499C41.9395 29.0063 41.9395 29.1686 41.9749 29.3249C42.1005 29.5306 42.2828 29.6955 42.4999 29.7999C43.1013 30.1008 43.7403 30.3194 44.3999 30.4499C45.2189 30.6457 46.0578 30.7464 46.8999 30.7499C47.747 30.7754 48.5923 30.657 49.3999 30.3999C50.0671 30.2249 50.6893 29.9095 51.2249 29.4749C51.7312 29.0837 52.1487 28.5895 52.4499 28.0249C52.7366 27.4152 52.8819 26.7487 52.8749 26.0749C52.884 25.2391 52.6207 24.423 52.1249 23.7499C51.4583 22.9925 50.5919 22.4381 49.6249 22.1499L47.2499 21.3999C46.5863 21.2282 45.9651 20.9219 45.4249 20.4999C45.2666 20.348 45.1406 20.1656 45.0547 19.9636C44.9687 19.7617 44.9246 19.5444 44.9249 19.3249C44.907 19.0283 44.9696 18.7323 45.106 18.4683C45.2424 18.2043 45.4476 17.982 45.6999 17.8249C46.3917 17.4894 47.1571 17.3346 47.9249 17.3749C49.0188 17.3484 50.1045 17.5706 51.0999 18.0249C51.3034 18.1287 51.5233 18.1964 51.7499 18.2249C51.9999 18.2249 52.1249 18.0249 52.1249 17.6749V16.7749C52.1324 16.5806 52.08 16.3886 51.9749 16.2249C51.8414 16.0548 51.6702 15.9179 51.4749 15.8249C51.252 15.7022 51.0175 15.6017 50.7749 15.5249C50.4638 15.4151 50.1466 15.3233 49.8249 15.2499L48.7249 14.9999C48.3171 14.9705 47.9077 14.9705 47.4999 14.9999C46.7984 14.9879 46.099 15.0805 45.4249 15.2749C44.7938 15.4592 44.201 15.7556 43.6749 16.1499C43.1869 16.5061 42.7853 16.9675 42.4999 17.4999C42.1933 18.0676 42.0383 18.7048 42.0499 19.3499C42.035 20.2525 42.3257 21.1336 42.8749 21.8499C43.5614 22.6768 44.4871 23.2707 45.5249 23.5499L48.0249 24.2999C48.6435 24.4445 49.2181 24.7361 49.6999 25.1499C49.9992 25.4668 50.161 25.8892 50.1499 26.3249C50.1553 26.6412 50.0773 26.9533 49.9237 27.2298C49.7701 27.5063 49.5463 27.7374 49.2749 27.8999C48.5329 28.2732 47.7032 28.4374 46.8749 28.3749ZM32.3499 16.2499C32.3114 16.0049 32.1978 15.7778 32.0249 15.5999C31.8379 15.462 31.6059 15.3996 31.3749 15.4249H29.9999C29.7701 15.4122 29.5423 15.4735 29.3499 15.5999C29.1677 15.771 29.0524 16.0015 29.0249 16.2499L26.5249 27.2499L23.6749 16.2499C23.6295 16.0019 23.507 15.7744 23.3249 15.5999C23.3249 15.5999 22.9999 15.4249 22.6749 15.4249H21.0499C20.7749 15.4249 20.6499 15.5749 20.6499 15.8499C20.6742 16.0799 20.7245 16.3064 20.7999 16.5249L24.6999 29.3749C24.7506 29.6035 24.8533 29.8174 24.9999 29.9999C25.1964 30.1145 25.4231 30.1668 25.6499 30.1499H27.0749C27.3097 30.1658 27.544 30.1137 27.7499 29.9999C27.9075 29.8052 28.011 29.5724 28.0499 29.3249L30.5499 18.6249L33.0499 29.3499C33.0707 29.5951 33.1769 29.8251 33.3499 29.9999C33.5466 30.1374 33.7862 30.1995 34.0249 30.1749H35.4499C35.6717 30.1859 35.891 30.1244 36.0749 29.9999C36.263 29.8301 36.3866 29.6005 36.4249 29.3499L40.4499 16.4999C40.4646 16.367 40.4646 16.2329 40.4499 16.0999C40.4596 16.0085 40.4596 15.9164 40.4499 15.8249C40.4583 15.7672 40.4531 15.7083 40.4347 15.6529C40.4163 15.5975 40.3852 15.5472 40.344 15.5059C40.3027 15.4646 40.2524 15.4336 40.197 15.4152C40.1416 15.3968 40.0827 15.3916 40.0249 15.3999H38.4749C38.2455 15.3906 38.0186 15.4516 37.8249 15.5749C37.671 15.7657 37.5601 15.9874 37.4999 16.2249L34.9999 27.4999L32.3499 16.2499ZM14.4249 21.5749C13.8363 21.4977 13.2436 21.456 12.6499 21.4499C11.1786 21.3726 9.72965 21.8349 8.57492 22.7499C8.08318 23.1711 7.69289 23.6978 7.43316 24.2909C7.17343 24.8839 7.05097 25.528 7.07492 26.1749C7.04584 26.7641 7.13974 27.3529 7.35064 27.9039C7.56154 28.4548 7.88483 28.9558 8.29992 29.3749C8.74606 29.7867 9.27008 30.105 9.84112 30.311C10.4122 30.5171 11.0187 30.6069 11.6249 30.5749C12.5792 30.6024 13.5268 30.4091 14.3941 30.0101C15.2614 29.6112 16.0248 29.0174 16.6249 28.2749C16.7711 28.6101 16.938 28.9357 17.1249 29.2499C17.3029 29.5246 17.5036 29.7838 17.7249 30.0249C17.7854 30.0862 17.8574 30.1348 17.9368 30.168C18.0162 30.2011 18.1014 30.2182 18.1874 30.2182C18.2735 30.2182 18.3587 30.2011 18.438 30.168C18.5174 30.1348 18.5895 30.0862 18.6499 30.0249L19.6999 29.3249C19.7876 29.2707 19.8621 29.1977 19.9183 29.1113C19.9745 29.0249 20.0109 28.9271 20.0249 28.8249C20.0653 28.6947 20.0653 28.5552 20.0249 28.4249C19.8223 28.0462 19.6469 27.6535 19.4999 27.2499C19.366 26.7617 19.307 26.2559 19.3249 25.7499V20.4749C19.3847 19.7341 19.2936 18.9888 19.0573 18.2841C18.821 17.5795 18.4442 16.93 17.9499 16.3749C17.3146 15.8407 16.5761 15.443 15.7804 15.2064C14.9848 14.9699 14.1489 14.8996 13.3249 14.9999C12.481 14.9996 11.6407 15.1089 10.8249 15.3249C10.0985 15.4938 9.39393 15.7455 8.72492 16.0749C8.54846 16.1529 8.39391 16.2731 8.27492 16.4249C8.21383 16.6117 8.21383 16.8131 8.27492 16.9999V17.8249C8.27492 18.1749 8.27492 18.3249 8.62492 18.3249C8.71554 18.3446 8.8093 18.3446 8.89992 18.3249L9.47492 18.1249C9.98274 17.8757 10.5094 17.6667 11.0499 17.4999C11.6386 17.3524 12.243 17.2768 12.8499 17.2749C13.8163 17.1737 14.7843 17.4516 15.5499 18.0499C16.1453 18.7977 16.4235 19.7492 16.3249 20.6999V21.9249L14.4249 21.5749ZM16.3749 23.8249V24.4999C16.3769 24.9887 16.3181 25.4757 16.1999 25.9499C16.0944 26.3481 15.8975 26.7162 15.6249 27.0249C15.2081 27.5149 14.6625 27.8786 14.0499 28.0749C13.5035 28.2672 12.9292 28.3685 12.3499 28.3749C12.0328 28.3985 11.7142 28.3575 11.4134 28.2544C11.1126 28.1513 10.8358 27.9882 10.5999 27.7749C10.3809 27.5378 10.2144 27.2571 10.111 26.9513C10.0076 26.6455 9.96976 26.3213 9.99992 25.9999C9.97926 25.6408 10.0431 25.2818 10.1864 24.9518C10.3297 24.6218 10.5484 24.3301 10.8249 24.0999C11.5535 23.5892 12.4383 23.3503 13.3249 23.4249H14.8749C15.3818 23.5308 15.8826 23.6643 16.3749 23.8249ZM49.3999 37.4999C43.4234 40.0145 37.0088 41.3229 30.5249 41.3499C21.8463 41.3516 13.3167 39.0942 5.77492 34.7999C5.17492 34.4249 4.69992 35.0499 5.22492 35.5249C12.0132 41.6616 20.8491 45.0408 29.9999 44.9999C37.2163 45.0177 44.2714 42.8664 50.2499 38.8249C51.0999 38.0499 50.3249 37.0249 49.3999 37.4999Z" fill="white"/>
<path d="M45.95 35.1502C45.475 35.5002 45.55 35.9752 46.075 35.9002C47.85 35.6752 51.775 35.2252 52.475 36.1252C53.175 37.0252 51.7 40.7002 51.025 42.3502C50.825 42.8502 51.275 43.0502 51.725 42.6752C52.8634 41.6272 53.7359 40.3233 54.2706 38.8714C54.8053 37.4195 54.9868 35.8611 54.8 34.3252C53.3634 33.7594 51.814 33.5394 50.2767 33.6827C48.7394 33.826 47.2573 34.3287 45.95 35.1502Z" fill="white"/>
</svg>
