<svg width="60" height="60" viewBox="0 0 60 60" fill="none" xmlns="http://www.w3.org/2000/svg">
<path d="M19.5075 14.3276C20.98 14.3276 22.305 14.4551 23.52 14.7151C24.7275 14.9726 25.7575 15.3976 26.6275 15.9851C27.485 16.5726 28.155 17.3526 28.6375 18.3326C29.105 19.3001 29.3375 20.5101 29.3375 21.9401C29.3375 23.4901 28.9875 24.7851 28.285 25.8176C27.5775 26.8526 26.535 27.7001 25.145 28.3551C27.0375 28.9026 28.44 29.8601 29.37 31.2201C30.305 32.5926 30.7625 34.2351 30.7625 36.1601C30.7625 37.7226 30.465 39.0651 29.8675 40.1926C29.2917 41.3034 28.4564 42.2587 27.4325 42.9776C26.3719 43.7162 25.1873 44.2581 23.935 44.5776C22.622 44.9223 21.2699 45.0954 19.9125 45.0926H5V14.3276H19.5075ZM18.63 26.7576C19.83 26.7576 20.825 26.4726 21.61 25.8951C22.39 25.3251 22.7675 24.3851 22.7675 23.0976C22.7675 22.3826 22.64 21.7926 22.39 21.3301C22.1464 20.8852 21.786 20.5152 21.3475 20.2601C20.8886 19.988 20.3821 19.8055 19.855 19.7226C19.2805 19.6155 18.6969 19.5644 18.1125 19.5701H11.775V26.7576H18.63ZM19.0075 39.8551C19.675 39.8551 20.31 39.7976 20.9075 39.6626C21.51 39.5326 22.045 39.3226 22.5 39.0101C22.955 38.7101 23.33 38.3026 23.6 37.7826C23.8725 37.2676 24.005 36.5951 24.005 35.7876C24.005 34.2026 23.5575 33.0751 22.6725 32.3926C21.785 31.7176 20.595 31.3826 19.1375 31.3826H11.775V39.8576L19.0075 39.8551ZM40.42 39.7526C41.3375 40.6476 42.66 41.0976 44.38 41.0976C45.6125 41.0976 46.6775 40.7851 47.575 40.1651C48.46 39.5426 49 38.8776 49.2075 38.1901H54.595C53.73 40.8701 52.4175 42.7851 50.6225 43.9376C48.85 45.0951 46.6925 45.6701 44.1725 45.6701C42.4175 45.6701 40.8375 45.3876 39.4225 44.8276C38.0643 44.2987 36.837 43.4816 35.825 42.4326C34.8297 41.3592 34.0603 40.0967 33.5625 38.7201C33.0153 37.1979 32.7443 35.5901 32.7625 33.9726C32.7625 32.3076 33.04 30.7501 33.585 29.3126C34.1024 27.9231 34.8968 26.6532 35.92 25.5801C36.9325 24.5301 38.1325 23.7026 39.53 23.0951C40.9996 22.4771 42.5809 22.169 44.175 22.1901C46.06 22.1901 47.7075 22.5551 49.1225 23.2901C50.4947 23.9918 51.6845 25.0035 52.5975 26.2451C53.505 27.4776 54.1525 28.8901 54.555 30.4726C54.9575 32.0526 55.0975 33.7026 54.9825 35.4301H38.905C38.9075 37.1901 39.5 38.8576 40.42 39.7526ZM47.45 28.0501C46.7225 27.2451 45.4925 26.8101 43.9875 26.8101C43.01 26.8101 42.2025 26.9726 41.5525 27.3076C40.9582 27.6078 40.4309 28.0254 40.0025 28.5351C39.6263 28.9979 39.3474 29.5319 39.1825 30.1051C39.0383 30.5831 38.9453 31.075 38.905 31.5726H48.86C48.715 30.0126 48.18 28.8601 47.45 28.0501ZM37.655 16.3926H50.1275V19.4301H37.655V16.3926Z" fill="white"/>
</svg>
