<svg width="60" height="60" viewBox="0 0 60 60" fill="none" xmlns="http://www.w3.org/2000/svg">
<path d="M45.0049 7.49268H14.9974C13.0084 7.49861 11.1025 8.29157 9.69627 9.69828C8.29003 11.105 7.49771 13.0111 7.49243 15.0002V45.0052C7.49968 46.9932 8.29279 48.8976 9.69875 50.3031C11.1047 51.7086 13.0094 52.5011 14.9974 52.5077H45.0049C46.9925 52.5004 48.8966 51.7077 50.302 50.3022C51.7074 48.8968 52.5002 46.9927 52.5074 45.0052V15.0002C52.5015 13.0118 51.7093 11.1064 50.3038 9.69989C48.8982 8.29338 46.9934 7.49993 45.0049 7.49268ZM40.9049 39.1102C40.5249 40.0102 39.9324 40.8102 39.1724 41.4277C38.2737 42.1256 37.2506 42.6465 36.1574 42.9627C34.9324 43.3402 33.4724 43.5352 31.7824 43.5352H19.7199V17.2727H32.4774C34.8349 17.2727 36.7274 17.8052 38.1449 18.8877C39.5674 19.9777 40.2799 21.5927 40.2799 23.7827C40.2799 25.1027 39.9549 26.2402 39.3074 27.1752C38.6599 28.1077 37.7324 28.8352 36.5299 29.3452V29.4302C38.1349 29.7677 39.3724 30.5252 40.1899 31.7102C41.0074 32.8927 41.4224 34.3827 41.4224 36.1827C41.4224 37.1952 41.2274 38.1527 40.8599 39.0502L40.9099 39.1027V39.1102H40.9049ZM35.6949 32.6377C34.9224 31.9327 33.8474 31.5902 32.4524 31.5902H24.3424V39.7802H32.4749C33.8599 39.7802 34.9524 39.4202 35.7199 38.6927C36.4899 37.9702 36.8799 36.9402 36.8799 35.6202C36.8674 34.3252 36.4899 33.3227 35.7199 32.6377H35.6849H35.6949ZM34.5674 27.3402C35.3149 26.7127 35.6774 25.8077 35.6774 24.6302C35.6774 23.3152 35.3499 22.3752 34.6849 21.8402C34.0249 21.3052 33.0699 21.0252 31.8199 21.0252H24.3174V28.2702H31.8199C32.9099 28.2727 33.8449 27.9527 34.5674 27.3402Z" fill="#26A4E3"/>
</svg>
