<svg width="60" height="60" viewBox="0 0 60 60" fill="none" xmlns="http://www.w3.org/2000/svg">
<path d="M52.71 7.28484C49.765 4.33734 44.625 4.33734 41.68 7.28484L20.7325 28.2323C20.5001 28.4643 20.3158 28.7398 20.19 29.0431C20.0642 29.3464 19.9995 29.6715 19.9995 29.9998C19.9995 30.3282 20.0642 30.6533 20.19 30.9566C20.3158 31.2599 20.5001 31.5354 20.7325 31.7673L28.2325 39.2673C28.4641 39.5003 28.7395 39.6852 29.0429 39.8113C29.3462 39.9375 29.6715 40.0024 30 40.0024C30.3285 40.0024 30.6538 39.9375 30.9571 39.8113C31.2605 39.6852 31.5359 39.5003 31.7675 39.2673L52.715 18.3198C54.1765 16.8553 54.997 14.8704 54.996 12.8013C54.9951 10.7322 54.1729 8.74811 52.71 7.28484ZM49.18 14.7848L30 33.9648L26.035 29.9998L45.215 10.8198C45.749 10.3093 46.4597 10.0247 47.1985 10.0257C47.9373 10.0266 48.6473 10.3129 49.18 10.8248C49.7033 11.3509 49.9971 12.0628 49.9971 12.8048C49.9971 13.5469 49.7033 14.2588 49.18 14.7848ZM20 37.4998C16.8375 35.9148 11.25 37.4998 11.25 42.4998C11.25 45.4923 12.5 47.4998 7.5 49.9998C7.5 49.9998 15.625 55.6248 21.25 49.9998C24.435 46.8148 24.985 39.9998 20 37.4998Z" fill="#01FF1A"/>
</svg>
