<svg width="121" height="121" viewBox="0 0 121 121" fill="none" xmlns="http://www.w3.org/2000/svg">
<circle cx="60.5" cy="60.5" r="60.5" fill="#D9D9D9"/>
<path d="M30.9397 55.7143C30.1974 52.3602 28.0941 50 24.135 50H24.0113H23.8876C19.5573 50 16.2168 52.236 14.4847 55.7143C13.4949 57.4534 13 59.5652 13 61.8012C13 66.149 15.3507 68.8819 18.4438 69.6274C19.0624 69.7515 19.681 69.8758 20.2996 69.8758C21.042 69.8758 21.6606 69.7515 22.2792 69.6274C23.5164 69.2547 24.5062 68.6335 25.3722 67.764V69.6274C25.3722 69.7515 25.496 69.7515 25.496 69.7515H28.2178L28.3416 69.6274L30.1974 60.1863C30.1974 60.0621 30.0738 59.9379 29.9499 59.9379H23.269C23.1452 59.9379 23.1452 60.0621 23.0215 60.0621L22.5266 62.5466V62.6708C22.5266 62.795 22.6504 62.795 22.6504 62.795H25.9908C25.2485 64.7826 23.6401 66.5218 20.9182 66.5218C18.1963 66.5218 16.588 64.5342 16.588 61.3043C16.588 59.1925 17.3303 57.0807 18.4438 55.7143C19.5573 54.3478 21.2894 53.354 23.269 53.354C25.1248 53.354 26.2383 54.2236 26.9806 55.7143C27.1044 56.087 27.3519 56.4596 27.4755 56.9565C27.4755 57.0808 27.5992 57.0808 27.5992 57.0808L30.816 56.2112L30.9397 56.087V55.7143ZM38.2394 50.2484C38.2394 50.1242 38.1156 50 37.992 50H34.8989C34.7751 50 34.7751 50.1242 34.6515 50.1242L30.9397 69.3789V69.5031C30.9397 69.6274 31.0635 69.6274 31.0635 69.6274H34.2803L34.404 69.5031L38.2394 50.2484ZM47.3948 65.4038C46.6524 66.3975 45.6627 66.8944 44.3018 66.8944C42.6933 66.8944 41.5799 65.5279 41.5799 63.4162C41.5799 61.9255 41.9511 60.8075 42.5697 59.8137C43.3119 58.8199 44.3018 58.323 45.6627 58.323C47.2712 58.323 48.3846 59.6894 48.3846 61.8012C48.3846 63.4162 48.0134 64.5342 47.3948 65.4038ZM47.766 55.7143C47.1474 55.5901 46.6524 55.4658 45.9102 55.4658C45.1679 55.4658 44.4255 55.5901 43.6832 55.7143C42.446 55.9627 41.3324 56.5838 40.2189 57.7019C38.6106 59.3168 37.8681 61.3043 37.8681 64.0372C37.8681 66.7701 39.4766 69.0063 42.0747 69.7515C42.6933 69.7515 43.3119 69.8758 43.9305 69.8758C44.6729 69.8758 45.4152 69.7515 46.1576 69.6274C47.3948 69.3789 48.5084 68.7578 49.6218 67.6397C51.2303 66.0249 51.9725 64.0372 51.9725 61.3043C52.0963 58.5714 50.4879 56.3354 47.766 55.7143ZM63.4787 57.7019C62.9839 56.8323 61.994 56.087 60.7568 55.7143C60.262 55.5901 59.7671 55.4658 59.2721 55.4658C58.6535 55.4658 58.0349 55.5901 57.5401 55.7143C55.5605 56.2112 54.447 57.7019 54.447 59.8137C54.447 61.677 55.6842 62.795 57.2927 63.5404C58.901 64.2857 59.6434 64.7826 59.6434 65.6522C59.6434 66.646 58.7773 67.1429 57.9113 67.1429C56.5502 67.1429 55.6842 66.3975 55.313 64.9068C55.313 64.7826 55.1894 64.7826 55.0656 64.7826H54.9419L52.3437 65.9006C52.22 65.9006 52.22 66.0249 52.22 66.0249C52.5911 67.3913 53.7047 69.1304 55.808 69.7515C56.3028 69.8758 56.7977 70 57.4163 70C58.1587 70 58.7773 69.8758 59.3959 69.7515C61.4992 69.2547 62.8601 67.764 62.8601 65.1553C62.8601 63.1677 61.3754 62.2981 60.0145 61.5528C59.0247 61.0559 57.6638 60.6832 57.6638 59.6894C57.6638 58.9441 58.2824 58.4472 59.0247 58.4472C59.7671 58.4472 60.5093 58.8199 61.0043 59.441L61.1279 59.5652H61.2518L63.355 58.0745C63.4787 57.8261 63.4787 57.8261 63.4787 57.7019ZM72.1393 55.7143C71.6444 55.5901 71.1496 55.4658 70.6546 55.4658C70.036 55.4658 69.4174 55.5901 68.9225 55.7143C66.943 56.2112 65.8295 57.7019 65.8295 59.8137C65.8295 61.677 67.0667 62.795 68.675 63.5404C70.2835 64.2857 71.0258 64.7826 71.0258 65.6522C71.0258 66.646 70.1597 67.1429 69.2936 67.1429C67.9327 67.1429 67.0667 66.2733 66.6955 64.9068C66.6955 64.7826 66.5717 64.7826 66.5717 64.7826H66.4481L63.7262 65.6522C63.6025 65.6522 63.6025 65.7764 63.6025 65.7764C63.9736 67.1429 65.0872 68.8819 67.1903 69.5031C67.6853 69.6274 68.1802 69.7515 68.7988 69.7515C69.5411 69.7515 70.1597 69.6274 70.7783 69.5031C72.8816 69.0063 74.2426 67.5156 74.2426 64.9068C74.2426 62.9193 72.7579 62.0497 71.3969 61.3043C70.4072 60.8075 69.0463 60.4348 69.0463 59.441C69.0463 58.6957 69.6649 58.1988 70.4072 58.1988C71.1496 58.1988 71.8918 58.5714 72.3868 59.1925L72.5105 59.3168H72.6343L74.8612 57.7019L74.9849 57.5776V57.4534C74.3663 56.7081 73.3765 55.9627 72.1393 55.7143ZM81.0473 55.7143H77.9542C77.8306 55.7143 77.8306 55.7143 77.7068 55.8385L75.1087 69.3789V69.5031C75.1087 69.6274 75.2323 69.6274 75.2323 69.6274H78.4492L78.5728 69.5031L81.1711 55.8385C81.2947 55.7143 81.1711 55.7143 81.0473 55.7143ZM85.8724 61.0559C86.491 59.5652 87.8521 58.4472 89.5842 58.4472C91.3162 58.4472 92.1823 59.3168 92.1823 61.0559H85.8724ZM91.8112 55.7143C91.3162 55.5901 90.6976 55.4658 90.079 55.4658C89.3367 55.4658 88.7181 55.5901 88.0995 55.7143C84.2641 56.5838 81.7897 60.0621 81.7897 63.7888C81.7897 67.0186 83.5218 69.1304 85.9962 69.7515C86.491 69.8758 87.1098 70 87.7284 70C88.4707 70 89.2129 69.8758 89.8317 69.7515C91.8112 69.2547 93.1722 68.1367 94.533 66.2733V66.149C94.533 66.0249 94.533 66.0249 94.4094 66.0249L92.0586 64.7826H91.9348C91.8112 64.7826 91.8112 64.7826 91.8112 64.9068C90.8214 66.3975 89.7079 67.1429 88.0995 67.1429C86.2437 67.1429 85.2538 65.9006 85.2538 64.41V63.9131H95.2755L95.3991 63.7888C95.5228 63.4162 95.7703 62.4224 95.7703 61.1801C95.6466 58.4472 94.2856 56.3354 91.8112 55.7143ZM106.782 58.8199H107.029C107.029 58.8199 107.153 58.8199 107.153 58.6957L108.143 55.9627V55.8385C108.143 55.7143 108.142 55.7143 108.019 55.7143C107.895 55.7143 107.895 55.7143 107.771 55.5901C107.4 55.4658 107.029 55.3416 106.287 55.3416C105.792 55.3416 105.297 55.4658 104.802 55.5901C103.812 55.9627 102.823 56.5838 101.956 57.7019L102.328 55.8385C102.328 55.7143 102.204 55.5901 102.08 55.5901H98.9871C98.8633 55.5901 98.8633 55.7143 98.7396 55.7143L96.1414 69.2547V69.3789C96.1414 69.5031 96.2652 69.5031 96.2652 69.5031H99.482L99.6057 69.3789L100.595 64.5342C101.462 60.1863 103.812 58.323 105.544 58.323C106.039 58.5714 106.41 58.5714 106.782 58.8199ZM80.1813 50.2484C79.0678 50.2484 78.2017 51.118 78.2017 52.236C78.2017 53.354 79.0678 54.2236 80.1813 54.2236C81.2947 54.2236 82.1608 53.354 82.1608 52.236C82.1608 51.118 81.2947 50.2484 80.1813 50.2484ZM106.905 65.9006C105.792 65.9006 104.926 66.7701 104.926 67.8882C104.926 68.6335 105.297 69.2547 105.916 69.6274C106.163 69.7515 106.534 69.8758 106.905 69.8758C107.276 69.8758 107.648 69.7515 107.895 69.6274C108.514 69.2547 108.885 68.6335 108.885 67.8882C108.885 66.7701 108.019 65.9006 106.905 65.9006Z" fill="#1A1919"/>
</svg>
