<svg width="121" height="121" viewBox="0 0 121 121" fill="none" xmlns="http://www.w3.org/2000/svg">
<mask id="mask0_61_1118" style="mask-type:luminance" maskUnits="userSpaceOnUse" x="20" y="21" width="82" height="79">
<path d="M102 21H20V100H102V21Z" fill="white"/>
</mask>
<g mask="url(#mask0_61_1118)">
<mask id="mask1_61_1118" style="mask-type:luminance" maskUnits="userSpaceOnUse" x="20" y="21" width="469" height="79">
<path d="M488.015 21H20V100H488.015V21Z" fill="white"/>
</mask>
<g mask="url(#mask1_61_1118)">
<path d="M35.484 99.7636C33.272 99.7636 32.1225 98.9209 31.019 96.9624L20.9396 78.0863C20.245 76.734 20.2339 76.283 20.2339 75.3086L36.0751 76.0142L39.7008 79.6767H71.4762L45.0928 96.1883C43.8068 96.9569 38.9158 99.7636 35.484 99.7636Z" fill="url(#paint0_linear_61_1118)"/>
<path d="M39.7153 79.6765H26.0129C21.8743 79.6765 20.2339 77.4898 20.2339 75.3084C20.2339 73.928 20.6736 73.1753 21.2815 71.6411L41.2503 23.4822L41.4649 23.0596L41.7413 22.626L42.316 22.0601L43.1598 21.6044L44.382 21.3325L46.4844 21.3876L60.3607 26.5982L55.6685 41.5463L39.7153 79.6765Z" fill="url(#paint1_linear_61_1118)"/>
<path fill-rule="evenodd" clip-rule="evenodd" d="M79.95 99.7607L48.4305 24.3788C47.8877 23.0953 47.0172 21.4392 44.7642 21.4392C42.7511 21.4392 41.7921 22.4239 41.2505 23.4822C41.5305 22.719 42.378 21.2363 44.834 21.2363H66.5879C68.5927 21.2363 69.5544 22.4288 69.9927 23.5207L101.867 99.7607H79.95Z" fill="url(#paint2_linear_61_1118)"/>
</g>
</g>
<defs>
<linearGradient id="paint0_linear_61_1118" x1="26.853" y1="89.193" x2="71.3487" y2="80.4173" gradientUnits="userSpaceOnUse">
<stop stop-color="#2B7A77"/>
<stop offset="0.510487" stop-color="#4EBAA9"/>
<stop offset="1" stop-color="#5CC2B1"/>
</linearGradient>
<linearGradient id="paint1_linear_61_1118" x1="49.7522" y1="27.3896" x2="27.3052" y2="79.5713" gradientUnits="userSpaceOnUse">
<stop stop-color="#236736"/>
<stop offset="0.4928" stop-color="#6BA443"/>
<stop offset="1" stop-color="#86C146"/>
</linearGradient>
<linearGradient id="paint2_linear_61_1118" x1="58.2771" y1="21.4795" x2="91.27" y2="99.2534" gradientUnits="userSpaceOnUse">
<stop stop-color="#29A5E3"/>
<stop offset="0.515493" stop-color="#356EB9"/>
<stop offset="1" stop-color="#394DA5"/>
</linearGradient>
</defs>
</svg>
