<svg width="121" height="121" viewBox="0 0 121 121" fill="none" xmlns="http://www.w3.org/2000/svg">
<circle cx="60.5" cy="60.5" r="60.5" fill="#D9D9D9"/>
<path d="M47.9581 53.9512C47.9581 53.8082 48.0532 53.7128 48.1961 53.7128H55.196C58.1485 53.7128 59.7198 55.0954 59.7198 57.3361C59.7198 58.814 58.7199 59.7199 57.6722 60.0536C58.9103 60.435 60.0055 61.5315 60.0055 63.2955C60.0055 65.6315 58.4341 67.1572 55.2914 67.1572H48.1961C48.0532 67.1572 47.9581 67.0618 47.9581 66.9187V53.9512ZM50.4818 55.9059V59.1954H54.9104C56.3866 59.1954 57.1008 58.6233 57.1008 57.5268C57.1008 56.3826 56.339 55.8582 54.9104 55.8582H50.4818V55.9059ZM50.4818 61.3408V65.0594H55.0056C56.6722 65.0594 57.4342 64.392 57.4342 63.2001C57.4342 61.9606 56.6246 61.3408 55.0056 61.3408H50.4818ZM63.1483 60.4827C63.1483 56.4303 66.1959 53.5222 70.196 53.5222C74.1959 53.5222 77.2435 56.4303 77.2435 60.4827C77.2435 64.4873 74.1959 67.4431 70.196 67.4431C66.1483 67.4431 63.1483 64.535 63.1483 60.4827ZM74.6721 60.4827C74.6721 57.9082 72.9102 55.8582 70.2435 55.8582C67.5769 55.8582 65.8149 57.9559 65.8149 60.4827C65.8149 63.1048 67.5769 65.1071 70.2435 65.1071C72.8626 65.1548 74.6721 63.0571 74.6721 60.4827ZM80.4815 60.4827C80.4815 56.4303 83.5291 53.5222 87.529 53.5222C91.5289 53.5222 94.5765 56.4303 94.5765 60.4827C94.5765 64.4873 91.5289 67.4431 87.529 67.4431C83.4816 67.4431 80.4815 64.535 80.4815 60.4827ZM92.0052 60.4827C92.0052 57.9082 90.2433 55.8582 87.5768 55.8582C84.9101 55.8582 83.1482 57.9559 83.1482 60.4827C83.1482 63.1048 84.9101 65.1071 87.5768 65.1071C90.1957 65.1548 92.0052 63.0571 92.0052 60.4827ZM106.243 63.5815L110.243 53.9035C110.291 53.8082 110.338 53.7605 110.434 53.7605H113.719C113.862 53.7605 113.957 53.8559 113.957 53.9989V67.0141C113.957 67.1572 113.862 67.2524 113.719 67.2524H111.672C111.529 67.2524 111.434 67.1572 111.434 67.0141V56.1919L106.957 67.1572C106.91 67.2524 106.862 67.3001 106.767 67.3001H105.338C105.243 67.3001 105.148 67.2524 105.148 67.1572L100.719 56.2873V67.0141C100.719 67.1572 100.624 67.2524 100.481 67.2524H98.5766C98.4337 67.2524 98.3384 67.1572 98.3384 67.0141V53.9989C98.3384 53.8559 98.4337 53.7605 98.5766 53.7605H102.005C102.1 53.7605 102.196 53.8082 102.196 53.9035L106.243 63.5815ZM37.7201 60.5303C37.6725 60.1489 37.3392 59.9106 36.9582 59.9582L29.244 61.0071L37.1963 57.6698C37.5772 57.5268 37.7676 57.0501 37.6248 56.6687C37.482 56.2873 37.0058 56.0966 36.6249 56.2396L30.4344 58.8617L36.4344 54.2373C36.8153 53.9512 36.8629 53.4268 36.5771 53.0454C36.2915 52.664 35.7677 52.6163 35.3868 52.9024L30.3868 56.764L34.7201 51.0431C35.0058 50.6617 34.9581 50.0896 34.5296 49.7558C34.1487 49.4698 33.5773 49.5175 33.2439 49.9465L29.6725 54.6663L32.3392 48.3733C32.5296 47.8965 32.3392 47.3721 31.8629 47.1337C31.3869 46.943 30.863 47.1337 30.6248 47.6105L25.4345 59.7675C24.9583 60.8641 23.8154 61.6268 22.5297 61.6268C21.2917 61.6268 20.2917 60.9117 19.7679 59.8152L14.1965 47.1814C14.1489 47.0384 13.9584 46.943 13.8155 47.0384C13.6727 47.0861 13.5774 47.2768 13.6727 47.4198L18.625 58.5757L11.7203 49.6605C11.5775 49.5175 11.3394 49.4698 11.1965 49.6128C11.0537 49.7558 11.006 49.9942 11.1489 50.1372L18.0536 59.0524L9.86319 52.807C9.67272 52.664 9.38701 52.7117 9.24415 52.9024C9.10129 53.0931 9.14891 53.3791 9.33939 53.5222L17.8631 60.0536L8.81558 56.3826C8.52987 56.2873 8.24416 56.3826 8.1013 56.6687C8.00607 56.9547 8.1013 57.2408 8.38702 57.3838L17.8631 61.2454L8.67273 60.0536C8.3394 60.0059 8.05369 60.2443 8.00607 60.578C7.95845 60.9117 8.19654 61.1978 8.52987 61.2454L18.1964 62.485L9.52986 63.6769C9.14891 63.7245 8.91082 64.0583 8.95844 64.4397C9.00606 64.8211 9.33939 65.0594 9.72034 65.0118L18.7203 63.7722L11.2441 66.9187C10.8632 67.0618 10.6727 67.5386 10.8156 67.9199C10.9584 68.3013 11.4346 68.492 11.8156 68.3489L19.7679 65.0118L13.7679 69.6839C13.387 69.9699 13.3393 70.4943 13.6251 70.8757C13.9108 71.2571 14.4346 71.3049 14.8155 71.0188L21.0536 66.2036L16.9107 71.6386C16.625 72.02 16.6727 72.5921 17.1012 72.9258C17.4822 73.2118 18.0536 73.1641 18.3869 72.7351L22.244 67.6338L20.1012 72.6873C19.9107 73.1641 20.1012 73.6886 20.5774 73.9269C21.0536 74.1176 21.5774 73.9269 21.8155 73.4503L23.4821 69.4933L25.3392 73.7362C25.3868 73.8793 25.5773 73.9747 25.7202 73.8793C25.863 73.8316 25.9583 73.6409 25.863 73.4979L23.7678 68.7303L24.3869 67.3001L28.5773 72.7351C28.7202 72.878 28.9582 72.9258 29.1011 72.7828C29.244 72.6397 29.2916 72.4014 29.1487 72.2583L24.6726 66.4897L25.0059 65.6315L31.72 70.7804C31.9107 70.9235 32.1963 70.8757 32.3392 70.685C32.4821 70.4943 32.4343 70.2084 32.2438 70.0653L25.3392 64.7734L25.4821 64.4397L34.3391 68.063C34.6249 68.1583 34.9105 68.063 35.0534 67.7769C35.1487 67.4908 35.0534 67.2048 34.7676 67.0618L26.2916 63.6292L36.1486 64.9164C36.482 64.9641 36.7678 64.7257 36.8153 64.392C36.8629 64.0583 36.6249 63.7722 36.2915 63.7245L27.9582 62.6757L37.1009 61.4362C37.482 61.2454 37.7676 60.9117 37.7201 60.5303Z" fill="#01030A"/>
<circle cx="60.5" cy="60.5" r="60.5" fill="#D9D9D9"/>
<path d="M38.6139 51.4056H41.2089V53.9283H38.6139V51.4056ZM38.6139 66.1974H41.2089V55.5603H38.6139V66.1974ZM49.024 55.5603H51.5232V65.5407C51.561 66.1418 51.4764 66.7447 51.2754 67.3065C51.0745 67.8683 50.7622 68.3754 50.3605 68.7915C49.3619 69.6526 48.1034 70.079 46.8305 69.9879C44.1636 69.9879 42.5215 68.7526 42.2517 66.6784H44.8288C45.0386 67.3287 45.59 67.8618 46.7945 67.8618C48.2629 67.8618 48.9641 67.0946 48.9641 65.6446V64.3443H48.9101C48.5996 64.7499 48.2074 65.0728 47.7637 65.2881C47.3201 65.5033 46.8367 65.6053 46.3511 65.5862C44.1815 65.5862 42.0419 63.7201 42.0419 60.5147C42.0419 57.3093 43.798 55.3132 46.2791 55.3132C46.8027 55.2851 47.3243 55.3987 47.7973 55.6439C48.2702 55.8891 48.6794 56.2581 48.9881 56.7176H49.024V55.5603ZM49.0839 60.4302C49.0839 58.8762 48.3169 57.5498 46.7526 57.5498C45.4402 57.5498 44.5651 58.6682 44.5651 60.4497C44.5651 62.2312 45.4402 63.304 46.7765 63.304C48.4307 63.304 49.0839 61.9971 49.0839 60.4302ZM58.2535 55.3002C57.6706 55.2725 57.0918 55.4199 56.5809 55.7262C56.0703 56.0325 55.6473 56.4858 55.3588 57.0362H55.2989V55.5603H52.7637V66.1974H55.3588V60.1766C55.3588 58.7332 56.1978 57.7384 57.3425 57.7384C57.577 57.7267 57.811 57.7701 58.0285 57.8656C58.2461 57.961 58.4421 58.1063 58.6031 58.2915C58.7642 58.4767 58.8864 58.6974 58.9616 58.9386C59.0367 59.1798 59.063 59.4357 59.0387 59.689V66.1908H61.6276V59.2663C61.6276 56.9517 60.2792 55.3002 58.2535 55.3002ZM72.5353 66.1974H75.1244V51.4056H72.5353V66.1974ZM76.5986 66.1974H79.3675V60.1116H84.5336V57.5108H79.3675V53.9543H85.6003V51.4056H76.6107L76.5986 66.1974ZM86.7092 53.9283H89.3042V51.4056H86.7092V53.9283ZM86.7092 66.1974H89.3042V55.5603H86.7092V66.1974ZM103.31 63.0374H105.869C105.504 64.9164 103.958 66.5094 101.44 66.5094C98.204 66.5094 96.3702 64.0452 96.3702 60.8853C96.3702 57.7254 98.3358 55.3002 101.165 55.3002C104.311 55.3002 105.989 57.9009 105.989 61.6915H98.9233C99.1151 63.3235 99.954 64.3377 101.422 64.3377C101.826 64.3842 102.233 64.2809 102.575 64.0447C102.918 63.8086 103.177 63.4536 103.31 63.0374ZM98.9652 59.7475H103.31C103.316 59.448 103.266 59.1504 103.163 58.8724C103.061 58.5944 102.907 58.3417 102.713 58.1293C102.518 57.9169 102.286 57.7492 102.03 57.6363C101.775 57.5233 101.501 57.4674 101.225 57.4718C99.8582 57.4718 99.1929 58.3561 98.9652 59.7475ZM71.2168 59.2273V66.1974H68.9634V64.7344C68.4899 65.6966 67.519 66.4508 65.8349 66.4508C63.8331 66.4508 62.4247 65.3131 62.4247 63.2C62.4247 60.8593 64.1808 60.1181 66.3503 59.7865C67.9745 59.5394 68.7476 59.3964 68.7476 58.5836C68.7476 57.7709 68.1663 57.3223 67.0635 57.3223C65.8648 57.3223 65.2656 57.8034 65.1757 58.8112H62.8683C62.9461 56.9517 64.2227 55.3197 67.0635 55.3197C69.9042 55.3197 71.2168 56.7436 71.2168 59.2273ZM68.7775 60.8593C68.2066 61.1592 67.6023 61.3778 66.9796 61.5095C65.6251 61.8411 64.9599 62.1597 64.9599 63.1609C64.9599 64.1622 65.5592 64.5069 66.4881 64.5069C67.9745 64.5069 68.7955 63.512 68.7955 62.4782L68.7775 60.8593ZM17.7277 65.2675C18.0636 65.5313 18.4279 65.7495 18.8124 65.9178V61.6005H16.1215C16.1125 62.3044 16.2527 63.001 16.5312 63.6368C16.8097 64.2726 17.219 64.8305 17.7277 65.2675ZM16.9006 53.5382C16.6252 54.1441 16.4895 54.8134 16.5051 55.4887C16.4764 56.1654 16.6129 56.8382 16.9006 57.4393C17.1565 57.9133 17.5041 58.3215 17.9195 58.6357C18.1967 58.8307 18.4895 58.9983 18.7945 59.1363V51.6592C18.5086 51.7973 18.2356 51.9649 17.9794 52.1598C17.5275 52.5239 17.1585 52.9954 16.9006 53.5382ZM35.9349 58.5706C35.4272 58.2198 34.8764 57.9484 34.2988 57.7644C33.6995 57.5629 33.0103 57.3808 32.3031 57.2117C31.7877 57.086 31.3442 56.969 30.9725 56.8606C30.6502 56.7664 30.3386 56.6334 30.0436 56.464C29.8205 56.3357 29.6278 56.1532 29.4802 55.9309C29.3556 55.6986 29.2953 55.4322 29.3064 55.1637C29.3013 54.9017 29.3608 54.6429 29.4789 54.4143C29.5969 54.1857 29.7691 53.9954 29.9777 53.8633C30.5218 53.5184 31.1462 53.3514 31.7757 53.3822C32.415 53.3603 33.0442 53.5583 33.5737 53.9478C33.821 54.1446 34.0256 54.3981 34.1726 54.6902C34.3198 54.9824 34.4058 55.306 34.4247 55.6383H37.0976C37.0861 54.9711 36.9394 54.3148 36.6681 53.7159C36.3967 53.1171 36.0073 52.5902 35.5274 52.1728C34.4401 51.3427 33.1273 50.9328 31.7997 51.009C31.0861 51.0006 30.3748 51.0946 29.6841 51.2886C29.0856 51.4569 28.5208 51.7434 28.018 52.1338C27.5523 52.5015 27.1726 52.9825 26.9092 53.5382C26.634 54.1442 26.4983 54.8134 26.5137 55.4887C26.4847 56.1654 26.6212 56.8383 26.9092 57.4393C27.166 57.9295 27.5202 58.3515 27.946 58.6747C28.4092 59.0089 28.9164 59.2654 29.4503 59.4354C30.0196 59.6239 30.613 59.793 31.2483 59.949C31.7757 60.0726 32.2491 60.1961 32.6627 60.3131C33.0328 60.4104 33.3924 60.5498 33.7354 60.7293C34.0036 60.8672 34.2377 61.0722 34.4187 61.3274C34.5873 61.5898 34.6714 61.9051 34.6584 62.2247C34.6681 62.5369 34.5908 62.8451 34.4367 63.1089C34.2836 63.3572 34.078 63.5622 33.8373 63.7071C33.5741 63.8668 33.2887 63.9788 32.9923 64.0387C32.6548 64.1106 32.3115 64.1454 31.9674 64.1427C31.1935 64.2039 30.4211 64.004 29.756 63.5706C29.4886 63.3327 29.2712 63.0357 29.1182 62.6993C28.9652 62.3629 28.8803 61.9949 28.869 61.62H26.1421C26.1331 62.3239 26.2733 63.0205 26.5518 63.6563C26.8303 64.2921 27.2396 64.8501 27.7483 65.2871C28.7671 66.154 30.2154 66.5874 32.0933 66.5874C32.8146 66.5944 33.533 66.4894 34.2269 66.2753C34.8346 66.0704 35.4018 65.744 35.8989 65.3131C36.3708 64.9187 36.7524 64.4114 37.0137 63.8306C37.2922 63.2023 37.4319 62.5122 37.4213 61.8151C37.4459 61.1269 37.3055 60.4436 37.0137 59.832C36.7513 59.3248 36.3815 58.8925 35.9349 58.5706ZM22.3844 61.6005H19.6515C19.6425 62.3044 19.7827 63.001 20.0612 63.6368C20.3396 64.2726 20.749 64.8305 21.2576 65.2675C22.4444 66.1565 23.8615 66.6119 25.303 66.5679V64.1037C24.5886 64.1345 23.8818 63.9354 23.2714 63.5316C23.0073 63.2948 22.792 63.0006 22.6392 62.668C22.4865 62.3354 22.3996 61.9717 22.3844 61.6005ZM23.1934 51.2886C23.8827 51.0977 24.5917 51.0037 25.303 51.009V53.4147C24.6735 53.3839 24.0492 53.5509 23.5051 53.8958C23.2965 54.0279 23.1242 54.2182 23.0062 54.4468C22.8882 54.6755 22.8287 54.9342 22.8339 55.1962C22.8244 55.4654 22.8868 55.7318 23.0136 55.9634C23.1611 56.1857 23.3539 56.3682 23.577 56.4965C23.8752 56.6552 24.1888 56.7773 24.5119 56.8606L25.333 57.0817V60.0401L24.7816 59.91C24.1823 59.754 23.583 59.5849 22.9837 59.3964C22.4512 59.2279 21.9458 58.9713 21.4854 58.6357C21.0563 58.3146 20.6997 57.8922 20.4426 57.4003C20.1597 56.809 20.0234 56.148 20.047 55.4823C20.0317 54.8069 20.1674 54.1377 20.4426 53.5317C20.6964 52.9825 21.0635 52.5042 21.5154 52.1338C22.0218 51.742 22.5908 51.4554 23.1934 51.2886ZM90.5628 55.5603V58.161V66.1974H93.1578V58.161H96.3401V55.5603H90.5628Z" fill="black"/>
</svg>
