<svg width="121" height="121" viewBox="0 0 121 121" fill="none" xmlns="http://www.w3.org/2000/svg">
<circle cx="60.5" cy="60.5" r="60.5" fill="#D9D9D9"/>
<path d="M80.4639 28.124C79.7836 28.124 79.1432 28.3008 78.5836 28.6114C78.2479 28.7976 77.9414 29.0324 77.6735 29.306C76.9588 30.036 76.5161 31.0436 76.5161 32.1547C76.5161 32.8044 76.6679 33.4112 76.933 33.9472C76.9724 34.0271 77.0146 34.105 77.0593 34.1816C77.1631 34.36 77.2772 34.5314 77.4068 34.69C77.5665 34.8848 77.7445 35.064 77.939 35.2243C78.6188 35.7854 79.4956 36.1187 80.4639 36.1187C82.6773 36.1187 84.4782 34.3402 84.4782 32.1551C84.4782 29.9322 82.6773 28.124 80.4639 28.124Z" fill="#FFD124"/>
<path d="M69.6279 41.866V47.7069V50.0906V71.5846C69.6279 84.0073 59.1227 92.9999 52.0671 92.9999C46.3953 92.9999 42.1177 90.6838 42.1177 88.6133C42.1177 86.6335 43.8778 84.897 45.8849 84.897C47.1859 84.897 48.5866 85.6544 50.2101 86.5319C52.1089 87.5575 54.2559 88.7189 56.4969 88.7189C58.586 88.7189 63.4737 88.7189 63.4737 75.407V73.9553C60.6017 75.5361 57.5558 76.4994 54.0114 76.4994C43.4027 76.4985 36 69.5058 36 59.4933C36 49.2221 44.4091 41.1772 55.1401 41.1772C58.7624 41.1772 62.0053 42.0234 64.7025 43.5373C64.8203 43.3635 64.9421 43.1971 65.0443 43.0459C66.3777 41.0692 67.7751 40.7656 68.5591 40.7656C69.5894 40.7652 69.6279 41.5937 69.6279 41.866ZM63.4737 49.3115C61.4223 45.6631 58.2919 43.0685 54.2887 43.0685C49.1939 43.0685 43.1246 45.7249 43.1246 58.3789C43.1246 66.3237 47.6401 74.5408 55.2 74.5408C58.8244 74.5408 61.833 73.0075 63.4741 70.1522V67.5592L63.4737 49.3115Z" fill="#0F152F"/>
<circle cx="60.5" cy="60.5" r="60.5" fill="#D9D9D9"/>
<mask id="mask0_73_2103" style="mask-type:luminance" maskUnits="userSpaceOnUse" x="12" y="47" width="98" height="27">
<path d="M109.82 47H12V74H109.82V47Z" fill="white"/>
</mask>
<g mask="url(#mask0_73_2103)">
<path d="M36.749 63.7609C36.1614 63.7609 35.7042 63.3043 35.6389 62.7174C35.2471 57.1087 32.1779 49.2174 26.4968 49.2174C21.7952 49.2174 18.2689 52.4783 15.9834 58.9348C15.7875 59.5217 15.1345 59.8478 14.5468 59.587C13.9591 59.3913 13.6326 58.7391 13.8938 58.2174C16.5058 50.7826 20.7503 47 26.4968 47C34.0063 47 37.4673 56.5217 37.8591 62.587C37.9244 63.1739 37.4673 63.7609 36.8143 63.7609H36.749Z" fill="#1D2D35"/>
<path opacity="0.4" d="M39.361 65.9133L19.7708 74.0002L12 55.2175L15.5262 53.7828L31.6556 47.1958L39.361 65.9133Z" fill="#FFE000"/>
<path d="M38.447 68.0652L17.6813 72.3694L13.5674 52.4782L17.0283 51.7608L34.3331 48.1738L38.447 68.0652Z" fill="#FFE000"/>
<path d="M26.2357 67.8695C22.4482 67.8695 18.7914 66.2392 16.2447 63.3696C15.9182 63.1087 15.8529 62.6522 15.9835 62.2609C16.7018 60.3696 18.5955 56 21.0116 55.9348C22.2523 55.9348 23.1666 56.913 23.8848 57.6957C24.0808 57.9565 24.4073 58.2826 24.6685 58.4783C25.2562 57.8913 26.3663 56.0652 27.2152 54.1739C27.4764 53.5869 28.1294 53.3913 28.7171 53.6522C29.3048 53.913 29.5007 54.5652 29.2395 55.1522C26.6275 60.8261 25.2562 60.8261 24.7338 60.8261C23.689 60.8261 22.9707 60.0435 22.2523 59.2609C21.9258 58.9348 21.2728 58.2174 21.0116 58.2174C20.4239 58.2826 19.1832 60.3043 18.3343 62.4565C20.4892 64.6087 23.4278 65.7826 26.4316 65.7174C29.0436 65.7174 33.6799 65.2609 35.5736 62.4565C35.0513 56.8478 31.9822 49.2826 26.4316 49.2826C25.8439 49.2826 25.3215 48.7609 25.3215 48.1739C25.3215 47.587 25.8439 47 26.4969 47C34.0064 47 37.4674 56.5217 37.8592 62.587C37.8592 62.7826 37.7938 63.0435 37.7285 63.2391C35.9655 66.2392 31.9822 67.9347 26.4969 67.9347C26.4316 67.8695 26.301 67.8695 26.2357 67.8695Z" fill="#1D2D35"/>
<path d="M42.561 52.5435H46.5443C48.7645 52.5435 49.9399 53.4565 49.9399 55.1521V55.2174C50.0053 56.2609 49.287 57.1739 48.3074 57.3695C49.5481 57.5 50.3971 58.5435 50.3318 59.7826V59.8478C50.3318 61.7391 49.091 62.7174 46.7403 62.7174H42.561V52.5435ZM46.1525 56.7174C47.2626 56.7174 47.7197 56.3261 47.7197 55.413V55.3478C47.7197 54.5 47.2626 54.1087 46.1525 54.1087H44.7812V56.7174H46.1525ZM46.4136 61.0869C47.5239 61.0869 48.0462 60.5652 48.0462 59.6521V59.5869C48.0462 58.6739 47.5237 58.1521 46.2832 58.1521H44.8466V61.0869H46.4136Z" fill="#1D2D35"/>
<path d="M50.9194 60.6304C50.9194 58.9347 52.4867 58.2826 54.772 58.2826H55.621V57.9565C55.621 57.0434 55.3598 56.5869 54.4456 56.5869C53.8579 56.5217 53.2701 56.913 53.205 57.5652V57.6304H51.2459C51.3764 55.8695 52.7478 55.0869 54.5762 55.0869C56.4046 55.0869 57.7107 55.8043 57.7107 57.826V62.6521H55.6863V61.8043C55.1638 62.5217 54.3151 62.913 53.4661 62.8478C52.0295 62.8478 50.9194 62.1956 50.9194 60.6304ZM55.621 60.1087V59.4565H54.8374C53.6619 59.4565 52.9436 59.7173 52.9436 60.5C52.9436 61.0217 53.2701 61.413 54.0537 61.413C54.9027 61.413 55.621 60.8913 55.621 60.1087Z" fill="#1D2D35"/>
<path d="M58.4941 60.3695H60.3879C60.4532 61.0217 60.7797 61.413 61.694 61.413C62.6083 61.413 62.8694 61.0869 62.8694 60.6304C62.8694 60.1739 62.4123 59.913 61.3675 59.7173C59.4084 59.3913 58.6248 58.8695 58.6248 57.3695C58.6248 55.8695 59.9961 55.0869 61.5633 55.0869C63.1959 55.0869 64.4367 55.6739 64.6325 57.3695H62.7387C62.6083 56.7826 62.2816 56.4565 61.5633 56.4565C60.845 56.4565 60.5185 56.7826 60.5185 57.2391C60.5185 57.6956 60.845 57.8913 61.9551 58.0217C63.7835 58.2826 64.8285 58.7391 64.8285 60.3695C64.8285 62 63.653 62.8478 61.694 62.8478C59.7349 62.8478 58.5595 61.9347 58.4941 60.3695Z" fill="#1D2D35"/>
<path d="M65.4158 59.0652V58.9347C65.2851 56.913 66.8524 55.1521 68.9421 55.0869H69.2686C71.1623 55.0869 72.9254 56.1956 72.9254 58.8695V59.4565H67.5054C67.5707 60.6956 68.2238 61.413 69.3339 61.413C70.3134 61.413 70.7705 61.0217 70.901 60.3695H72.8601C72.5989 62 71.3581 62.8478 69.3339 62.8478C67.0484 62.8478 65.4158 61.413 65.4158 59.0652ZM70.8359 58.1521C70.7705 57.0434 70.1827 56.4565 69.2033 56.4565C68.289 56.4565 67.5054 57.1739 67.5054 58.1521H70.8359Z" fill="#1D2D35"/>
<path d="M73.3828 59.0652V58.9347C73.3175 56.913 74.8847 55.1521 76.909 55.0869H77.2356C78.9333 55.0869 80.5659 55.8043 80.6964 57.9565H78.7375C78.6722 57.2391 78.0191 56.6521 77.3008 56.7173C76.256 56.7173 75.5377 57.5 75.5377 58.9347V59.0652C75.5377 60.5652 76.1907 61.3478 77.3661 61.3478C78.2151 61.413 78.9333 60.7608 78.9333 59.913H80.7617C80.6311 61.6739 79.3905 62.913 77.2356 62.913C75.0806 62.913 73.3828 61.4782 73.3828 59.0652Z" fill="#1D2D35"/>
<path d="M81.2842 60.6306C81.2842 58.935 82.8514 58.2828 85.137 58.2828H85.9857V57.9567C85.9857 57.0436 85.7246 56.5871 84.8103 56.5871C84.2227 56.5219 83.635 56.9132 83.5697 57.5654V57.6958H81.6107C81.7413 55.935 83.1126 55.1523 84.941 55.1523C86.7694 55.1523 88.0755 55.8697 88.0755 57.8915V62.6523H86.0511V61.8045C85.5288 62.5219 84.6798 62.9132 83.8309 62.848C82.3943 62.848 81.2842 62.1958 81.2842 60.6306ZM85.9204 60.1089V59.4567H85.137C83.9615 59.4567 83.2432 59.7176 83.2432 60.5002C83.2432 61.0219 83.5697 61.4132 84.3533 61.4132C85.2674 61.4132 85.9204 60.8915 85.9204 60.1089Z" fill="#1D2D35"/>
<path d="M89.3813 55.2827H91.4709V56.3914C91.928 55.5435 92.777 55.087 93.7564 55.087C94.6707 55.0218 95.5197 55.5435 95.8462 56.3914C96.4338 55.5435 97.3481 55.087 98.3275 55.087C99.6988 55.087 100.809 55.9349 100.809 57.9566V62.6522H98.7846V58.1523C98.7846 57.174 98.3928 56.7827 97.6092 56.7827C96.8256 56.7175 96.1726 57.3696 96.1726 58.087V58.2827V62.6522H94.1482V58.1523C94.1482 57.174 93.6911 56.7827 92.9728 56.7827C92.1892 56.7175 91.6016 57.3696 91.5362 58.087V58.2827V62.6522H89.4467L89.3813 55.2827Z" fill="#1D2D35"/>
<path d="M102.18 55.2828H104.205V56.4567C104.727 55.6089 105.641 55.1523 106.555 55.1523C108.384 55.1523 109.82 56.5219 109.82 58.935V59.0654C109.82 61.5436 108.449 62.9132 106.555 62.9132C105.576 62.9784 104.662 62.4567 104.205 61.6089V65.261H102.18V55.2828ZM107.731 59.0002V58.8697C107.731 57.3697 107.012 56.6523 105.968 56.6523C104.923 56.6523 104.139 57.3697 104.139 58.8697V59.0002C104.139 60.5002 104.858 61.2176 105.968 61.2176C107.078 61.2176 107.731 60.435 107.731 59.0002Z" fill="#1D2D35"/>
</g>
</svg>
