<svg width="121" height="121" viewBox="0 0 121 121" fill="none" xmlns="http://www.w3.org/2000/svg">
<circle cx="60.5" cy="60.5" r="60.5" fill="#D9D9D9"/>
<path d="M47.9581 53.9512C47.9581 53.8082 48.0532 53.7128 48.1961 53.7128H55.196C58.1485 53.7128 59.7198 55.0954 59.7198 57.3361C59.7198 58.814 58.7199 59.7199 57.6722 60.0536C58.9103 60.435 60.0055 61.5315 60.0055 63.2955C60.0055 65.6315 58.4341 67.1572 55.2914 67.1572H48.1961C48.0532 67.1572 47.9581 67.0618 47.9581 66.9187V53.9512ZM50.4818 55.9059V59.1954H54.9104C56.3866 59.1954 57.1008 58.6233 57.1008 57.5268C57.1008 56.3826 56.339 55.8582 54.9104 55.8582H50.4818V55.9059ZM50.4818 61.3408V65.0594H55.0056C56.6722 65.0594 57.4342 64.392 57.4342 63.2001C57.4342 61.9606 56.6246 61.3408 55.0056 61.3408H50.4818ZM63.1483 60.4827C63.1483 56.4303 66.1959 53.5222 70.196 53.5222C74.1959 53.5222 77.2435 56.4303 77.2435 60.4827C77.2435 64.4873 74.1959 67.4431 70.196 67.4431C66.1483 67.4431 63.1483 64.535 63.1483 60.4827ZM74.6721 60.4827C74.6721 57.9082 72.9102 55.8582 70.2435 55.8582C67.5769 55.8582 65.8149 57.9559 65.8149 60.4827C65.8149 63.1048 67.5769 65.1071 70.2435 65.1071C72.8626 65.1548 74.6721 63.0571 74.6721 60.4827ZM80.4815 60.4827C80.4815 56.4303 83.5291 53.5222 87.529 53.5222C91.5289 53.5222 94.5765 56.4303 94.5765 60.4827C94.5765 64.4873 91.5289 67.4431 87.529 67.4431C83.4816 67.4431 80.4815 64.535 80.4815 60.4827ZM92.0052 60.4827C92.0052 57.9082 90.2433 55.8582 87.5768 55.8582C84.9101 55.8582 83.1482 57.9559 83.1482 60.4827C83.1482 63.1048 84.9101 65.1071 87.5768 65.1071C90.1957 65.1548 92.0052 63.0571 92.0052 60.4827ZM106.243 63.5815L110.243 53.9035C110.291 53.8082 110.338 53.7605 110.434 53.7605H113.719C113.862 53.7605 113.957 53.8559 113.957 53.9989V67.0141C113.957 67.1572 113.862 67.2524 113.719 67.2524H111.672C111.529 67.2524 111.434 67.1572 111.434 67.0141V56.1919L106.957 67.1572C106.91 67.2524 106.862 67.3001 106.767 67.3001H105.338C105.243 67.3001 105.148 67.2524 105.148 67.1572L100.719 56.2873V67.0141C100.719 67.1572 100.624 67.2524 100.481 67.2524H98.5766C98.4337 67.2524 98.3384 67.1572 98.3384 67.0141V53.9989C98.3384 53.8559 98.4337 53.7605 98.5766 53.7605H102.005C102.1 53.7605 102.196 53.8082 102.196 53.9035L106.243 63.5815ZM37.7201 60.5303C37.6725 60.1489 37.3392 59.9106 36.9582 59.9582L29.244 61.0071L37.1963 57.6698C37.5772 57.5268 37.7676 57.0501 37.6248 56.6687C37.482 56.2873 37.0058 56.0966 36.6249 56.2396L30.4344 58.8617L36.4344 54.2373C36.8153 53.9512 36.8629 53.4268 36.5771 53.0454C36.2915 52.664 35.7677 52.6163 35.3868 52.9024L30.3868 56.764L34.7201 51.0431C35.0058 50.6617 34.9581 50.0896 34.5296 49.7558C34.1487 49.4698 33.5773 49.5175 33.2439 49.9465L29.6725 54.6663L32.3392 48.3733C32.5296 47.8965 32.3392 47.3721 31.8629 47.1337C31.3869 46.943 30.863 47.1337 30.6248 47.6105L25.4345 59.7675C24.9583 60.8641 23.8154 61.6268 22.5297 61.6268C21.2917 61.6268 20.2917 60.9117 19.7679 59.8152L14.1965 47.1814C14.1489 47.0384 13.9584 46.943 13.8155 47.0384C13.6727 47.0861 13.5774 47.2768 13.6727 47.4198L18.625 58.5757L11.7203 49.6605C11.5775 49.5175 11.3394 49.4698 11.1965 49.6128C11.0537 49.7558 11.006 49.9942 11.1489 50.1372L18.0536 59.0524L9.86319 52.807C9.67272 52.664 9.38701 52.7117 9.24415 52.9024C9.10129 53.0931 9.14891 53.3791 9.33939 53.5222L17.8631 60.0536L8.81558 56.3826C8.52987 56.2873 8.24416 56.3826 8.1013 56.6687C8.00607 56.9547 8.1013 57.2408 8.38702 57.3838L17.8631 61.2454L8.67273 60.0536C8.3394 60.0059 8.05369 60.2443 8.00607 60.578C7.95845 60.9117 8.19654 61.1978 8.52987 61.2454L18.1964 62.485L9.52986 63.6769C9.14891 63.7245 8.91082 64.0583 8.95844 64.4397C9.00606 64.8211 9.33939 65.0594 9.72034 65.0118L18.7203 63.7722L11.2441 66.9187C10.8632 67.0618 10.6727 67.5386 10.8156 67.9199C10.9584 68.3013 11.4346 68.492 11.8156 68.3489L19.7679 65.0118L13.7679 69.6839C13.387 69.9699 13.3393 70.4943 13.6251 70.8757C13.9108 71.2571 14.4346 71.3049 14.8155 71.0188L21.0536 66.2036L16.9107 71.6386C16.625 72.02 16.6727 72.5921 17.1012 72.9258C17.4822 73.2118 18.0536 73.1641 18.3869 72.7351L22.244 67.6338L20.1012 72.6873C19.9107 73.1641 20.1012 73.6886 20.5774 73.9269C21.0536 74.1176 21.5774 73.9269 21.8155 73.4503L23.4821 69.4933L25.3392 73.7362C25.3868 73.8793 25.5773 73.9747 25.7202 73.8793C25.863 73.8316 25.9583 73.6409 25.863 73.4979L23.7678 68.7303L24.3869 67.3001L28.5773 72.7351C28.7202 72.878 28.9582 72.9258 29.1011 72.7828C29.244 72.6397 29.2916 72.4014 29.1487 72.2583L24.6726 66.4897L25.0059 65.6315L31.72 70.7804C31.9107 70.9235 32.1963 70.8757 32.3392 70.685C32.4821 70.4943 32.4343 70.2084 32.2438 70.0653L25.3392 64.7734L25.4821 64.4397L34.3391 68.063C34.6249 68.1583 34.9105 68.063 35.0534 67.7769C35.1487 67.4908 35.0534 67.2048 34.7676 67.0618L26.2916 63.6292L36.1486 64.9164C36.482 64.9641 36.7678 64.7257 36.8153 64.392C36.8629 64.0583 36.6249 63.7722 36.2915 63.7245L27.9582 62.6757L37.1009 61.4362C37.482 61.2454 37.7676 60.9117 37.7201 60.5303Z" fill="#01030A"/>
<circle cx="60.5" cy="60.5" r="60.5" fill="#D9D9D9"/>
<path d="M57.6085 49.8432C57.6085 48.8936 58.3747 48.1211 59.3167 48.1211C60.2737 48.1211 61.0527 48.8936 61.0527 49.8432C61.0527 50.7773 60.2737 51.5375 59.3167 51.5375C58.359 51.5375 57.6085 50.7933 57.6085 49.8432ZM48.0289 65.9754C47.5461 66.6646 45.7174 68.3438 44.5079 68.3438C43.311 68.3438 42.6517 67.5519 42.6517 66.1142C42.6517 65.7295 42.6672 65.2529 42.6954 64.7546C41.5125 66.2181 39.146 68.3713 37.3822 68.3713C34.8065 68.3713 33.6536 66.6808 33.6536 65.0054C33.6536 62.8467 35.9268 60.9635 40.8077 59.0793L42.9524 58.259C42.8094 54.8486 41.8462 54.1792 40.2326 54.1792C38.4239 54.1792 37.7648 55.4422 37.2353 56.457C37.1024 56.7122 36.9768 56.9527 36.8451 57.1428C36.5214 57.6063 36.1632 57.755 35.3704 57.755C34.5314 57.755 33.9893 57.402 33.9893 56.8561C33.9893 56.4572 34.2782 55.8476 35.0888 55.3332C36.1981 54.6179 38.6245 53.407 40.68 53.407C43.8952 53.407 45.6659 55.2914 45.6659 58.7133C45.6659 59.7731 45.5945 61.227 45.5317 62.5098C45.4839 63.4821 45.4425 64.3216 45.4425 64.7836C45.4425 66.2127 45.6074 66.8783 45.9612 66.8783C46.232 66.8783 46.8293 66.2292 47.2394 65.4895C47.3818 65.2627 47.6549 65.1975 47.8764 65.3345C48.1041 65.4756 48.1699 65.7512 48.0289 65.9754ZM42.9226 59.0258L41.0295 59.8407C36.9784 61.5355 36.1347 62.3099 36.1347 64.2014C36.1347 65.5685 37.5533 66.6287 38.7753 66.6287C39.3955 66.6287 40.2929 66.1077 41.2447 65.1995C42.0241 64.4555 42.6935 63.5679 42.8124 63.1349L42.8008 63.0327C42.8428 62.5376 42.9226 61.2289 42.9226 59.2123V59.0258ZM31.0743 53.8581V56.2731V57.2586V66.1456C31.0743 71.2819 26.6775 75 23.7245 75C21.3507 75 19.5604 74.0423 19.5604 73.1863C19.5604 72.3677 20.2971 71.6498 21.1371 71.6498C21.6816 71.6498 22.2679 71.9629 22.9474 72.3258C23.7421 72.7498 24.6406 73.23 25.5786 73.23C26.4529 73.23 28.4986 73.23 28.4986 67.7258V67.1258C27.2966 67.7794 26.0217 68.1777 24.5383 68.1777C20.0983 68.1773 17 65.2861 17 61.1463C17 56.8996 20.5195 53.5733 25.0107 53.5733C26.5268 53.5733 27.884 53.9232 29.0129 54.5491C29.0621 54.4773 29.1131 54.4084 29.1559 54.3459C29.714 53.5287 30.2988 53.4031 30.627 53.4031C31.0582 53.403 31.0743 53.7455 31.0743 53.8581ZM28.4986 56.9365C27.64 55.428 26.3298 54.3553 24.6544 54.3553C22.522 54.3553 19.9818 55.4536 19.9818 60.6855C19.9818 63.9704 21.8717 67.3679 25.0358 67.3679C26.5527 67.3679 27.8119 66.734 28.4987 65.5533V64.4813L28.4986 56.9365ZM100.84 60.6811C100.84 64.3053 97.725 68.3435 93.2555 68.3435C89.0199 68.3435 86.0619 65.3864 86.0619 61.1523C86.0619 56.8089 89.4181 53.4069 93.7028 53.4069C97.9052 53.407 100.84 56.3983 100.84 60.6811ZM98.0497 61.1247C98.0497 57.7977 96.2596 54.2069 93.3672 54.2069C91.3331 54.2069 88.9084 55.3303 88.9084 60.6811C88.9084 64.0408 90.7123 67.5158 93.7305 67.5158C96.4756 67.5158 98.0497 65.1862 98.0497 61.1247ZM69.5446 67.3025C68.203 67.3025 68.1648 67.3025 68.1648 64.5065V45.4637C68.1648 45.3651 68.1078 45.2248 67.9033 45.1159C67.7703 45.0451 67.432 44.9359 67.2617 45.0486C66.4333 45.5077 65.391 46.0115 63.9695 46.2658C63.8452 46.2812 63.7356 46.3379 63.6642 46.4254C63.5982 46.5065 63.5665 46.6089 63.5789 46.7065C63.5919 46.8116 63.6513 46.9044 63.7429 46.9611C63.8244 47.0116 63.9244 47.0298 64.0432 47.0151C64.6229 46.9116 65.0467 46.8552 65.2385 47.0146C65.4641 47.2016 65.5892 47.774 65.5892 48.9283V64.5065C65.5892 67.3025 65.4653 67.3025 64.5578 67.3025C64.2831 67.3025 64.1205 67.4971 64.1205 67.6802C64.1205 67.8631 64.2615 68.0579 64.5362 68.0579C65.0028 68.0579 65.664 68.0398 66.2506 68.024L66.2741 68.0233C66.6664 68.0125 67.0363 68.0023 67.2123 68.0023C67.3833 68.0023 67.6687 68.0117 68.0119 68.0231C68.4771 68.0387 69.0563 68.0579 69.531 68.0579C69.8055 68.0579 69.9605 67.8631 69.9605 67.6802C69.9602 67.4971 69.8191 67.3025 69.5446 67.3025ZM54.2878 67.3025C52.9464 67.3025 52.8822 67.3025 52.8822 64.5065V45.4637C52.8822 45.3651 52.8511 45.2248 52.6465 45.1159C52.5134 45.0451 52.1878 44.936 52.0177 45.0488C51.1894 45.5079 50.1537 46.0117 48.7319 46.266C48.6075 46.2813 48.5011 46.3381 48.4299 46.4256C48.3637 46.5067 48.3337 46.6091 48.3463 46.7067C48.3593 46.8118 48.42 46.9046 48.5111 46.9613C48.5922 47.0116 48.6922 47.0299 48.8119 47.0153C49.392 46.9114 49.7893 46.8554 49.9815 47.0148C50.2071 47.2018 50.3066 47.7741 50.3066 48.9285V64.5066C50.3066 67.3027 50.2088 67.3027 49.3013 67.3027C49.0265 67.3027 48.8768 67.4971 48.8768 67.6802C48.8768 67.8633 49.024 68.0581 49.2987 68.0581C49.7654 68.0581 50.4299 68.04 51.0165 68.0242L51.0417 68.0235C51.4338 68.0127 51.8045 68.0025 51.9805 68.0025C52.1517 68.0025 52.4373 68.0119 52.7807 68.0233C53.2459 68.0387 53.825 68.0581 54.2998 68.0581C54.5743 68.0581 54.7165 67.8633 54.7165 67.6802C54.7163 67.4971 54.5623 67.3025 54.2878 67.3025ZM84.9694 63.5969C83.7786 66.6796 80.9443 68.3435 77.9052 68.3435C73.1751 68.3435 71.0221 65.1265 71.0221 61.7656C71.0221 57.5145 74.6305 53.4069 79.4519 53.4069C82.6054 53.4069 84.3336 55.2165 84.3336 57.1411C84.3336 58.7209 83.5755 59.2093 82.6054 59.2093L73.4784 59.2379C73.4481 59.5539 73.4177 59.8986 73.4177 60.2432C73.4177 64.1498 75.7525 66.419 78.9365 66.419C81.3895 66.419 82.8629 65.5731 84.4242 63.323C84.4924 63.2247 84.6306 63.1944 84.7356 63.2566L84.8751 63.339C84.9658 63.3932 85.0064 63.5013 84.9694 63.5969ZM73.6298 58.4913C76.5712 58.4625 78.4511 58.4339 80.028 58.2901C80.5434 58.2327 80.9983 58.1178 81.2106 57.9168C81.4227 57.7156 81.5439 57.4572 81.5439 56.9977C81.5439 55.7338 80.6645 54.6423 78.4511 54.6423C76.0556 54.6421 74.2363 56.136 73.6298 58.4913ZM62.1847 67.3025C60.8563 67.3025 60.7812 67.1358 60.7812 64.756V53.8624C60.7812 53.7636 60.7202 53.6229 60.5146 53.514C60.4088 53.458 60.053 53.328 59.8514 53.4605C58.8284 54.163 57.8526 54.6941 56.4372 55.0031C56.3335 55.0286 56.2461 55.0801 56.1888 55.1514C56.1188 55.238 56.0928 55.3476 56.1193 55.4526C56.1424 55.5435 56.2039 55.6248 56.2892 55.6754C56.3583 55.7166 56.4748 55.7568 56.6332 55.7171C57.2402 55.5849 57.5882 55.5367 57.7703 55.682C57.9796 55.8488 58.0338 56.3649 58.0338 57.355V64.7562C58.0338 67.136 57.978 67.3027 56.6231 67.3027C56.3486 67.3027 56.2199 67.4971 56.2199 67.6802C56.2199 67.8633 56.3778 68.0581 56.6523 68.0581C57.1188 68.0581 57.833 68.0402 58.4591 68.0242L58.4896 68.0235C58.9092 68.0127 59.3066 68.0025 59.4832 68.0025C59.6596 68.0025 60.0307 68.0127 60.4233 68.0235L60.4493 68.0242C61.0357 68.04 61.7004 68.0581 62.1667 68.0581C62.4414 68.0581 62.5985 67.8633 62.5985 67.6802C62.5983 67.4971 62.4595 67.3025 62.1847 67.3025Z" fill="#0F152F"/>
</svg>
