<svg width="121" height="121" viewBox="0 0 121 121" fill="none" xmlns="http://www.w3.org/2000/svg">
<circle cx="60.5" cy="60.5" r="60.5" fill="#D9D9D9"/>
<path d="M80.4639 28.124C79.7836 28.124 79.1432 28.3008 78.5836 28.6114C78.2479 28.7976 77.9414 29.0324 77.6735 29.306C76.9588 30.036 76.5161 31.0436 76.5161 32.1547C76.5161 32.8044 76.6679 33.4112 76.933 33.9472C76.9724 34.0271 77.0146 34.105 77.0593 34.1816C77.1631 34.36 77.2772 34.5314 77.4068 34.69C77.5665 34.8848 77.7445 35.064 77.939 35.2243C78.6188 35.7854 79.4956 36.1187 80.4639 36.1187C82.6773 36.1187 84.4782 34.3402 84.4782 32.1551C84.4782 29.9322 82.6773 28.124 80.4639 28.124Z" fill="#FFD124"/>
<path d="M69.6279 41.866V47.7069V50.0906V71.5846C69.6279 84.0073 59.1227 92.9999 52.0671 92.9999C46.3953 92.9999 42.1177 90.6838 42.1177 88.6133C42.1177 86.6335 43.8778 84.897 45.8849 84.897C47.1859 84.897 48.5866 85.6544 50.2101 86.5319C52.1089 87.5575 54.2559 88.7189 56.4969 88.7189C58.586 88.7189 63.4737 88.7189 63.4737 75.407V73.9553C60.6017 75.5361 57.5558 76.4994 54.0114 76.4994C43.4027 76.4985 36 69.5058 36 59.4933C36 49.2221 44.4091 41.1772 55.1401 41.1772C58.7624 41.1772 62.0053 42.0234 64.7025 43.5373C64.8203 43.3635 64.9421 43.1971 65.0443 43.0459C66.3777 41.0692 67.7751 40.7656 68.5591 40.7656C69.5894 40.7652 69.6279 41.5937 69.6279 41.866ZM63.4737 49.3115C61.4223 45.6631 58.2919 43.0685 54.2887 43.0685C49.1939 43.0685 43.1246 45.7249 43.1246 58.3789C43.1246 66.3237 47.6401 74.5408 55.2 74.5408C58.8244 74.5408 61.833 73.0075 63.4741 70.1522V67.5592L63.4737 49.3115Z" fill="#0F152F"/>
<circle cx="60.5" cy="60.5" r="60.5" fill="#D9D9D9"/>
<mask id="mask0_73_2294" style="mask-type:luminance" maskUnits="userSpaceOnUse" x="28" y="23" width="65" height="75">
<path d="M93 23H28V98H93V23Z" fill="white"/>
</mask>
<g mask="url(#mask0_73_2294)">
<path fill-rule="evenodd" clip-rule="evenodd" d="M89.0308 28.2037C89.0308 28.2037 85.1594 36.5882 83.1096 40.6672C73.3175 36.135 60.5648 35.6818 49.8617 41.8003C42.8022 46.1059 36.8813 53.8106 36.4259 62.1952C36.1982 67.6338 38.7031 73.7545 37.7922 79.4198C37.5645 82.3635 36.8813 85.3094 35.5149 87.8021C33.6932 90.7505 31.6436 93.2406 28 93.4672C28.6832 92.5609 34.3763 89.8417 32.0991 77.3781C31.1882 72.3926 24.3564 60.1557 30.9604 44.9728C37.109 30.923 63.0698 14.3805 89.0308 28.2037Z" fill="#113D34"/>
<path fill-rule="evenodd" clip-rule="evenodd" d="M59.1991 52.6779C62.615 51.5449 66.2586 51.5449 69.9022 52.2247C76.734 53.3577 81.744 57.4367 84.2489 63.5552C86.7537 69.9002 88.5758 74.8857 93.1305 80.3243C93.3582 80.5509 86.2987 79.1915 86.2987 79.1915C88.1203 66.7277 76.2785 66.2745 72.8626 70.8067C75.3676 73.526 79.4667 74.8857 82.8828 74.4325C82.1996 86.8962 85.6154 97.9998 85.3877 97.9998C82.6551 97.5467 69.6745 90.0686 65.8032 86.6696C60.3377 87.5759 55.7832 89.6154 49.4069 90.5217C49.1791 90.5217 50.5455 85.7628 50.3178 83.4967C50.3178 76.9253 45.3078 70.8067 48.9514 62.8753C51.001 57.8899 54.1891 54.4908 59.1991 52.6779Z" fill="#113D34"/>
<path fill-rule="evenodd" clip-rule="evenodd" d="M63.7534 48.8247H64.6643C64.6643 48.3715 65.1198 45.1989 67.8525 43.1594C70.8129 40.6667 74.6843 40.8933 74.6843 40.8933C70.8129 39.7603 66.9416 39.5337 64.2089 39.9869L63.7534 48.8247Z" fill="#113D34"/>
<path fill-rule="evenodd" clip-rule="evenodd" d="M39.3865 60.1562C38.7033 63.782 38.7033 67.4078 39.1587 69.2207C39.1587 69.2207 39.6142 66.0481 41.436 64.2353C43.0301 62.649 45.0796 62.4224 45.7628 62.4224C45.7628 62.4224 46.2182 61.2893 45.9905 61.2893L39.3865 60.1562Z" fill="#113D34"/>
<path fill-rule="evenodd" clip-rule="evenodd" d="M46.6748 59.477C46.9025 59.0237 47.1302 58.5705 47.3579 57.8907L40.5262 55.1714C40.0707 56.0778 39.843 57.2109 39.6152 57.8907L46.6748 59.477Z" fill="#113D34"/>
<path fill-rule="evenodd" clip-rule="evenodd" d="M48.4953 56.9837L49.634 55.624L43.2576 50.8652C42.5745 51.5451 42.119 52.4515 41.6636 53.5846L48.4953 56.9837Z" fill="#113D34"/>
<path fill-rule="evenodd" clip-rule="evenodd" d="M50.7733 54.2628L52.1396 52.9032L46.6742 46.7847C45.5356 47.9177 45.0801 48.371 44.397 49.2774L50.7733 54.2628Z" fill="#113D34"/>
<path fill-rule="evenodd" clip-rule="evenodd" d="M53.5059 52.2253L55.1 51.3189L51.0009 44.0674C49.6346 44.7472 48.4959 45.427 48.0405 45.8802L53.5059 52.2253Z" fill="#113D34"/>
<path fill-rule="evenodd" clip-rule="evenodd" d="M56.4666 50.6396L58.2884 49.9597L56.0111 41.8018C54.6447 42.255 53.0507 42.9348 52.5952 43.1614L56.4666 50.6396Z" fill="#113D34"/>
<path fill-rule="evenodd" clip-rule="evenodd" d="M59.8819 49.5068L61.7037 49.0536L61.9314 40.2158C61.9314 40.2158 59.8819 40.6691 58.0601 41.1223L59.8819 49.5068Z" fill="#113D34"/>
</g>
</svg>
