<svg width="121" height="121" viewBox="0 0 121 121" fill="none" xmlns="http://www.w3.org/2000/svg">
<path fill-rule="evenodd" clip-rule="evenodd" d="M108.768 65.4867H106.617L104.63 61.38H102.412V65.4867H100.526V55.0367H105.226C107.378 55.0367 108.404 55.99 108.404 58.19C108.404 59.8033 107.742 60.83 106.583 61.1233L108.768 65.4867ZM104.73 56.9067H102.412V59.5467H104.73C105.855 59.5467 106.418 59.29 106.418 58.2267C106.418 57.1633 105.855 56.9067 104.73 56.9067ZM92.9117 64.57C91.9848 63.7267 91.5214 62.3333 91.5214 60.4633C91.5214 56.76 92.8786 55.0367 95.7917 55.0367H98.9697V56.87H95.8579C94.5007 56.87 93.8055 57.64 93.7062 59.29H98.9697V61.1233H93.7062C93.7062 62.9933 94.3683 63.69 95.8579 63.69H98.9697V65.5233H95.7586C94.6331 65.4867 93.8055 65.3767 92.9117 64.57ZM88.3765 65.4867H86.4234V56.87H83.5103V55.0367H91.3228V56.87H88.3765V65.4867ZM82.9145 65.4867L82.0869 62.9933H78.1476L77.3531 65.4867H75.3338L79.1738 55.0367H81.1931L85.0331 65.4867H82.9145ZM80.1007 57.1267L78.7766 61.16H81.4579L80.1007 57.1267ZM71.4276 65.4867L69.5076 57.6767L67.8193 65.4867H65.5021L62.4897 55.0367H64.5421L66.6276 63.0667L68.3821 55.0367H70.6331L72.6524 63.0667L74.6055 55.0367H76.5586L73.7779 65.4867H71.4276ZM55.3393 64.57C54.4124 63.7267 53.949 62.3333 53.949 60.4633C53.949 56.76 55.3062 55.0367 58.2193 55.0367H61.3972V56.87H58.2855C56.9283 56.87 56.2331 57.64 56.1338 59.29H61.3641V61.1233H56.1007C56.1007 62.9933 56.7628 63.69 58.2524 63.69H61.3641V65.5233H58.1531C57.0607 65.4867 56.2 65.3767 55.3393 64.57ZM45.8386 64.57C44.9117 63.7267 44.4483 62.3333 44.4483 60.4633C44.4483 56.76 45.8055 55.0367 48.7186 55.0367H52.8234V56.8333H48.7186C47.1959 56.8333 46.5669 57.97 46.5669 60.3533C46.5669 62.7367 47.1628 63.6167 48.7186 63.6167H50.8703V61.16H48.3214V59.3267H52.8234V65.5233H48.7186C47.5931 65.4867 46.7324 65.4133 45.8055 64.57H45.8386ZM39.2841 65.4867H35.08V55.0367H39.2179C42.131 55.0367 43.4883 56.76 43.4883 60.4633C43.4883 62.37 43.0248 63.7267 42.0979 64.57C41.171 65.4133 40.3766 65.4867 39.251 65.4867H39.2841ZM39.1848 56.8333H36.9669V63.6533H39.1848C40.8731 63.6533 41.4028 62.81 41.4028 60.2433C41.4028 57.6767 40.8731 56.8333 39.1848 56.8333ZM31.6041 55H33.5903V65.45H31.6041V55ZM28.4593 65.45L26.4731 61.3433H24.2221V65.45H22.3352V55H27.0359C29.1876 55 30.2138 55.9533 30.2138 58.1533C30.2138 59.7667 29.5517 60.7933 28.3931 61.0867L30.6441 65.45H28.4593ZM26.5724 56.87H24.2552V59.51H26.5724C27.6979 59.51 28.2607 59.2533 28.2607 58.19C28.2607 57.1267 27.6979 56.9067 26.5393 56.9067L26.5724 56.87ZM17.9655 65.45H13V55H17.6345C18.6938 55 19.4552 55.11 19.9517 55.4767C20.6407 56.0574 21.0164 56.9855 20.949 57.9416C20.8828 58.8977 20.3821 59.7506 19.6207 60.2067C20.5012 60.5779 21.0545 61.5496 20.9779 62.59C21.011 64.6067 20.0179 65.4867 17.9655 65.4867V65.45ZM17.6676 56.87H14.8869V59.29H17.6676C18.5283 59.29 18.9255 58.9233 18.9255 58.08C18.9255 57.2367 18.5283 56.9067 17.6676 56.9067V56.87ZM17.7007 61.1233H14.8869V63.58H17.7007C18.5614 63.58 18.9586 63.2133 18.9586 62.37C18.9586 61.5267 18.5283 61.16 17.7007 61.16V61.1233Z" fill="black"/>
</svg>
