<svg width="121" height="121" viewBox="0 0 121 121" fill="none" xmlns="http://www.w3.org/2000/svg">
<circle cx="60.5" cy="60.5" r="60.5" fill="#D9D9D9"/>
<path d="M80.4639 28.124C79.7836 28.124 79.1432 28.3008 78.5836 28.6114C78.2479 28.7976 77.9414 29.0324 77.6735 29.306C76.9588 30.036 76.5161 31.0436 76.5161 32.1547C76.5161 32.8044 76.6679 33.4112 76.933 33.9472C76.9724 34.0271 77.0146 34.105 77.0593 34.1816C77.1631 34.36 77.2772 34.5314 77.4068 34.69C77.5665 34.8848 77.7445 35.064 77.939 35.2243C78.6188 35.7854 79.4956 36.1187 80.4639 36.1187C82.6773 36.1187 84.4782 34.3402 84.4782 32.1551C84.4782 29.9322 82.6773 28.124 80.4639 28.124Z" fill="#FFD124"/>
<path d="M69.6279 41.866V47.7069V50.0906V71.5846C69.6279 84.0073 59.1227 92.9999 52.0671 92.9999C46.3953 92.9999 42.1177 90.6838 42.1177 88.6133C42.1177 86.6335 43.8778 84.897 45.8849 84.897C47.1859 84.897 48.5866 85.6544 50.2101 86.5319C52.1089 87.5575 54.2559 88.7189 56.4969 88.7189C58.586 88.7189 63.4737 88.7189 63.4737 75.407V73.9553C60.6017 75.5361 57.5558 76.4994 54.0114 76.4994C43.4027 76.4985 36 69.5058 36 59.4933C36 49.2221 44.4091 41.1772 55.1401 41.1772C58.7624 41.1772 62.0053 42.0234 64.7025 43.5373C64.8203 43.3635 64.9421 43.1971 65.0443 43.0459C66.3777 41.0692 67.7751 40.7656 68.5591 40.7656C69.5894 40.7652 69.6279 41.5937 69.6279 41.866ZM63.4737 49.3115C61.4223 45.6631 58.2919 43.0685 54.2887 43.0685C49.1939 43.0685 43.1246 45.7249 43.1246 58.3789C43.1246 66.3237 47.6401 74.5408 55.2 74.5408C58.8244 74.5408 61.833 73.0075 63.4741 70.1522V67.5592L63.4737 49.3115Z" fill="#0F152F"/>
<circle cx="60.5" cy="60.5" r="60.5" fill="#D9D9D9"/>
<path d="M18.1179 55.6722C18.8516 55.0146 19.5288 54.3569 20.2625 53.759C19.6981 53.3405 19.1902 52.9818 18.6823 52.623C18.0615 53.1611 17.4406 53.759 16.8198 54.3569C17.4406 54.5961 17.8921 55.0744 18.1179 55.6722Z" fill="#29ABE2"/>
<path d="M16.3149 58.728C17.673 58.7317 18.7768 57.597 18.7804 56.1937C18.784 54.7904 17.6859 53.6498 16.3278 53.646C14.9697 53.6423 13.8659 54.7769 13.8623 56.1803C13.8587 57.5836 14.9568 58.7242 16.3149 58.728Z" fill="#29ABE2"/>
<path d="M18.489 70.3465C15.0012 72.3174 11.9862 72.8101 10.6265 71.4551C8.73476 69.5458 10.4491 64.5568 14.5874 59.5063C13.937 59.3215 13.405 58.8288 13.1094 58.2129C7.07949 65.2343 4.36013 72.3174 7.02038 74.9659C9.2077 77.1832 14.4691 75.705 20.2626 71.7631C19.6714 71.3319 19.0802 70.8392 18.489 70.3465Z" fill="#29ABE2"/>
<path d="M22.4674 53.5172C22.6442 52.8415 23.1158 52.2887 23.7052 51.9816C16.7498 46.0235 9.67643 43.3823 7.02393 46.0235C4.84299 48.2348 6.25765 53.4557 10.2069 59.2295C10.6785 58.6153 11.15 58.0624 11.6216 57.4482C9.67643 53.9471 9.14593 50.9374 10.5017 49.5246C12.4468 47.6205 17.3982 49.4018 22.4674 53.5172Z" fill="#29ABE2"/>
<path d="M27.4838 55.1641C27.2542 55.7801 26.7378 56.2728 26.1641 56.5193C27.0248 57.4432 27.828 58.3056 28.5165 59.2296C28.9182 58.6752 29.3199 58.1208 29.6067 57.5664C28.9755 56.7656 28.2297 55.9648 27.4838 55.1641Z" fill="#29ABE2"/>
<path d="M25.6725 57.705C27.045 57.705 28.1315 56.5895 28.1315 55.164C28.1315 53.7386 27.045 52.623 25.6725 52.623C24.2999 52.623 23.2134 53.7386 23.2134 55.164C23.2134 56.5275 24.2999 57.705 25.6725 57.705Z" fill="#29ABE2"/>
<path d="M32.3971 49.5593C34.2966 51.4666 32.5752 56.4499 28.4201 61.4949C29.073 61.6795 29.6073 62.1716 29.9041 62.7869C35.8993 55.7732 38.6297 48.6365 35.9586 45.991C33.7623 43.8376 28.4794 45.3142 22.7217 49.2517C23.3152 49.6824 23.9089 50.1746 24.5025 50.6668C28.0046 48.698 31.0319 48.2058 32.3971 49.5593Z" fill="#29ABE2"/>
<path d="M25.3072 64.8198C24.4641 65.6785 23.5648 66.4759 22.7217 67.2119C23.2838 67.6412 23.7896 68.0092 24.3517 68.3772C25.1386 67.7025 25.8693 66.9665 26.6562 66.1691C26.0379 65.9238 25.5882 65.4331 25.3072 64.8198Z" fill="#29ABE2"/>
<path d="M27.1616 62.2715C25.8035 62.2676 24.6996 63.4021 24.6958 64.8054C24.6921 66.2087 25.7901 67.3495 27.1482 67.3535C28.5062 67.3573 29.6102 66.2229 29.614 64.8195C29.6176 63.4161 28.5197 62.2753 27.1616 62.2715Z" fill="#29ABE2"/>
<path d="M16.8196 64.4809C15.9589 63.5568 15.1556 62.6945 14.4672 61.7705C14.0655 62.3249 13.6638 62.8792 13.377 63.4337C14.0655 64.2344 14.754 65.0353 15.4999 65.8361C15.7295 65.2201 16.1885 64.7273 16.8196 64.4809Z" fill="#29ABE2"/>
<path d="M32.791 61.7705C32.3211 62.3825 31.8511 62.9333 31.381 63.5454C33.3198 67.034 33.8485 69.9718 32.4386 71.3794C30.4998 73.2768 25.5649 71.5019 20.5125 67.4624C20.3363 68.1357 19.8663 68.6865 19.2788 68.9925C26.2699 74.9293 33.3198 77.6223 35.9635 74.9905C38.1372 72.726 36.7272 67.4624 32.791 61.7705Z" fill="#29ABE2"/>
<path d="M19.777 65.8495C19.7805 64.4462 18.6825 63.3055 17.3244 63.3018C15.9662 63.2981 14.8624 64.4327 14.8589 65.8361C14.8554 67.2394 15.9534 68.3801 17.3115 68.3837C18.6696 68.3874 19.7734 67.2528 19.777 65.8495Z" fill="#29ABE2"/>
<path d="M50.5111 67.3606C52.526 67.3606 53.8576 66.6305 55.0665 65.4808C55.1891 65.3713 55.2943 65.1888 55.2943 64.9698C55.2943 64.6047 54.9789 64.2763 54.6285 64.2763C54.4533 64.2763 54.2956 64.3675 54.1904 64.477C53.1392 65.4808 52.0704 66.0283 50.5461 66.0283C47.848 66.0283 45.798 63.7106 45.798 60.754C45.798 57.7792 47.8304 55.4797 50.5461 55.4797C52.053 55.4797 53.1216 56.0637 54.0678 56.9397C54.1729 57.0127 54.3306 57.104 54.5233 57.104C54.8913 57.104 55.2241 56.7754 55.2241 56.3922C55.2241 56.1367 55.084 55.9359 54.9438 55.8082C53.805 54.8227 52.5435 54.1475 50.5637 54.1475C46.9544 54.1475 44.3613 57.1404 44.3613 60.754C44.3613 64.4588 46.972 67.3606 50.5111 67.3606ZM63.1785 67.3606C59.4466 67.3606 56.9412 64.3128 56.9412 60.7905V60.754C56.9412 57.2317 59.4816 54.1475 63.2136 54.1475C66.9455 54.1475 69.4509 57.1953 69.4509 60.7175V60.754C69.4509 64.2763 66.9104 67.3606 63.1785 67.3606ZM63.2136 66.0283C66.0169 66.0283 68.0143 63.6923 68.0143 60.7905V60.754C68.0143 57.8522 65.9818 55.4797 63.1785 55.4797C60.3752 55.4797 58.3778 57.8157 58.3778 60.7175V60.754C58.3778 63.6557 60.4103 66.0283 63.2136 66.0283ZM76.4942 67.324C78.9296 67.324 80.6817 65.9005 80.6817 63.7106V63.674C80.6817 61.7213 79.4201 60.681 76.687 60.0605C73.9887 59.4583 73.358 58.7829 73.358 57.5784V57.542C73.358 56.3922 74.3742 55.4797 75.9686 55.4797C77.1074 55.4797 78.1061 55.8082 79.1398 56.593C79.2625 56.6842 79.3851 56.7207 79.5428 56.7207C79.9107 56.7207 80.2085 56.4105 80.2085 56.0272C80.2085 55.7534 80.0509 55.5527 79.9107 55.4432C78.7894 54.6037 77.6155 54.1839 76.0036 54.1839C73.6734 54.1839 71.9739 55.6622 71.9739 57.6697V57.7062C71.9739 59.805 73.2704 60.754 76.0912 61.3927C78.6668 61.9585 79.28 62.6338 79.28 63.82V63.8565C79.28 65.1158 78.1937 66.0283 76.5468 66.0283C74.9874 66.0283 73.8311 65.5356 72.6747 64.5135C72.5871 64.4222 72.4294 64.3492 72.2542 64.3492C71.8862 64.3492 71.5884 64.6596 71.5884 65.061C71.5884 65.2982 71.6936 65.499 71.8512 65.6086C73.2179 66.7401 74.7071 67.324 76.4942 67.324ZM83.5024 66.521C83.5024 66.9226 83.8003 67.2328 84.1682 67.2328C84.5537 67.2328 84.8515 66.9226 84.8515 66.521V56.9945L88.7583 62.9805C88.9162 63.2177 89.1094 63.3455 89.3546 63.3455C89.5999 63.3455 89.7746 63.2177 89.9325 62.9805L93.8573 56.9762V66.5028C93.8573 66.886 94.1722 67.2328 94.5578 67.2328C94.9256 67.2328 95.2414 66.9043 95.2414 66.5028V55.0235C95.2414 54.6402 94.9256 54.3117 94.5578 54.3117H94.4007C94.1201 54.3117 93.8925 54.4577 93.7523 54.6949L89.3722 61.557L84.9917 54.6949C84.8515 54.476 84.6413 54.3117 84.3434 54.3117H84.1858C83.8178 54.3117 83.5024 54.6402 83.5024 55.0235V66.521ZM98.8328 66.5028C98.8328 66.9043 99.1486 67.2328 99.5165 67.2328C99.902 67.2328 100.217 66.9043 100.217 66.5028V55.0052C100.217 54.6037 99.902 54.2752 99.5165 54.2752C99.1486 54.2752 98.8328 54.6037 98.8328 55.0052V66.5028ZM109.415 67.3606C111.43 67.3606 112.762 66.6305 113.971 65.4808C114.094 65.3713 114.199 65.1888 114.199 64.9698C114.199 64.6047 113.884 64.2763 113.533 64.2763C113.358 64.2763 113.2 64.3675 113.095 64.477C112.043 65.4808 110.975 66.0283 109.451 66.0283C106.752 66.0283 104.703 63.7106 104.703 60.754V60.7175C104.703 57.7792 106.735 55.4797 109.451 55.4797C110.957 55.4797 112.026 56.0637 112.972 56.9397C113.077 57.0127 113.235 57.104 113.428 57.104C113.795 57.104 114.129 56.7754 114.129 56.3922C114.129 56.1367 113.989 55.9359 113.848 55.8082C112.709 54.8227 111.448 54.1475 109.468 54.1475C105.858 54.1475 103.266 57.1404 103.266 60.754V60.7905C103.266 64.4588 105.876 67.3606 109.415 67.3606Z" fill="#42515A" stroke="#42515A" stroke-width="0.615068"/>
</svg>
