<svg width="121" height="121" viewBox="0 0 121 121" fill="none" xmlns="http://www.w3.org/2000/svg">
<path d="M103.697 57.8101C101.79 57.8101 100.248 59.4523 100.248 61.4728C100.248 63.4949 101.79 65.1354 103.697 65.1354C105.605 65.1354 107.147 63.4932 107.147 61.4728C107.147 59.4523 105.605 57.8101 103.697 57.8101ZM107.228 55.1574H109.988V67.7881H107.268V66.5253C106.214 67.4099 104.914 67.9994 103.494 67.9994C100.126 67.9994 97.4067 65.0733 97.4067 61.4722C97.4067 57.8717 100.126 54.9461 103.494 54.9461C104.895 54.9461 106.173 55.5351 107.228 56.3986V55.1574ZM91.7257 67.7898V61.6846C91.7257 59.7474 92.9432 57.8107 94.7086 57.8107C95.2151 57.8107 95.6412 57.8733 96.0065 58.0214L97.3059 55.4109C96.5958 55.1164 95.7641 54.9478 94.9118 54.9478C93.7551 54.9478 92.2121 55.7054 91.6454 56.6737V55.1574H88.8855V67.7881H91.7257V67.7898ZM80.5654 57.8101C78.6577 57.8101 77.1159 59.4523 77.1159 61.4728C77.1159 63.4949 78.6577 65.1354 80.5654 65.1354C82.4719 65.1354 84.0143 63.4932 84.0143 61.4728C84.0149 59.4523 82.4719 57.8101 80.5654 57.8101ZM80.5654 54.9472C84.0342 54.9472 86.8561 57.8728 86.8561 61.4733C86.8561 65.0739 84.0358 68 80.5654 68C77.0949 68 74.274 65.0744 74.274 61.4733C74.2746 57.8728 77.0954 54.9472 80.5654 54.9472ZM66.5643 57.8101C64.6567 57.8101 63.1148 59.4523 63.1148 61.4728C63.1148 63.4949 64.6567 65.1354 66.5643 65.1354C68.472 65.1354 70.0138 63.4932 70.0138 61.4728C70.0138 59.4523 68.472 57.8101 66.5643 57.8101ZM72.854 61.4733C72.854 65.0733 70.135 68 66.7669 68C65.3462 68 64.0479 67.411 62.9925 66.527V67.7898H60.2735V52H63.1137V56.3365C64.1492 55.4941 65.3866 54.9472 66.7663 54.9472C70.135 54.9472 72.854 57.8733 72.854 61.4733ZM50.6351 67.7898V60.0629C50.6351 58.8212 51.6092 57.8101 52.8261 57.8101C54.0238 57.8101 54.9977 58.8206 54.9977 60.0629V67.7898H57.8379V60.0629C57.8379 57.2416 55.6055 54.9472 53.0286 54.9472C51.4664 54.9472 50.0867 55.6416 49.1121 56.631C48.1176 55.6416 46.7379 54.9472 45.2165 54.9472C42.6598 54.9472 40.4073 57.2416 40.4073 60.0629V67.7898H43.248V60.0629C43.248 58.8212 44.222 57.8101 45.4191 57.8101C46.6161 57.8101 47.5907 58.8206 47.5907 60.0629V67.7898H50.6351ZM32.2913 57.8101C30.3836 57.8101 28.8419 59.4523 28.8419 61.4728C28.8419 63.4949 30.3842 65.1354 32.2913 65.1354C34.1984 65.1354 35.7408 63.4932 35.7408 61.4728C35.7414 59.4523 34.1989 57.8101 32.2913 57.8101ZM32.2913 54.9472C35.7612 54.9472 38.5815 57.8728 38.5815 61.4733C38.5815 65.0739 35.7612 68 32.2913 68C28.8214 68 26.001 65.0733 26.001 61.4733C26.001 57.8733 28.8214 54.9472 32.2913 54.9472ZM18.2902 57.8101C16.3826 57.8101 14.8407 59.4523 14.8407 61.4728C14.8407 63.4949 16.3831 65.1354 18.2902 65.1354C20.1973 65.1354 21.7397 63.4932 21.7397 61.4728C21.7397 59.4523 20.1979 57.8101 18.2902 57.8101ZM24.5805 61.4733C24.5805 65.0733 21.8615 68 18.4933 68C17.0727 68 15.7743 67.411 14.719 66.527V67.7898H12V52H14.8407V56.3365C15.8756 55.4941 17.1136 54.9472 18.4933 54.9472C21.8615 54.9472 24.5805 57.8733 24.5805 61.4733Z" fill="#EC7E1E"/>
</svg>
