<svg width="121" height="121" viewBox="0 0 121 121" fill="none" xmlns="http://www.w3.org/2000/svg">
<path d="M105.702 63.6903C105.935 65.7646 107.398 66.3226 109.094 66.3226C110.21 66.3226 111.162 66.4466 111.97 65.3306C112.213 64.9924 113.015 64.5865 113.677 64.9867C114.421 65.4377 114.363 66.2662 113.91 66.8693C112.812 68.3292 111.11 68.7012 109.094 68.7012C105.958 68.7012 103.077 66.5932 103.077 63.0477C103.077 59.4798 105.122 56.6784 109.187 56.6784C112.911 56.6784 114.903 59.0965 114.903 62.7321V62.8674C114.903 63.2394 114.641 63.6903 114.264 63.6903H105.702ZM112.469 61.5653C112.097 59.7334 110.936 59.057 109.187 59.057C107.398 59.057 106.074 59.756 105.702 61.5653H112.469ZM98.6976 65.1728C98.6976 65.945 99.2668 66.3001 100.15 66.3001C100.283 66.3001 100.428 66.3283 100.585 66.3001C101.143 66.2042 101.683 66.6608 101.805 67.2019C101.939 67.7487 101.607 68.2786 101.056 68.4419C100.678 68.5547 100.237 68.7069 99.6733 68.7012C97.774 68.6843 96.0722 67.3541 96.0722 65.511V53.2795C96.0901 52.9477 96.2333 52.6339 96.4743 52.3979C96.7152 52.162 97.0374 52.0203 97.3791 52C97.7209 52.0188 98.0436 52.1591 98.2857 52.394C98.5277 52.629 98.6724 52.9422 98.6917 53.2739V65.1728H98.6976ZM88.2193 68.7012C87.4661 68.7305 86.716 68.5912 86.027 68.294C85.3381 67.997 84.7289 67.5499 84.2464 66.9877V67.1907C84.2464 67.8388 83.596 68.3631 82.928 68.3631C82.2658 68.3631 81.6153 67.8388 81.6153 67.1907V53.2795C81.6333 52.9468 81.7773 52.6322 82.0195 52.3961C82.2617 52.16 82.5853 52.019 82.928 52C83.2718 52.0176 83.5967 52.1581 83.8401 52.3943C84.0835 52.6306 84.2283 52.9459 84.2464 53.2795V58.5385C84.734 57.9836 85.3447 57.5432 86.0329 57.2503C86.7209 56.9574 87.4685 56.8197 88.2193 56.8475C91.2397 56.8475 93.8766 59.243 93.8766 62.7659C93.8766 66.3057 91.2455 68.7012 88.2193 68.7012ZM87.9754 59.4403C86.2096 59.4403 84.2464 60.3084 84.2464 62.8392C84.2464 65.37 86.2096 66.2381 87.9754 66.2381C89.9386 66.2381 91.4721 64.9416 91.4721 62.8392C91.4935 62.3878 91.4177 61.937 91.2497 61.5156C91.0817 61.0942 90.8249 60.7114 90.4959 60.3916C90.167 60.0718 89.7729 59.8221 89.3389 59.6583C88.905 59.4945 88.4406 59.4203 87.9754 59.4403ZM78.5485 67.2978C78.5279 67.6296 78.3833 67.9428 78.1416 68.1785C77.8999 68.4141 77.5777 68.5559 77.2359 68.5772C76.8939 68.5559 76.5719 68.4141 76.3302 68.1785C76.0885 67.9428 75.9437 67.6296 75.9231 67.2978V61.9204C75.9231 60.2689 74.7847 59.3501 73.2978 59.3501C71.4101 59.3501 70.6667 60.5169 70.6667 63.0252V67.2978C70.6461 67.6296 70.5014 67.9428 70.2596 68.1785C70.0179 68.4141 69.6959 68.5559 69.3539 68.5772C69.0121 68.5559 68.69 68.4141 68.4482 68.1785C68.2065 67.9428 68.0619 67.6296 68.0413 67.2978V61.9204C68.0413 60.2689 67.1236 59.2318 65.6366 59.2318C63.778 59.2318 62.7847 60.5169 62.7847 63.0252V67.2978C62.7643 67.6296 62.6195 67.9428 62.3778 68.1785C62.1361 68.4141 61.814 68.5559 61.4721 68.5772C61.1302 68.5559 60.8081 68.4141 60.5664 68.1785C60.3247 67.9428 60.1799 67.6296 60.1594 67.2978V58.375C60.1813 58.0441 60.3266 57.7323 60.5682 57.4978C60.8098 57.2634 61.1311 57.1224 61.4721 57.1011C61.8131 57.1224 62.1344 57.2634 62.376 57.4978C62.6176 57.7323 62.7628 58.0441 62.7847 58.375C63.6212 57.383 64.6144 56.87 66.2697 56.87C67.9135 56.87 69.0403 57.5408 69.7837 58.8428C70.7132 57.5859 72.0607 56.9039 73.9658 56.9039C76.3588 56.9039 78.5543 58.8034 78.5543 61.4413V67.3034L78.5485 67.2978ZM54.4614 67.4105C53.4915 68.3912 52.87 68.7069 50.7674 68.7069C47.9794 68.7069 46.144 66.9539 46.144 64.13V58.375C46.1633 58.0433 46.308 57.7301 46.5501 57.4952C46.7922 57.2602 47.1148 57.12 47.4566 57.1011C47.7985 57.12 48.1212 57.2602 48.3633 57.4952C48.6054 57.7301 48.7499 58.0433 48.7694 58.375V63.6565C48.7694 65.4884 49.6522 66.4522 51.325 66.4522C52.719 66.4522 53.8574 66.2268 54.4614 64.5809C54.4499 64.5809 54.4614 63.4818 54.4614 62.5517V58.3694C54.481 58.0367 54.6264 57.7228 54.8697 57.4877C55.113 57.2527 55.4371 57.113 55.7799 57.0955C56.1218 57.1143 56.4445 57.2546 56.6866 57.4895C56.9287 57.7245 57.0732 58.0376 57.0927 58.3694V67.3992C57.0927 68.0474 56.4479 68.5716 55.7799 68.5716C55.112 68.5716 54.4614 68.0474 54.4614 67.3992V67.4105ZM38.297 68.7069C37.5422 68.7364 36.7907 68.5966 36.1007 68.2984C35.4105 68.0003 34.8007 67.5518 34.3182 66.9877V67.1907C34.3182 67.8388 33.6736 68.3631 33.0056 68.3631C32.3376 68.3631 31.6929 67.8388 31.6929 67.1907V53.2795C31.711 52.9468 31.8549 52.6322 32.0971 52.3961C32.3393 52.16 32.6628 52.019 33.0056 52C33.3483 52.019 33.6719 52.16 33.9141 52.3961C34.1563 52.6322 34.3002 52.9468 34.3182 53.2795V58.5385C34.8064 57.9828 35.4181 57.542 36.1072 57.249C36.7964 56.9561 37.5452 56.8188 38.297 56.8475C41.3172 56.8475 43.9543 59.243 43.9543 62.7659C43.9543 66.3057 41.3172 68.7012 38.297 68.7012V68.7069ZM38.0531 59.4403C36.2814 59.4403 34.3182 60.3084 34.3182 62.8392C34.3182 65.37 36.2814 66.2381 38.0531 66.2381C40.0161 66.2381 41.5439 64.9416 41.5439 62.8392C41.5651 62.3883 41.4896 61.938 41.322 61.517C41.1542 61.096 40.898 60.7135 40.5697 60.3938C40.2413 60.0741 39.848 59.8242 39.4147 59.66C38.9815 59.4959 38.5176 59.4211 38.0531 59.4403ZM25.6813 59.88C25.9078 60.2633 25.9078 60.7367 25.6813 61.12L21.3542 68.38C21.2422 68.568 21.0814 68.7243 20.8877 68.8331C20.6941 68.9419 20.4744 68.9995 20.2505 69H11.5962C11.3724 68.9995 11.1526 68.9419 10.959 68.8331C10.7653 68.7243 10.6045 68.568 10.4926 68.38L6.1712 61.12C6.05904 60.9315 6 60.7177 6 60.5C6 60.2823 6.05904 60.0685 6.1712 59.88L10.4926 52.62C10.6045 52.4319 10.7653 52.2757 10.959 52.1669C11.1526 52.0581 11.3724 52.0005 11.5962 52H20.2505C20.7036 52 21.1218 52.2367 21.3542 52.62L25.6813 59.88ZM20.2912 61.5653C20.8894 61.5653 21.3774 61.0862 21.3774 60.5C21.3774 59.9138 20.8894 59.4403 20.2912 59.4403H11.5613C11.2709 59.4403 10.9924 59.5523 10.7871 59.7515C10.5818 59.9508 10.4664 60.221 10.4664 60.5028C10.4664 60.7846 10.5818 61.0549 10.7871 61.2541C10.9924 61.4534 11.2709 61.5653 11.5613 61.5653H20.2853H20.2912ZM17.2476 65.1728C17.8401 65.1728 18.3222 64.6992 18.3222 64.1131C18.3222 63.5269 17.8401 63.0477 17.2476 63.0477H14.5932C14.0008 63.0477 13.5187 63.5269 13.5187 64.1131C13.5187 64.6992 14.0008 65.1728 14.5932 65.1728H17.2418H17.2476ZM13.5187 55.8329C12.9205 55.8329 12.4326 56.3064 12.4326 56.8926C12.4326 57.4788 12.9205 57.9579 13.5187 57.9579H18.3279C18.9262 57.9579 19.4142 57.4788 19.4142 56.8926C19.4142 56.3064 18.9262 55.8329 18.3279 55.8329H13.5187Z" fill="#FFC629"/>
</svg>
