<svg width="121" height="121" viewBox="0 0 121 121" fill="none" xmlns="http://www.w3.org/2000/svg">
<path d="M49.4902 48.5146H54.7384V72.7512H49.4902V48.5146Z" fill="#22355A"/>
<path d="M70.5949 63.2733C69.6778 62.7331 68.693 62.3196 67.6667 62.0439C66.5126 61.7147 65.3641 61.3273 64.2211 60.8817C63.0661 60.4269 62.0552 59.664 61.2965 58.6747C60.4908 57.649 60.0874 56.3507 60.0863 54.7797C60.0863 52.8404 60.8568 51.1855 62.3984 49.815C63.9398 48.4444 65.94 47.7586 68.3992 47.7575C69.3482 47.7526 70.2941 47.8654 71.2158 48.0934C71.9872 48.2726 72.735 48.542 73.4443 48.8962C73.9744 49.1715 74.4838 49.4841 74.969 49.8317C75.3143 50.0673 75.6284 50.3455 75.9045 50.6598L76.2025 50.9957L73.1599 54.2608C73.028 54.1051 72.8432 53.9131 72.6056 53.6847C72.3681 53.4563 71.8687 53.1522 71.1075 52.7727C70.3749 52.4024 69.5665 52.2098 68.7472 52.21C67.775 52.21 66.9938 52.4608 66.4034 52.9624C65.8436 53.3983 65.5158 54.0714 65.5162 54.7848C65.5162 55.5865 65.9167 56.2298 66.718 56.7146C67.634 57.2487 68.614 57.662 69.6344 57.944C70.7774 58.28 71.9259 58.6719 73.08 59.1198C74.2416 59.571 75.2588 60.3342 76.0212 61.3268C76.8286 62.3523 77.2313 63.6507 77.2313 65.2217C77.2313 67.4398 76.4337 69.251 74.838 70.6551C73.2423 72.0591 71.0405 72.7579 68.2328 72.7512C67.1511 72.7539 66.0735 72.6163 65.0268 72.3414C64.1391 72.1225 63.2824 71.7917 62.4765 71.3571C61.8627 71.0141 61.2731 70.6284 60.7122 70.2032C60.314 69.9145 59.9474 69.5841 59.6185 69.2174L59.2373 68.799L62.3035 65.7238C62.4577 65.9031 62.6758 66.1342 62.9576 66.4175C63.2395 66.7008 63.8665 67.0827 64.8386 67.5629C65.7861 68.0365 66.8292 68.2826 67.8866 68.2819C69.1073 68.2819 70.0655 67.9918 70.7613 67.4118C71.4292 66.8797 71.8122 66.0634 71.7967 65.2049C71.7967 64.4065 71.396 63.7627 70.5949 63.2733Z" fill="#22355A"/>
<path d="M99.7234 68.0867V72.7512H81.7295V48.5146H99.3715V53.1961H86.8804V58.0468H96.6299V62.7113H86.8804V68.0849H99.7234V68.0867Z" fill="#22355A"/>
<path d="M27.4207 48.1128H21.0918L30.3341 72.6579H36.5865L27.4207 48.1128Z" fill="url(#paint0_linear_73_1814)"/>
<path d="M40.0342 47.1313L30.7759 72.6582H37.316L43.3653 56.1566L40.0342 47.1313Z" fill="url(#paint1_linear_73_1814)"/>
<defs>
<linearGradient id="paint0_linear_73_1814" x1="23.8599" y1="48.0832" x2="32.4989" y2="69.2375" gradientUnits="userSpaceOnUse">
<stop stop-color="#2BA6DA"/>
<stop offset="0.466347" stop-color="#29ADDD"/>
<stop offset="0.466447" stop-color="#28AEDD"/>
<stop offset="1" stop-color="#28B4E0"/>
</linearGradient>
<linearGradient id="paint1_linear_73_1814" x1="40.1245" y1="48.6252" x2="33.5674" y2="72.6055" gradientUnits="userSpaceOnUse">
<stop stop-color="#1789E0"/>
<stop offset="0.487181" stop-color="#217CCE"/>
<stop offset="1" stop-color="#2B70BB"/>
</linearGradient>
</defs>
</svg>
