<svg width="121" height="121" viewBox="0 0 121 121" fill="none" xmlns="http://www.w3.org/2000/svg">
<mask id="mask0_73_1549" style="mask-type:luminance" maskUnits="userSpaceOnUse" x="11" y="47" width="100" height="26">
<path d="M110.897 47H11V73H110.897V47Z" fill="white"/>
</mask>
<g mask="url(#mask0_73_1549)">
<path d="M45.4092 47.1855H50.589C52.6239 47.1855 54.659 48.1141 54.659 50.5284C54.659 52.0141 53.734 53.0355 52.3464 53.407C54.0115 53.5927 55.2139 54.8927 55.2139 56.5641C55.2139 59.4427 52.7166 60.3713 50.2191 60.3713H45.5016V47.1855H45.4092ZM47.814 52.5713H49.9416C51.514 52.5713 52.254 51.9213 52.254 50.8998C52.254 49.7855 51.514 49.2284 49.664 49.2284H47.7216V52.5713H47.814ZM47.814 58.4213H49.9416C51.1441 58.4213 52.809 58.2355 52.809 56.4713C52.809 55.0784 51.884 54.6141 50.034 54.6141H47.814V58.4213Z" fill="#A6192E"/>
<path d="M56.416 47.1855H65.1108V49.3213H58.7284V52.5713H64.7408V54.707H58.7284V58.3284H65.5732V60.4641H56.5085V47.1855H56.416Z" fill="#A6192E"/>
<path d="M71.4932 47.1855H73.5281L79.1704 60.4641H76.488L75.2855 57.3998H69.5506L68.3482 60.4641H65.7583L71.4932 47.1855ZM74.4531 55.357L72.418 49.9713L70.3831 55.357H74.4531Z" fill="#A6192E"/>
<path d="M79.3555 58.3284L86.3853 49.3213H79.4479V47.1855H89.2528V49.3213L82.2229 58.3284H89.4377V60.4641H79.3555V58.3284Z" fill="#A6192E"/>
<path d="M90.5479 47.1855H99.2426V49.3213H92.8603V52.5713H98.8725V54.707H92.8603V58.3284H99.6126V60.4641H90.5479V47.1855Z" fill="#A6192E"/>
<path d="M100.907 47.1855H105.532C108.03 47.1855 110.435 48.0213 110.435 50.9927C110.435 52.9427 109.324 54.3355 107.382 54.6141L110.897 60.4641H108.03L104.977 54.8927H103.22V60.4641H100.907V47.1855ZM105.162 52.8498C106.457 52.8498 108.03 52.757 108.03 50.9927C108.03 49.4141 106.55 49.2284 105.347 49.2284H103.312V52.8498H105.162Z" fill="#A6192E"/>
<path d="M57.0635 64.6426H57.9885V68.0783H62.3358V64.6426H63.2608V72.8139H62.3358V69.0069H57.9885V72.8139H57.0635V64.6426Z" fill="#6D6E71"/>
<path d="M69.4585 72.9999C68.811 72.9999 68.2561 72.9071 67.7935 72.7213C67.2387 72.5357 66.8685 72.1641 66.4061 71.7927C66.0362 71.4213 65.7586 70.9571 65.4811 70.3999C65.2962 69.8427 65.2036 69.2857 65.2036 68.7285C65.2036 68.0785 65.2962 67.5213 65.4811 67.0571C65.6662 66.4999 65.9437 66.0357 66.4061 65.6641C66.7761 65.2927 67.2387 65.0142 67.7935 64.7356C68.3486 64.5499 68.9036 64.457 69.4585 64.457C70.106 64.457 70.661 64.5499 71.1236 64.7356C71.6784 64.9213 72.0484 65.2927 72.511 65.6641C72.881 66.0357 73.1585 66.4999 73.436 67.0571C73.6209 67.6141 73.7135 68.1713 73.7135 68.7285C73.7135 69.3785 73.6209 69.9357 73.436 70.3999C73.2509 70.9571 72.9734 71.4213 72.511 71.7927C72.141 72.1641 71.6784 72.4427 71.1236 72.7213C70.661 72.9071 70.106 72.9999 69.4585 72.9999ZM69.4585 72.0713C69.9211 72.0713 70.3835 71.9785 70.7534 71.7927C71.1236 71.6071 71.4935 71.3285 71.7711 71.0499C72.0484 70.7713 72.2335 70.3999 72.4185 69.9357C72.6034 69.5641 72.6959 69.0999 72.6959 68.6357C72.6959 68.1713 72.6034 67.7071 72.4185 67.3357C72.2335 66.9641 72.0484 66.5927 71.7711 66.2213C71.4935 65.9427 71.1236 65.6641 70.7534 65.4785C70.3835 65.2927 69.9211 65.1999 69.4585 65.1999C68.9961 65.1999 68.5336 65.2927 68.1635 65.4785C67.7935 65.6641 67.4236 65.9427 67.1461 66.2213C66.8685 66.4999 66.6837 66.8713 66.4986 67.3357C66.3137 67.7071 66.2211 68.1713 66.2211 68.6357C66.2211 69.0999 66.3137 69.5641 66.4986 69.9357C66.6837 70.3071 66.8685 70.6785 67.1461 71.0499C67.4236 71.3285 67.7935 71.6071 68.1635 71.7927C68.6261 71.9785 68.9961 72.0713 69.4585 72.0713Z" fill="#6D6E71"/>
<path d="M75.6558 64.6426H77.0432L79.8182 71.0497L82.593 64.6426H84.073V72.8139H83.148V65.9425L80.2806 72.8139H79.7255L76.6732 65.9425V72.8139H75.7482V64.6426H75.6558Z" fill="#6D6E71"/>
<path d="M86.478 64.6426H91.5654V65.5711H87.403V68.1711H91.2879V69.0997H87.403V71.9783H91.7503V72.9069H86.478V64.6426Z" fill="#6D6E71"/>
<path d="M97.5779 66.0358C97.3929 65.7572 97.2078 65.5714 96.9305 65.4786C96.6529 65.3858 96.3754 65.2928 96.0979 65.2928C95.9128 65.2928 95.6355 65.2928 95.4504 65.3858C95.2654 65.4786 95.0805 65.4786 94.8954 65.6643C94.7105 65.7572 94.6179 65.9428 94.5254 66.1286C94.433 66.3143 94.3405 66.5 94.3405 66.7786C94.3405 66.9643 94.3405 67.15 94.433 67.2428C94.5254 67.4286 94.6179 67.5214 94.7105 67.6143C94.8029 67.7072 94.988 67.8 95.2654 67.8928C95.4504 67.9857 95.7279 68.0786 96.0979 68.1714C96.3754 68.2643 96.7454 68.3572 97.0229 68.45C97.3004 68.5428 97.5779 68.7286 97.7628 68.9143C97.9479 69.1 98.1328 69.2858 98.3179 69.5643C98.4103 69.8428 98.5028 70.1214 98.5028 70.5857C98.5028 70.9572 98.4103 71.3286 98.2254 71.6072C98.0404 71.8857 97.8553 72.1643 97.5779 72.35C97.3004 72.5357 97.0229 72.7214 96.6529 72.8143C96.3754 72.9072 96.0979 73 95.7279 73C95.4504 73 95.2654 73 94.988 72.9072C94.7105 72.9072 94.5254 72.8143 94.3405 72.7214C94.1555 72.6286 93.8779 72.5357 93.6931 72.35C93.508 72.1643 93.3229 72.0714 93.2305 71.7928L94.063 71.1428C94.2479 71.4214 94.5254 71.7 94.8029 71.7928C95.0805 71.9786 95.4504 71.9786 95.8204 71.9786C96.0055 71.9786 96.1904 71.9786 96.4679 71.8857L97.0229 71.6072C97.2078 71.5143 97.3004 71.3286 97.3929 71.1428C97.4853 70.9572 97.5779 70.7714 97.5779 70.4928C97.5779 70.2142 97.5779 70.0286 97.4853 69.8428C97.3929 69.6572 97.3004 69.5643 97.1154 69.4714C96.9305 69.3786 96.7454 69.2858 96.4679 69.1928C96.1904 69.1 95.9128 69.0072 95.5429 68.9143C95.2654 68.8214 94.988 68.7286 94.7105 68.6358C94.433 68.5428 94.2479 68.3572 94.063 68.1714C93.878 67.9858 93.7855 67.8 93.6004 67.5214C93.4155 67.4286 93.3229 67.15 93.3229 66.7786C93.3229 66.4072 93.4155 66.0358 93.508 65.7572C93.6931 65.4786 93.8779 65.2 94.1555 65.0143C94.433 64.8285 94.7105 64.6428 95.0805 64.55C95.4504 64.4571 95.7279 64.3643 96.0979 64.3643C96.5603 64.3643 96.9305 64.4571 97.3929 64.55C97.7628 64.7357 98.1328 64.9214 98.4103 65.2928L97.5779 66.0358Z" fill="#6D6E71"/>
<path d="M19.4173 63.8068C27.0946 55.2639 37.1768 55.3568 41.1542 66.9639C41.1542 67.1497 40.4142 67.5211 40.0443 67.6139C29.407 70.6783 22.8397 66.4997 21.2672 65.8497C20.8972 65.6639 18.3073 67.7997 17.1048 68.5425C15.9949 69.1925 13.8674 68.3569 12.9425 67.8925C12.295 67.5211 14.4224 66.6855 14.4224 66.6855C15.8099 66.0355 15.2549 67.9855 16.8273 67.2425L16.9198 67.1497C17.0123 67.1497 17.0123 67.0569 17.1048 67.0569C28.2045 57.9568 34.8644 64.3639 35.0493 64.8282C27.2795 61.8568 23.0247 64.8282 23.0247 64.8282C27.927 66.4997 32.3669 67.7069 40.3216 66.5925C32.922 56.3782 26.1696 60.4639 20.8972 63.8068C20.5272 63.9925 19.5098 64.7354 19.3248 64.6425C19.1398 64.5497 19.2323 64.0854 19.4173 63.8068Z" fill="#8DC63F"/>
<path d="M39.9514 50.8999C39.7666 50.7141 39.1191 50.4356 38.7491 50.4356C28.3893 48.5784 24.7819 56.657 24.6895 58.8856C25.4294 58.4213 26.1694 58.1427 27.0019 57.8641V57.7713C26.9094 56.8427 31.6268 50.0641 39.1191 51.3641C38.009 52.9427 33.3842 56.3784 32.0892 57.307C32.8291 57.3999 33.5693 57.5856 34.2167 57.8641C36.2516 56.9356 40.1365 51.5499 39.9514 50.8999Z" fill="#C4DF9B"/>
<path d="M34.0319 53.4067C33.2919 53.4996 29.0369 56.0067 28.667 57.0282V57.2139C29.3144 57.121 29.9619 57.0282 30.6094 57.0282C31.4419 56.2853 34.2168 53.4067 34.0319 53.4067Z" fill="#C4DF9B"/>
<path d="M21.5445 66.7784C20.9895 67.7069 20.2495 67.9855 19.8795 68.357C19.602 68.7284 20.2495 68.7284 21.3595 68.6355C22.192 68.6355 22.2845 68.7284 22.5619 68.6355C22.8394 68.5426 22.5619 67.9855 22.8394 67.5212C22.8394 67.4284 22.9319 67.4284 22.9319 67.3355C22.377 67.0569 21.9145 66.8712 21.637 66.6855C21.637 66.7784 21.5445 66.7784 21.5445 66.7784Z" fill="#C4DF9B"/>
</g>
</svg>
