<svg width="121" height="121" viewBox="0 0 121 121" fill="none" xmlns="http://www.w3.org/2000/svg">
<circle cx="60.5" cy="60.5" r="60.5" fill="#D9D9D9"/>
<path d="M80.4639 28.124C79.7836 28.124 79.1432 28.3008 78.5836 28.6114C78.2479 28.7976 77.9414 29.0324 77.6735 29.306C76.9588 30.036 76.5161 31.0436 76.5161 32.1547C76.5161 32.8044 76.6679 33.4112 76.933 33.9472C76.9724 34.0271 77.0146 34.105 77.0593 34.1816C77.1631 34.36 77.2772 34.5314 77.4068 34.69C77.5665 34.8848 77.7445 35.064 77.939 35.2243C78.6188 35.7854 79.4956 36.1187 80.4639 36.1187C82.6773 36.1187 84.4782 34.3402 84.4782 32.1551C84.4782 29.9322 82.6773 28.124 80.4639 28.124Z" fill="#FFD124"/>
<path d="M69.6279 41.866V47.7069V50.0906V71.5846C69.6279 84.0073 59.1227 92.9999 52.0671 92.9999C46.3953 92.9999 42.1177 90.6838 42.1177 88.6133C42.1177 86.6335 43.8778 84.897 45.8849 84.897C47.1859 84.897 48.5866 85.6544 50.2101 86.5319C52.1089 87.5575 54.2559 88.7189 56.4969 88.7189C58.586 88.7189 63.4737 88.7189 63.4737 75.407V73.9553C60.6017 75.5361 57.5558 76.4994 54.0114 76.4994C43.4027 76.4985 36 69.5058 36 59.4933C36 49.2221 44.4091 41.1772 55.1401 41.1772C58.7624 41.1772 62.0053 42.0234 64.7025 43.5373C64.8203 43.3635 64.9421 43.1971 65.0443 43.0459C66.3777 41.0692 67.7751 40.7656 68.5591 40.7656C69.5894 40.7652 69.6279 41.5937 69.6279 41.866ZM63.4737 49.3115C61.4223 45.6631 58.2919 43.0685 54.2887 43.0685C49.1939 43.0685 43.1246 45.7249 43.1246 58.3789C43.1246 66.3237 47.6401 74.5408 55.2 74.5408C58.8244 74.5408 61.833 73.0075 63.4741 70.1522V67.5592L63.4737 49.3115Z" fill="#0F152F"/>
<circle cx="60.5" cy="60.5" r="60.5" fill="#D9D9D9"/>
<mask id="mask0_73_2218" style="mask-type:luminance" maskUnits="userSpaceOnUse" x="9" y="51" width="103" height="19">
<path d="M111.985 51H9V70H111.985V51Z" fill="white"/>
</mask>
<g mask="url(#mask0_73_2218)">
<path d="M43.6306 66.7866H40.4946V65.6104H40.4521C40.176 66.0585 39.3832 67.1366 37.1603 67.1366C33.8332 67.1366 31.6528 64.5884 31.6528 61.319C31.6528 57.6367 34.3075 55.5364 37.1037 55.5364C37.7038 55.5144 38.3017 55.6184 38.8582 55.8417C39.4145 56.0649 39.9168 56.4023 40.3318 56.8316V52.2881H43.6235L43.6306 66.7866ZM37.7054 64.1053C38.0807 64.118 38.4547 64.0543 38.804 63.918C39.1534 63.7818 39.4707 63.576 39.7362 63.3134C40.0017 63.0508 40.2098 62.737 40.3477 62.3915C40.4853 62.046 40.5498 61.6762 40.537 61.305C40.537 60.5753 40.2439 59.8756 39.7222 59.3596C39.2004 58.8436 38.4929 58.5537 37.7549 58.5537C37.0171 58.5537 36.3094 58.8436 35.7878 59.3596C35.266 59.8756 34.9728 60.5753 34.9728 61.305C34.9544 61.6693 35.0118 62.0334 35.1412 62.3749C35.2708 62.7164 35.4697 63.028 35.7259 63.2905C35.9819 63.5529 36.2897 63.7607 36.6302 63.9008C36.9707 64.041 37.3366 64.1106 37.7054 64.1053Z" fill="#1F2229"/>
<path d="M56.6063 63.3771C56.1452 64.5021 55.3692 65.4734 54.3692 66.1774C53.4561 66.8206 52.3614 67.1634 51.2403 67.1574C50.0703 67.1809 48.9199 66.8574 47.9374 66.2287C46.9548 65.5998 46.1852 64.6946 45.7273 63.6295C45.2695 62.5643 45.1446 61.388 45.3688 60.2521C45.5929 59.1161 46.1557 58.0725 46.9847 57.2556C47.8138 56.4388 48.8712 55.886 50.0206 55.6686C51.1701 55.4512 52.3591 55.5791 53.4344 56.0357C54.5097 56.4924 55.4223 57.257 56.0545 58.231C56.6866 59.205 57.0095 60.3438 56.9815 61.5009C56.9837 61.7897 56.9576 62.0781 56.9036 62.362H48.6423C48.7364 62.9604 49.0523 63.5027 49.5288 63.8833C50.0051 64.2638 50.6077 64.4552 51.2191 64.4201C51.6131 64.4301 52.003 64.3417 52.3533 64.163C52.7034 63.9844 53.0024 63.7213 53.2225 63.3981L56.6063 63.3771ZM53.6968 60.1427C53.54 59.608 53.2121 59.1381 52.7621 58.8037C52.312 58.4693 51.7644 58.2885 51.2015 58.2885C50.6386 58.2885 50.0909 58.4693 49.6409 58.8037C49.1908 59.1381 48.8627 59.608 48.7061 60.1427H53.6968Z" fill="#1F2229"/>
<path d="M63.5083 58.9738C63.5083 58.7358 63.4516 58.1477 62.4747 58.1477C61.7668 58.1477 61.5404 58.5818 61.5404 58.8478C61.5404 59.4359 62.3544 59.7719 63.2251 60.0239C65.0869 60.535 67.069 61.0811 67.069 63.4333C67.069 65.7855 65.0302 67.1367 62.5951 67.1367C60.9316 67.1367 58.4185 66.3946 58.1211 63.5313H61.3845C61.4235 63.824 61.5744 64.0909 61.806 64.277C62.0378 64.4632 62.3328 64.5546 62.6305 64.5325C63.1826 64.5325 63.7773 64.2174 63.7773 63.6923C63.7773 62.8522 62.9632 62.7542 60.8678 61.9491C59.452 61.5011 58.2557 60.549 58.2557 59.1068C58.2557 56.9506 60.2378 55.5225 62.503 55.5225C63.9188 55.5225 66.4461 56.0895 66.7504 58.9528L63.5083 58.9738Z" fill="#1F2229"/>
<path d="M79.2876 63.3772C78.8266 64.5022 78.0505 65.4736 77.0507 66.1775C76.1374 66.8207 75.0428 67.1635 73.9217 67.1576C72.7519 67.1796 71.6022 66.8549 70.6206 66.2252C69.6389 65.5956 68.8703 64.6899 68.4136 63.6246C67.9571 62.5593 67.8331 61.3832 68.0581 60.2477C68.283 59.1122 68.8464 58.0693 69.6758 57.2531C70.5051 56.437 71.5625 55.8849 72.7117 55.6681C73.8611 55.4513 75.0496 55.5796 76.1246 56.0365C77.1996 56.4934 78.1116 57.2579 78.7435 58.2318C79.3752 59.2057 79.698 60.3443 79.6698 61.501C79.6722 61.7898 79.6461 62.0782 79.5921 62.3621H71.345C71.4389 62.9605 71.755 63.5029 72.2314 63.8834C72.7077 64.2639 73.3104 64.4553 73.9217 64.4204C74.3157 64.4309 74.7061 64.3428 75.0563 64.164C75.4067 63.9853 75.7055 63.7219 75.9251 63.3982L79.2876 63.3772ZM76.3781 60.1429C76.2215 59.6082 75.8935 59.1383 75.4434 58.8039C74.9933 58.4695 74.4457 58.2887 73.8828 58.2887C73.3199 58.2887 72.7722 58.4695 72.3221 58.8039C71.8721 59.1383 71.5442 59.6082 71.3874 60.1429H76.3781Z" fill="#1F2229"/>
<path d="M81.4678 55.9005H84.5612V57.0696H84.6037C84.8798 56.5376 85.4532 55.5435 87.3574 55.5435V58.8128C85.8355 58.8548 84.7595 59.1628 84.7595 60.808V66.7866H81.4678V55.9005Z" fill="#1F2229"/>
<path d="M95.9164 66.7865H92.7662L88.8232 55.9004H92.2283L94.3519 62.6771H94.3943L96.5181 55.9004H99.9231L95.9164 66.7865Z" fill="#1F2229"/>
<path d="M111.61 63.3771C111.149 64.5021 110.373 65.4734 109.373 66.1774C108.46 66.8206 107.365 67.1634 106.244 67.1574C105.074 67.1809 103.924 66.8574 102.941 66.2287C101.959 65.5998 101.189 64.6946 100.731 63.6295C100.273 62.5643 100.149 61.388 100.373 60.2521C100.597 59.1161 101.16 58.0725 101.989 57.2556C102.818 56.4388 103.875 55.886 105.025 55.6686C106.174 55.4512 107.363 55.5791 108.438 56.0357C109.514 56.4924 110.426 57.257 111.058 58.231C111.691 59.205 112.013 60.3438 111.985 61.5009C111.988 61.7897 111.962 62.0781 111.907 62.362H103.667C103.762 62.9604 104.078 63.5027 104.554 63.8833C105.03 64.2638 105.633 64.4552 106.244 64.4201C106.638 64.4308 107.029 64.3427 107.379 64.1639C107.729 63.9852 108.028 63.7217 108.248 63.3981L111.61 63.3771ZM108.701 60.1427C108.544 59.608 108.216 59.1381 107.766 58.8037C107.316 58.4693 106.768 58.2885 106.205 58.2885C105.642 58.2885 105.095 58.4693 104.645 58.8037C104.195 59.1381 103.867 59.608 103.71 60.1427H108.701Z" fill="#1F2229"/>
<path d="M26.74 60.2337C26.6373 57.7384 25.5578 55.3802 23.7297 53.6572C21.9016 51.9343 19.4679 50.9814 16.9427 50.9998H9V55.9003C8.99923 56.3511 9.10851 56.7954 9.31856 57.1954C10.2884 58.9876 13.0067 59.2606 14.465 59.2606H19.2787L12.9076 54.2131H16.9073L24.8924 60.5138L16.9073 66.8144H12.8793L19.2504 61.7669H14.465C12.9926 61.7669 10.2813 62.0399 9.31856 63.8321C9.11072 64.2279 9.0015 64.6672 9 65.1133V70.0138H17.1409C18.426 70.0134 19.6979 69.758 20.8814 69.2628C22.0649 68.7675 23.1359 68.0424 24.0309 67.1306C24.926 66.2186 25.627 65.1383 26.0923 63.9537C26.5576 62.769 26.7779 61.5041 26.74 60.2337Z" fill="#1F2229"/>
</g>
</svg>
