<svg width="121" height="121" viewBox="0 0 121 121" fill="none" xmlns="http://www.w3.org/2000/svg">
<path d="M37.1602 60.0005H33.6333V68.0002H37.1602V60.0005Z" fill="#E93D45"/>
<path d="M24.0728 59.9997C24.0728 60.7286 24.0728 61.3056 24.0728 61.7369C24.1988 65.9078 26.1388 67.9932 29.8929 67.9932H35.3648V64.5674H30.0073C29.6944 64.5991 29.3793 64.5548 29.0806 64.4369C28.7817 64.3191 28.505 64.1301 28.2662 63.881C27.8531 63.2766 27.6401 62.5052 27.6693 61.7187C27.6444 61.2753 27.6295 60.7043 27.6295 60.0057C27.6295 59.3072 27.6295 58.7423 27.6693 58.3171C27.6536 57.9223 27.7026 57.5275 27.8137 57.1561C27.9248 56.7848 28.0955 56.4443 28.3159 56.1547C28.8138 55.6463 29.4546 55.3956 30.1018 55.4562H35.3946V52H30.0073C28.1618 52 26.7242 52.5345 25.7044 53.6097C25.1786 54.1939 24.7623 54.9099 24.4841 55.7088C24.2059 56.5076 24.0724 57.3704 24.0927 58.2382C24.0827 58.6816 24.0728 59.289 24.0728 59.9997Z" fill="#E93D45"/>
<path d="M9 60.0002H12.5269V52.0005H9V60.0002Z" fill="#E93D45"/>
<path d="M22.0678 58.2382C22.013 56.2519 21.4807 54.6848 20.441 53.6097C19.4014 52.5345 17.9986 52 16.1531 52H10.7607V55.4258H16.0586C16.7057 55.3653 17.3466 55.6159 17.8444 56.1244C18.0639 56.4147 18.2341 56.7553 18.3451 57.1265C18.4561 57.4977 18.5056 57.892 18.4911 58.2868C18.5159 58.7119 18.5309 59.2708 18.5309 59.9754C18.5309 60.68 18.5309 61.2449 18.4911 61.6883C18.5272 62.4863 18.3118 63.2709 17.8892 63.881C17.6515 64.1303 17.3756 64.3193 17.0775 64.4372C16.7795 64.555 16.4653 64.5992 16.1531 64.5674H10.7607V67.9932H16.2327C19.9834 67.9932 21.9234 65.9078 22.0528 61.7369C22.0528 61.3056 22.0528 60.7286 22.0528 59.9997C22.0528 59.2708 22.0777 58.6816 22.0678 58.2382Z" fill="#E93D45"/>
<path d="M42.6373 65.0046C42.609 64.9718 42.5865 64.9322 42.5711 64.8883C42.5557 64.8444 42.5478 64.7972 42.5478 64.7495V55.2617C42.5456 55.2114 42.5521 55.1612 42.5666 55.1142C42.5812 55.0672 42.6036 55.0243 42.6323 54.9883C42.657 54.9551 42.6869 54.9284 42.7202 54.9096C42.7535 54.8908 42.7897 54.8804 42.8263 54.879H45.9751C46.9658 54.805 47.9449 55.1718 48.7311 55.9116C49.0717 56.2824 49.3426 56.7387 49.5255 57.2493C49.7084 57.7598 49.7988 58.3126 49.7906 58.8697C49.7906 59.1552 49.7906 59.5257 49.7906 59.9995C49.7906 60.4733 49.7906 60.8378 49.7906 61.1111C49.711 63.7796 48.4691 65.114 46.0647 65.114H42.8263C42.7543 65.1076 42.6869 65.0686 42.6373 65.0046ZM45.9951 62.9333C46.1952 62.9538 46.3967 62.9257 46.588 62.8507C46.7792 62.7756 46.9564 62.655 47.1094 62.496C47.3748 62.1094 47.5115 61.615 47.4924 61.1111C47.4924 60.8256 47.5172 60.4611 47.5172 60.0117C47.5172 59.5622 47.5172 59.2038 47.4924 58.9305C47.5025 58.6777 47.4712 58.425 47.4003 58.1872C47.3294 57.9493 47.2203 57.7312 47.0795 57.5456C46.7578 57.2261 46.349 57.0677 45.9353 57.1021H44.8161V62.9333H45.9951Z" fill="#E93D45"/>
<path d="M51.7804 65.0048C51.7522 64.9719 51.7297 64.9324 51.7142 64.8884C51.6988 64.8447 51.6909 64.7974 51.6909 64.7498V55.2619C51.6902 55.16 51.7224 55.0618 51.7804 54.9885C51.8083 54.9522 51.8423 54.9236 51.8801 54.9047C51.9179 54.8858 51.9586 54.8771 51.9994 54.8792H57.6256C57.6661 54.8779 57.7067 54.8869 57.7445 54.9058C57.7818 54.9246 57.8163 54.9528 57.8442 54.9885C57.8745 55.0239 57.8983 55.0664 57.9146 55.1134C57.9309 55.1604 57.9388 55.2109 57.9388 55.2619V56.7075C57.9392 56.7568 57.9314 56.8057 57.915 56.8508C57.8987 56.8959 57.8745 56.9362 57.8442 56.9687C57.7855 57.037 57.7067 57.0741 57.6256 57.072H53.8399V58.9307H57.3618C57.4033 58.9299 57.4444 58.9393 57.4826 58.958C57.5213 58.9768 57.5562 59.0046 57.5856 59.04C57.6145 59.0748 57.6378 59.1164 57.6532 59.1624C57.6685 59.2083 57.676 59.2576 57.675 59.3073V60.6375C57.6764 60.6881 57.669 60.7385 57.6536 60.7855C57.6382 60.8325 57.6149 60.8752 57.5856 60.9109C57.5562 60.9462 57.5213 60.9741 57.4826 60.9928C57.4444 61.0116 57.4033 61.0209 57.3618 61.0202H53.8399V62.9336H57.7198C57.7613 62.9327 57.8023 62.9421 57.8405 62.961C57.8792 62.98 57.9137 63.0081 57.943 63.0438C57.9723 63.0795 57.9952 63.122 58.0111 63.1688C58.0264 63.2157 58.0339 63.2658 58.0334 63.3162V64.7559C58.0348 64.8047 58.0279 64.8534 58.0125 64.8986C57.9971 64.9437 57.9733 64.9841 57.944 65.017C57.9141 65.0521 57.8792 65.0794 57.841 65.0972C57.8022 65.115 57.7613 65.1229 57.7198 65.1202H51.9744C51.9003 65.1127 51.8311 65.0716 51.7804 65.0048Z" fill="#E93D45"/>
<path d="M60.0032 65.0048C59.9748 64.9719 59.9523 64.9323 59.9369 64.8884C59.9216 64.8447 59.9137 64.7974 59.9137 64.7497V55.2619C59.9114 55.1608 59.9417 55.0627 59.998 54.9885C60.025 54.9523 60.0581 54.9237 60.095 54.9048C60.1322 54.8859 60.1719 54.8772 60.2119 54.8792H65.8632C65.9041 54.8784 65.9452 54.8877 65.9839 54.9066C66.0221 54.9256 66.057 54.9537 66.0859 54.9894C66.1152 55.0251 66.1386 55.0677 66.154 55.1145C66.1694 55.1613 66.1772 55.2114 66.1763 55.2619V56.7075C66.1782 56.7564 66.1707 56.8051 66.1553 56.8503C66.1399 56.8954 66.1167 56.9358 66.0868 56.9687C66.0263 57.0374 65.9456 57.0744 65.8632 57.072H62.0821V58.9307H65.6045C65.6451 58.9298 65.6856 58.939 65.7233 58.9577C65.7606 58.9763 65.7951 59.004 65.824 59.0391C65.8524 59.0743 65.8752 59.1161 65.8906 59.1622C65.906 59.2082 65.9135 59.2576 65.9125 59.3072V60.6375C65.914 60.6881 65.9064 60.7385 65.8911 60.7855C65.8758 60.8325 65.8524 60.8752 65.8231 60.9108C65.7947 60.9463 65.7606 60.9743 65.7229 60.9931C65.6851 61.0119 65.6451 61.0211 65.6045 61.0202H62.0821V62.9335H65.9624C66.0029 62.9326 66.0435 62.9418 66.0813 62.9606C66.119 62.9794 66.153 63.0074 66.1814 63.0428C66.2108 63.0785 66.2341 63.1212 66.2495 63.1682C66.2649 63.2152 66.2718 63.2656 66.2709 63.3162V64.7558C66.2724 64.8047 66.2653 64.8534 66.2499 64.8986C66.2345 64.9437 66.2108 64.9841 66.1814 65.017C66.1525 65.0513 66.1181 65.0782 66.0803 65.096C66.043 65.1137 66.0029 65.122 65.9624 65.1202H60.2367C60.1933 65.1239 60.1495 65.1153 60.109 65.0954C60.0684 65.0753 60.0325 65.0444 60.0032 65.0048Z" fill="#E93D45"/>
<path d="M68.2454 65.0043C68.2175 64.9714 68.1947 64.9319 68.1793 64.888C68.1639 64.8441 68.156 64.797 68.156 64.7492V55.2614C68.1527 55.1611 68.1811 55.0632 68.2357 54.9881C68.2641 54.9523 68.2981 54.9241 68.3359 54.9053C68.3737 54.8865 68.4137 54.8774 68.4547 54.8787H71.8423C72.7134 54.8158 73.5756 55.1203 74.2849 55.7412C74.5826 56.049 74.8171 56.4381 74.9695 56.8771C75.1214 57.316 75.1866 57.7925 75.1601 58.2681C75.1876 58.7405 75.1219 59.214 74.9676 59.6486C74.8134 60.0832 74.5757 60.466 74.2746 60.7646C73.5579 61.3622 72.6989 61.6527 71.8321 61.5907H70.4694V64.7553C70.469 64.8504 70.4387 64.9418 70.3846 65.0104C70.3562 65.0462 70.3221 65.0743 70.2848 65.0932C70.2471 65.112 70.2066 65.1211 70.166 65.1198H68.4445C68.3685 65.1149 68.2968 65.0734 68.2454 65.0043ZM71.7827 59.5011C72.0633 59.5195 72.3387 59.4065 72.5535 59.1853C72.6519 59.0635 72.7278 58.9177 72.7763 58.7576C72.8253 58.5974 72.8462 58.4265 72.8369 58.256C72.8504 57.9192 72.7577 57.589 72.5782 57.3327C72.4739 57.2089 72.3485 57.1139 72.211 57.0542C72.074 56.9945 71.9277 56.9714 71.7827 56.9865H70.4396V59.5011H71.7827Z" fill="#E93D45"/>
<path d="M77.7421 64.2273C77.4061 63.8554 77.139 63.4002 76.9591 62.8921C76.7788 62.384 76.6898 61.8348 76.6972 61.2812C76.6972 61.0079 76.6972 60.5645 76.6972 59.951C76.6972 59.3376 76.6972 58.888 76.6972 58.6086C76.6902 58.067 76.7802 57.53 76.9619 57.0357C77.1432 56.5413 77.4112 56.1016 77.7472 55.7477C78.5241 55.0289 79.4846 54.6695 80.4582 54.7333C81.14 54.7184 81.8166 54.8734 82.4477 55.1889C82.9566 55.4331 83.4054 55.8325 83.7512 56.349C84.0299 56.7601 84.1953 57.2681 84.2237 57.8008C84.2252 57.8435 84.2191 57.8861 84.2065 57.926C84.1939 57.9658 84.1744 58.0019 84.1496 58.0322C84.1249 58.0625 84.0952 58.0861 84.0625 58.1017C84.0299 58.1172 83.9949 58.1244 83.9599 58.1227H82.1247C82.0604 58.1288 81.9966 58.1119 81.9407 58.0741C81.8903 58.0335 81.8465 57.982 81.8111 57.9223C81.7123 57.6423 81.5543 57.3992 81.3534 57.2176C81.0877 57.0069 80.7741 56.9048 80.4582 56.9261C79.5331 56.9261 79.0554 57.5335 79.0255 58.6815C79.0255 58.9528 79.0255 59.372 79.0255 59.9389C79.0255 60.5038 79.0255 60.9289 79.0255 61.2084C79.0554 62.4232 79.5228 63.0671 80.4829 63.0671C80.8813 63.0938 81.2737 62.9427 81.5874 62.6419C81.7295 62.4779 81.84 62.2772 81.9104 62.0543C81.9812 61.8316 82.0101 61.5923 81.9951 61.3541V61.1112H80.9256C80.885 61.1122 80.8445 61.1029 80.8072 61.0841C80.7695 61.0653 80.7354 61.0373 80.7071 61.0018C80.6772 60.9662 80.6544 60.9235 80.639 60.8765C80.6236 60.8295 80.6161 60.7791 80.6171 60.7285V59.5745C80.6161 59.5238 80.6236 59.4735 80.639 59.4264C80.6544 59.3794 80.6772 59.3367 80.7071 59.3011C80.7354 59.2656 80.7695 59.2376 80.8072 59.2188C80.8445 59.2 80.885 59.1908 80.9256 59.1917H83.9702C84.0107 59.1908 84.0513 59.2 84.0886 59.2188C84.1264 59.2376 84.1603 59.2656 84.1888 59.3011C84.2182 59.3367 84.2415 59.3794 84.2568 59.4264C84.2722 59.4735 84.2796 59.5238 84.2783 59.5745V61.2691C84.289 62.028 84.1156 62.7738 83.781 63.4133C83.4567 64.0206 82.9929 64.4979 82.4477 64.7861C81.819 65.1122 81.1414 65.2735 80.4582 65.2598C79.4799 65.3314 78.5139 64.9642 77.7421 64.2273Z" fill="#E93D45"/>
<path d="M86.2438 65.0042C86.2154 64.9712 86.1931 64.9316 86.1777 64.8879C86.1618 64.844 86.1539 64.7968 86.1539 64.7491V55.2612C86.152 55.1601 86.1823 55.0621 86.2388 54.9879C86.2667 54.9515 86.3007 54.9229 86.3385 54.904C86.3762 54.8851 86.4167 54.8765 86.4578 54.8785H89.7508C90.6377 54.8119 91.5161 55.1208 92.238 55.7532C92.5326 56.0535 92.7661 56.4329 92.9203 56.8618C93.075 57.2907 93.1459 57.7574 93.1281 58.2254C93.1441 58.8407 93.0089 59.4477 92.7404 59.9687C92.4715 60.4661 92.0945 60.8617 91.6509 61.1106L93.2676 64.6762C93.2908 64.7264 93.3043 64.7825 93.3076 64.8401C93.3053 64.92 93.2787 64.996 93.2326 65.0528C93.2102 65.0831 93.1827 65.1069 93.1515 65.1226C93.1207 65.1383 93.0872 65.1456 93.0536 65.1439H91.3675C91.2608 65.152 91.155 65.1181 91.0651 65.047C90.9755 64.9759 90.907 64.8713 90.8697 64.7491L89.5518 61.5783H88.4025V64.7551C88.4044 64.804 88.3969 64.8528 88.3815 64.8979C88.3662 64.943 88.3429 64.9834 88.313 65.0163C88.2837 65.0514 88.2483 65.0788 88.2101 65.0965C88.1714 65.1143 88.1303 65.1222 88.0894 65.1196H86.4527C86.413 65.1181 86.3743 65.1072 86.3385 65.0873C86.303 65.0675 86.2704 65.0393 86.2438 65.0042ZM89.7257 59.3977C90.0118 59.4234 90.2942 59.3099 90.5119 59.0819C90.6036 58.9681 90.6754 58.832 90.7216 58.6824C90.7677 58.5328 90.7877 58.3729 90.7802 58.2132C90.7873 58.05 90.7667 57.8868 90.7206 57.7334C90.6744 57.5799 90.6036 57.4395 90.5119 57.3203C90.4065 57.2022 90.2821 57.1116 90.1469 57.0541C90.0118 56.9967 89.8687 56.9736 89.7257 56.9863H88.3974V59.4159L89.7257 59.3977Z" fill="#E93D45"/>
<path d="M94.7049 65.0234C94.6587 64.9666 94.6322 64.8906 94.6304 64.8109C94.6239 64.7666 94.6239 64.7214 94.6304 64.6772L97.4209 55.3048C97.448 55.1726 97.5132 55.0567 97.6046 54.9786C97.6959 54.9004 97.8073 54.8653 97.9182 54.8796H99.7892C99.9001 54.8653 100.011 54.9004 100.102 54.9786C100.194 55.0567 100.259 55.1726 100.286 55.3048L103.076 64.6772C103.084 64.7214 103.084 64.7666 103.076 64.8109C103.073 64.8914 103.044 64.9672 102.997 65.0234C102.951 65.0806 102.889 65.1134 102.823 65.1145H101.267C101.179 65.1214 101.092 65.0937 101.019 65.0357C100.946 64.9779 100.889 64.8926 100.859 64.7926L100.426 63.3774H97.2915L96.8589 64.7926C96.8282 64.8926 96.7718 64.9779 96.6986 65.0357C96.625 65.0937 96.5383 65.1214 96.4511 65.1145H94.8941C94.8587 65.1164 94.8243 65.1093 94.7916 65.0936C94.759 65.078 94.7291 65.0541 94.7049 65.0234ZM97.7789 61.1846H99.9082L98.844 57.4672L97.7789 61.1846Z" fill="#E93D45"/>
<path d="M104.693 65.0112C104.664 64.9783 104.64 64.938 104.625 64.8928C104.609 64.8477 104.602 64.7989 104.604 64.75V55.2622C104.604 55.2117 104.611 55.1616 104.626 55.1148C104.642 55.068 104.665 55.0255 104.694 54.9898C104.724 54.9541 104.758 54.9259 104.796 54.907C104.835 54.888 104.877 54.8787 104.918 54.8795H106.271C106.36 54.8743 106.45 54.9022 106.527 54.9596C106.604 55.017 106.666 55.1012 106.703 55.2014L108.763 59.7024L110.832 55.2014C110.87 55.1012 110.931 55.017 111.008 54.9596C111.085 54.9022 111.175 54.8743 111.265 54.8795H112.618C112.658 54.8782 112.699 54.8873 112.737 54.9061C112.774 54.9249 112.808 54.9531 112.836 54.9888C112.867 55.0245 112.889 55.0672 112.905 55.1142C112.92 55.1612 112.927 55.2116 112.926 55.2622V64.7561C112.928 64.805 112.921 64.8538 112.905 64.8989C112.89 64.944 112.867 64.9844 112.836 65.0173C112.808 65.0522 112.774 65.0796 112.736 65.0973C112.698 65.1151 112.658 65.123 112.618 65.1206H111.096C111.017 65.1176 110.943 65.0781 110.888 65.0104C110.832 64.9428 110.799 64.8518 110.797 64.7561V59.4291L109.484 62.3264C109.445 62.4233 109.386 62.5059 109.313 62.5656C109.24 62.6254 109.155 62.6603 109.066 62.6666H108.42C108.33 62.6613 108.244 62.627 108.17 62.5671C108.096 62.5073 108.036 62.4242 107.997 62.3264L106.718 59.4352V64.7561C106.72 64.805 106.712 64.8538 106.697 64.8989C106.682 64.944 106.658 64.9844 106.628 65.0173C106.599 65.0524 106.564 65.0798 106.526 65.0976C106.487 65.1153 106.446 65.1231 106.405 65.1206H104.912C104.872 65.1216 104.832 65.1123 104.793 65.0934C104.756 65.0747 104.722 65.0467 104.693 65.0112Z" fill="#E93D45"/>
</svg>
