<svg width="121" height="121" viewBox="0 0 121 121" fill="none" xmlns="http://www.w3.org/2000/svg">
<circle cx="60.5" cy="60.5" r="60.5" fill="#D9D9D9"/>
<path d="M28.6394 60.0747C28.6394 63.8994 25.5861 67 21.8196 67C18.053 67 15 63.9003 15 60.0747C15 56.2492 18.0533 53.1497 21.8196 53.1497C25.5859 53.1497 28.6394 56.2501 28.6394 60.0747ZM36.1208 60.0747C36.1208 63.6752 34.594 66.5936 32.7109 66.5936C30.8277 66.5936 29.301 63.6742 29.301 60.0747C29.301 56.4752 30.8277 53.5559 32.7109 53.5559C34.594 53.5559 36.1208 56.4752 36.1208 60.0747ZM39.1807 60.0747C39.1807 63.3005 38.6437 65.9154 37.9815 65.9154C37.3192 65.9154 36.7822 63.2996 36.7822 60.0747C36.7822 56.8499 37.3192 54.2341 37.9816 54.2341C38.6442 54.2341 39.1807 56.8492 39.1807 60.0747ZM58.0022 53.7502L58.0212 53.746V53.5977H54.1428L50.5417 62.134L46.9405 53.5977H42.7611V53.746L42.7799 53.7502C43.4877 53.9113 43.8472 54.1516 43.8472 55.0184V65.165C43.8472 66.0317 43.4864 66.272 42.7784 66.4332L42.7597 66.4374V66.5861H45.5953V66.4379L45.5766 66.4337C44.8686 66.2725 44.5093 66.0322 44.5093 65.1654V55.6069L49.1353 66.5861H49.3977L54.1586 55.3007V65.4161C54.0979 66.1006 53.7418 66.312 53.1008 66.4579L53.0818 66.4624V66.6095H58.0212V66.4624L58.0022 66.4579C57.3606 66.312 56.9958 66.1006 56.9352 65.4161L56.9319 55.0184H56.9352C56.9352 54.1516 57.2946 53.9113 58.0022 53.7502ZM60.2584 60.4718C60.3393 58.6487 60.9883 57.3328 62.0777 57.3102C62.4137 57.3158 62.6955 57.427 62.9146 57.6409C63.38 58.0966 63.5989 59.0487 63.5651 60.4718H60.2584ZM60.2095 60.9856H65.9988V60.9611C65.9825 59.567 65.582 58.4826 64.81 57.7381C64.1426 57.0946 63.1545 56.7406 62.1166 56.7406H62.0935C61.5548 56.7406 60.8941 56.8723 60.424 57.111C59.8888 57.3609 59.4169 57.7346 59.0241 58.225C58.392 59.0151 58.009 60.0829 57.9158 61.2829C57.9129 61.3189 57.9103 61.3548 57.9078 61.3908C57.9052 61.4268 57.9036 61.459 57.902 61.4933C57.8938 61.6621 57.891 61.831 57.8937 61.9999C57.9564 64.7177 59.412 66.8897 61.9975 66.8897C64.267 66.8897 65.5886 65.2166 65.9181 62.9708L65.7516 62.9117C65.1726 64.1187 64.1329 64.8501 62.9496 64.761C61.3341 64.6391 60.0966 62.9872 60.2089 60.9861L60.2095 60.9856ZM72.5445 64.6687C72.3546 65.1229 71.9584 65.3729 71.4274 65.3729C70.8964 65.3729 70.411 65.0052 70.0662 64.3373C69.6957 63.6203 69.5007 62.6067 69.5007 61.406C69.5007 58.907 70.2714 57.2906 71.4642 57.2906C71.9637 57.2906 72.3569 57.5405 72.5445 57.9765V64.6687ZM76.3849 66.4502C75.6769 66.2813 75.3176 66.0298 75.3176 65.1189V53L71.0166 54.278V54.4345L71.043 54.4324C71.6363 54.384 72.0388 54.4667 72.2724 54.6844C72.4553 54.8549 72.5445 55.1164 72.5445 55.4845V57.146C72.1205 56.873 71.6162 56.7401 71.004 56.7401C69.7628 56.7401 68.6284 57.2672 67.8103 58.2245C66.9573 59.2223 66.5065 60.5857 66.5065 62.1671C66.5063 64.9915 67.8848 66.8897 69.9365 66.8897C71.1368 66.8897 72.1024 66.2265 72.5445 65.1078V66.6095H76.4037V66.454L76.3849 66.4502ZM80.0736 54.6482C80.0736 53.7663 79.4143 53.1011 78.5397 53.1011C77.6692 53.1011 76.9882 53.7808 76.9882 54.6482C76.9882 55.5156 77.6699 56.1952 78.5397 56.1952C79.4143 56.1952 80.0736 55.5301 80.0736 54.6482ZM81.0888 66.4502C80.3809 66.2813 80.0215 66.0298 80.0215 65.1189H80.0185V56.7688L76.1591 57.8864V58.0382L76.1823 58.0403C77.0173 58.1152 77.2459 58.4053 77.2459 59.3895V66.6095H81.1085V66.454L81.0888 66.4502ZM90.9781 66.4502C90.2702 66.2813 89.9107 66.0298 89.9107 65.1189V56.7688L86.2362 57.8495V58.0017L86.258 58.0041C86.9406 58.0765 87.1379 58.3831 87.1379 59.3718V64.65C86.9103 65.1043 86.4833 65.3741 85.9659 65.3922C85.127 65.3922 84.665 64.8208 84.665 63.7831V56.7691L80.8056 57.8866V58.0382L80.8288 58.0403C81.6638 58.115 81.8926 58.4051 81.8926 59.3895V63.8566C81.8906 64.1685 81.9175 64.4798 81.9729 64.7866L82.0424 65.0914C82.3692 66.2723 83.2253 66.8897 84.5666 66.8897C85.7027 66.8897 86.6985 66.1805 87.137 65.0706V66.6121H90.9964V66.4565L90.9781 66.4502ZM105.971 66.6095V66.4537L105.952 66.4493C105.184 66.2706 104.885 65.9339 104.885 65.2482V59.5682C104.885 57.7971 103.898 56.7401 102.246 56.7401C101.042 56.7401 100.027 57.4419 99.6359 58.5352C99.3254 57.3767 98.4317 56.7401 97.1103 56.7401C95.9497 56.7401 95.0401 57.3578 94.6499 58.4013V56.7695L90.7906 57.8413V57.994L90.8137 57.9961C91.6388 58.0699 91.8773 58.3684 91.8773 59.3274V66.6095H95.4782V66.454L95.4592 66.4493C94.8465 66.304 94.6487 66.0392 94.6487 65.3596V58.8491C94.8109 58.4672 95.1376 58.0148 95.7834 58.0148C96.5856 58.0148 96.9922 58.5753 96.9922 59.6796V66.6095H100.594V66.454L100.575 66.4493C99.9624 66.304 99.7647 66.0392 99.7647 65.3596V59.5675C99.7662 59.3509 99.7491 59.1346 99.7137 58.921C99.8856 58.506 100.231 58.0148 100.903 58.0148C101.717 58.0148 102.112 58.5592 102.112 59.6796V66.6095H105.971Z" fill="black"/>
</svg>
