<svg width="121" height="121" viewBox="0 0 121 121" fill="none" xmlns="http://www.w3.org/2000/svg">
<mask id="mask0_73_1590" style="mask-type:luminance" maskUnits="userSpaceOnUse" x="7" y="52" width="107" height="16">
<path d="M113.941 52H7V68H113.941V52Z" fill="white"/>
</mask>
<g mask="url(#mask0_73_1590)">
<path d="M19.5023 63.2924C19.0374 64.8574 18.3498 66.9259 14.869 66.9259C11.5724 66.9259 9.38508 64.0784 9.35827 60.0733C9.33263 55.8247 11.3929 53.0592 15.0124 53.0592C18.0713 53.0592 18.9779 54.9626 19.3054 56.9907H20.0571V53.1601C19.2134 52.6649 16.9165 52 14.9646 52C10.2031 52 6.94023 55.2856 7.00083 60.1647C7.06376 64.8871 9.93393 67.9898 14.6558 67.9898C17.329 67.9898 18.7973 67.2691 20.1911 66.5448C20.2015 66.5438 20.5348 62.4517 20.5348 62.4517H19.7471L19.5023 63.2924Z" fill="#005ED1"/>
<path d="M30.4974 66.9259C27.0959 66.9259 24.9879 64.2613 24.9879 59.9688C24.9879 55.7048 27.0959 53.0592 30.4974 53.0592C34.0074 53.0592 36.105 55.6561 36.105 60.0139C36.105 64.3432 34.0074 66.9259 30.4974 66.9259ZM38.4577 59.7527C38.4577 54.9686 35.5526 52 30.8727 52C25.8677 52 22.627 55.174 22.627 60.0887C22.627 65.032 25.4738 67.9874 30.2376 67.9874C35.3079 67.9874 38.4577 64.8289 38.4577 59.7527Z" fill="#005ED1"/>
<path d="M64.3226 52.9866L67.5773 53.5613L67.9397 63.6342L58.8619 52.3335H54.2858V52.9795L56.7399 53.5494L56.6454 66.4293L54.4536 66.9673C53.8348 66.7868 52.8536 66.522 51.5484 64.8643C51.5484 64.8643 48.1527 60.5825 47.7262 60.0434C49.0721 59.6647 51.2466 58.653 51.2466 56.0573C51.2466 54.3545 50.3411 52.3335 46.0225 52.3335H39.2822V52.9795L41.7306 53.5494L41.7291 66.4259L39.2831 67.0053V67.6548H45.9708V67.0112L43.8058 66.4306V53.4699C44.4512 53.3618 45.0899 53.2906 45.5222 53.2906C47.9181 53.2906 49.0822 54.2037 49.0822 56.0774C49.0822 58.9866 46.7807 59.4046 45.838 59.5329C45.5175 59.5744 45.14 59.5934 44.8032 59.5934V60.2382L45.6411 60.5101L49.179 65.1909C50.3606 66.7548 51.2195 67.6548 55.2247 67.6548H61.1398V67.0018L58.1939 66.4187L57.8303 54.3284L68.6537 67.9766H68.9439L69.1256 53.5459L71.1091 52.9712V52.3335H64.3223V52.9866" fill="#005ED1"/>
<path d="M79.4785 67.0072L77.0291 66.4289L77.026 53.5501L79.4812 52.9801V52.333H72.5068V52.9801L74.9505 53.5501V66.4289L72.5068 67.0072V67.6543L79.4789 67.6503V67.0068" fill="#005ED1"/>
<path d="M87.7377 67.0041L84.7896 66.4247L84.426 54.3319L95.2471 67.9766H95.5337L95.7213 53.5471L97.7024 52.9712V52.3335H90.9203L90.9179 52.9866L94.1668 53.5613L94.5315 63.6342L85.4619 52.3335H80.8833V52.9795L83.327 53.5494L83.2361 66.4293L80.8833 67.0053V67.6512H87.7377V67.0041Z" fill="#005ED1"/>
<path d="M112.006 61.716L113.941 61.1448V60.5072L107.059 60.5063V61.1534L109.933 61.7269V65.7024C108.922 66.517 107.799 66.9943 106.048 66.9362C102.911 66.834 100.696 64.0947 100.696 60.0883C100.699 55.6651 102.736 53.0683 106.441 53.0683C109.701 53.0683 110.611 55.2199 110.935 56.9808H111.628V53.1953C110.656 52.636 108.552 52.0103 106.126 52.0103C101.363 52.0103 98.3168 55.2009 98.3424 60.1845C98.3623 64.8107 101.331 67.9241 105.914 67.9978C109.058 68.0511 110.705 67.1523 112.001 66.3662C111.994 66.3804 112.006 61.7163 112.006 61.7163" fill="#005ED1"/>
</g>
</svg>
