<svg width="121" height="121" viewBox="0 0 121 121" fill="none" xmlns="http://www.w3.org/2000/svg">
<circle cx="60.5" cy="60.5" r="60.5" fill="#D9D9D9"/>
<path d="M47.9581 53.9512C47.9581 53.8082 48.0532 53.7128 48.1961 53.7128H55.196C58.1485 53.7128 59.7198 55.0954 59.7198 57.3361C59.7198 58.814 58.7199 59.7199 57.6722 60.0536C58.9103 60.435 60.0055 61.5315 60.0055 63.2955C60.0055 65.6315 58.4341 67.1572 55.2914 67.1572H48.1961C48.0532 67.1572 47.9581 67.0618 47.9581 66.9187V53.9512ZM50.4818 55.9059V59.1954H54.9104C56.3866 59.1954 57.1008 58.6233 57.1008 57.5268C57.1008 56.3826 56.339 55.8582 54.9104 55.8582H50.4818V55.9059ZM50.4818 61.3408V65.0594H55.0056C56.6722 65.0594 57.4342 64.392 57.4342 63.2001C57.4342 61.9606 56.6246 61.3408 55.0056 61.3408H50.4818ZM63.1483 60.4827C63.1483 56.4303 66.1959 53.5222 70.196 53.5222C74.1959 53.5222 77.2435 56.4303 77.2435 60.4827C77.2435 64.4873 74.1959 67.4431 70.196 67.4431C66.1483 67.4431 63.1483 64.535 63.1483 60.4827ZM74.6721 60.4827C74.6721 57.9082 72.9102 55.8582 70.2435 55.8582C67.5769 55.8582 65.8149 57.9559 65.8149 60.4827C65.8149 63.1048 67.5769 65.1071 70.2435 65.1071C72.8626 65.1548 74.6721 63.0571 74.6721 60.4827ZM80.4815 60.4827C80.4815 56.4303 83.5291 53.5222 87.529 53.5222C91.5289 53.5222 94.5765 56.4303 94.5765 60.4827C94.5765 64.4873 91.5289 67.4431 87.529 67.4431C83.4816 67.4431 80.4815 64.535 80.4815 60.4827ZM92.0052 60.4827C92.0052 57.9082 90.2433 55.8582 87.5768 55.8582C84.9101 55.8582 83.1482 57.9559 83.1482 60.4827C83.1482 63.1048 84.9101 65.1071 87.5768 65.1071C90.1957 65.1548 92.0052 63.0571 92.0052 60.4827ZM106.243 63.5815L110.243 53.9035C110.291 53.8082 110.338 53.7605 110.434 53.7605H113.719C113.862 53.7605 113.957 53.8559 113.957 53.9989V67.0141C113.957 67.1572 113.862 67.2524 113.719 67.2524H111.672C111.529 67.2524 111.434 67.1572 111.434 67.0141V56.1919L106.957 67.1572C106.91 67.2524 106.862 67.3001 106.767 67.3001H105.338C105.243 67.3001 105.148 67.2524 105.148 67.1572L100.719 56.2873V67.0141C100.719 67.1572 100.624 67.2524 100.481 67.2524H98.5766C98.4337 67.2524 98.3384 67.1572 98.3384 67.0141V53.9989C98.3384 53.8559 98.4337 53.7605 98.5766 53.7605H102.005C102.1 53.7605 102.196 53.8082 102.196 53.9035L106.243 63.5815ZM37.7201 60.5303C37.6725 60.1489 37.3392 59.9106 36.9582 59.9582L29.244 61.0071L37.1963 57.6698C37.5772 57.5268 37.7676 57.0501 37.6248 56.6687C37.482 56.2873 37.0058 56.0966 36.6249 56.2396L30.4344 58.8617L36.4344 54.2373C36.8153 53.9512 36.8629 53.4268 36.5771 53.0454C36.2915 52.664 35.7677 52.6163 35.3868 52.9024L30.3868 56.764L34.7201 51.0431C35.0058 50.6617 34.9581 50.0896 34.5296 49.7558C34.1487 49.4698 33.5773 49.5175 33.2439 49.9465L29.6725 54.6663L32.3392 48.3733C32.5296 47.8965 32.3392 47.3721 31.8629 47.1337C31.3869 46.943 30.863 47.1337 30.6248 47.6105L25.4345 59.7675C24.9583 60.8641 23.8154 61.6268 22.5297 61.6268C21.2917 61.6268 20.2917 60.9117 19.7679 59.8152L14.1965 47.1814C14.1489 47.0384 13.9584 46.943 13.8155 47.0384C13.6727 47.0861 13.5774 47.2768 13.6727 47.4198L18.625 58.5757L11.7203 49.6605C11.5775 49.5175 11.3394 49.4698 11.1965 49.6128C11.0537 49.7558 11.006 49.9942 11.1489 50.1372L18.0536 59.0524L9.86319 52.807C9.67272 52.664 9.38701 52.7117 9.24415 52.9024C9.10129 53.0931 9.14891 53.3791 9.33939 53.5222L17.8631 60.0536L8.81558 56.3826C8.52987 56.2873 8.24416 56.3826 8.1013 56.6687C8.00607 56.9547 8.1013 57.2408 8.38702 57.3838L17.8631 61.2454L8.67273 60.0536C8.3394 60.0059 8.05369 60.2443 8.00607 60.578C7.95845 60.9117 8.19654 61.1978 8.52987 61.2454L18.1964 62.485L9.52986 63.6769C9.14891 63.7245 8.91082 64.0583 8.95844 64.4397C9.00606 64.8211 9.33939 65.0594 9.72034 65.0118L18.7203 63.7722L11.2441 66.9187C10.8632 67.0618 10.6727 67.5386 10.8156 67.9199C10.9584 68.3013 11.4346 68.492 11.8156 68.3489L19.7679 65.0118L13.7679 69.6839C13.387 69.9699 13.3393 70.4943 13.6251 70.8757C13.9108 71.2571 14.4346 71.3049 14.8155 71.0188L21.0536 66.2036L16.9107 71.6386C16.625 72.02 16.6727 72.5921 17.1012 72.9258C17.4822 73.2118 18.0536 73.1641 18.3869 72.7351L22.244 67.6338L20.1012 72.6873C19.9107 73.1641 20.1012 73.6886 20.5774 73.9269C21.0536 74.1176 21.5774 73.9269 21.8155 73.4503L23.4821 69.4933L25.3392 73.7362C25.3868 73.8793 25.5773 73.9747 25.7202 73.8793C25.863 73.8316 25.9583 73.6409 25.863 73.4979L23.7678 68.7303L24.3869 67.3001L28.5773 72.7351C28.7202 72.878 28.9582 72.9258 29.1011 72.7828C29.244 72.6397 29.2916 72.4014 29.1487 72.2583L24.6726 66.4897L25.0059 65.6315L31.72 70.7804C31.9107 70.9235 32.1963 70.8757 32.3392 70.685C32.4821 70.4943 32.4343 70.2084 32.2438 70.0653L25.3392 64.7734L25.4821 64.4397L34.3391 68.063C34.6249 68.1583 34.9105 68.063 35.0534 67.7769C35.1487 67.4908 35.0534 67.2048 34.7676 67.0618L26.2916 63.6292L36.1486 64.9164C36.482 64.9641 36.7678 64.7257 36.8153 64.392C36.8629 64.0583 36.6249 63.7722 36.2915 63.7245L27.9582 62.6757L37.1009 61.4362C37.482 61.2454 37.7676 60.9117 37.7201 60.5303Z" fill="#01030A"/>
<circle cx="60.5" cy="60.5" r="60.5" fill="#D9D9D9"/>
<path d="M45.2714 48.4382V48.4465V48.4547V58.4711H45.2698C45.2665 58.8555 44.9548 59.1664 44.5687 59.1664C44.5671 59.1664 44.5671 59.1661 44.5662 59.1661V59.1669H34.5514C34.5416 59.1672 34.5321 59.1702 34.5223 59.1702C34.1347 59.1702 33.8196 58.8572 33.8196 58.471V58.4331V58.4265C34.1837 52.7329 38.7273 48.1749 44.4281 47.7621L44.5674 47.7505C44.9492 47.7505 45.2602 48.0516 45.2701 48.4296H45.2718L45.2714 48.4382ZM45.2714 71.561V71.5706H45.2698C45.2599 71.9483 44.9488 72.2493 44.5671 72.2493L44.4277 72.2381C38.7271 71.825 34.1834 67.2669 33.8193 61.5734V61.5668V61.5287C33.8193 61.1425 34.1344 60.8295 34.522 60.8295C34.5318 60.8295 34.5413 60.832 34.5511 60.8328H44.566V60.8336H44.5683C44.9544 60.8336 45.2664 61.1445 45.2694 61.5286H45.271V71.545V71.5533L45.2714 71.561Z" fill="#75227D"/>
<path d="M32.1837 48.4382C32.1837 48.4407 32.1854 48.4432 32.1854 48.4465C32.1854 48.449 32.1837 48.4514 32.1837 48.4547V58.4711H32.1821C32.1813 58.8555 31.8673 59.1664 31.4813 59.1664L31.4796 59.1661V59.1669H21.4653C21.4556 59.1672 21.4458 59.1702 21.4347 59.1702C21.0472 59.1702 20.7336 58.8572 20.7336 58.471C20.7336 58.4557 20.732 58.4481 20.7336 58.4331V58.4265C21.0974 52.7329 25.6411 48.1749 31.3406 47.7621L31.4814 47.7505C31.8632 47.7505 32.1739 48.0516 32.1822 48.4296H32.1839L32.1837 48.4382ZM21.4373 72.2493C21.0555 72.2493 20.7448 71.9481 20.735 71.5451L20.7366 61.5288C20.7375 61.1448 21.0514 60.8339 21.439 60.8327C21.439 60.8327 31.4731 60.8294 31.4841 60.8294C31.8717 60.8294 32.1852 61.1424 32.1852 61.5286C32.1852 61.5438 32.1869 61.5514 32.1852 61.5731C31.8215 67.2667 27.2778 71.8246 21.5783 72.2378L21.4373 72.2493Z" fill="#8F3E8C"/>
<path d="M51.9243 50.7509V53.1978H55.9534V55.0329H51.9243V59.1463H49.6309V48.9087H56.4121V50.7509H51.9243ZM63.8833 51.5384V59.1463H61.8159L61.7523 58.3447C61.5077 58.6494 61.2138 58.8826 60.8703 59.0443C60.5269 59.206 60.1341 59.2869 59.6919 59.2869C58.8968 59.2869 58.2736 59.0572 57.822 58.5978C57.3704 58.1384 57.1445 57.4259 57.1445 56.4603V51.5384H59.3461V56.4744C59.3461 56.8259 59.4366 57.0873 59.6179 57.2583C59.799 57.4294 60.0495 57.515 60.3694 57.515C60.9951 57.515 61.4301 57.2994 61.6747 56.8681V51.5384H63.8833ZM71.3229 52.0868C71.7439 52.5462 71.9545 53.2986 71.9545 54.3439V59.1463H69.7458V54.3298C69.7458 53.8892 69.6529 53.5857 69.4671 53.4193C69.2812 53.2529 68.9908 53.1697 68.5956 53.1697C68.0734 53.1697 67.683 53.3806 67.4243 53.8025V59.1463H65.2297V51.5384H67.2902L67.3678 52.4173C67.6313 52.0845 67.9476 51.8314 68.3169 51.6579C68.6861 51.4845 69.0967 51.3978 69.5481 51.3978C70.3102 51.3978 70.9019 51.6274 71.3229 52.0868ZM80.0113 48.3462V59.1463H78.0286L77.9228 58.3236C77.424 58.9658 76.7866 59.2869 76.0105 59.2869C75.3895 59.2869 74.8556 59.1216 74.4087 58.7912C73.9617 58.4607 73.6219 58.0048 73.389 57.4236C73.156 56.8423 73.0396 56.1791 73.0396 55.4337V55.2861C73.0396 54.5126 73.156 53.833 73.389 53.247C73.6219 52.6611 73.9617 52.2064 74.4087 51.8829C74.8556 51.5595 75.3942 51.3978 76.0245 51.3978C76.7397 51.3978 77.3324 51.6696 77.8027 52.2134V48.3462H80.0113ZM77.3194 57.3287C77.5241 57.2044 77.6852 57.0251 77.8027 56.7908V53.8939C77.5722 53.4111 77.1654 53.1697 76.582 53.1697C76.1163 53.1697 75.7763 53.3595 75.5623 53.7392C75.3482 54.1189 75.2413 54.6345 75.2413 55.2861V55.4337C75.2413 56.0712 75.3448 56.5775 75.5517 56.9525C75.7587 57.3275 76.0974 57.515 76.5679 57.515C76.8642 57.515 77.1148 57.4529 77.3194 57.3287ZM83.5381 48.7646C83.764 48.9731 83.8768 49.2438 83.8768 49.5767C83.8768 49.9048 83.764 50.1731 83.5381 50.3818C83.3124 50.5903 83.0159 50.6946 82.6491 50.6946C82.282 50.6946 81.9868 50.5903 81.7635 50.3818C81.5401 50.1731 81.4283 49.9048 81.4283 49.5767C81.4283 49.2438 81.5401 48.9731 81.7635 48.7646C81.9868 48.556 82.282 48.4517 82.6491 48.4517C83.0159 48.4517 83.3124 48.556 83.5381 48.7646ZM81.5552 59.1463V51.5384H83.764V59.1463H81.5552ZM91.3517 52.0868C91.7727 52.5462 91.9831 53.2986 91.9831 54.3439V59.1463H89.7745V54.3298C89.7745 53.8892 89.6817 53.5857 89.4957 53.4193C89.31 53.2529 89.0194 53.1697 88.6243 53.1697C88.1022 53.1697 87.7117 53.3806 87.4529 53.8025V59.1463H85.2585V51.5384H87.319L87.3965 52.4173C87.6599 52.0845 87.9763 51.8314 88.3455 51.6579C88.7149 51.4845 89.1253 51.3978 89.5769 51.3978C90.339 51.3978 90.9307 51.6274 91.3517 52.0868ZM100.188 51.5384V58.858C100.188 59.547 100.032 60.1388 99.719 60.6334C99.4063 61.1279 98.9664 61.5029 98.3996 61.7584C97.8326 62.0139 97.1729 62.1416 96.4201 62.1416C95.898 62.1416 95.37 62.0408 94.836 61.8392C94.3021 61.6377 93.8823 61.3541 93.5765 60.9885L94.529 59.6455C94.7501 59.8892 95.0136 60.0826 95.3194 60.2256C95.6253 60.3685 95.9615 60.44 96.3285 60.44C96.8554 60.44 97.2634 60.3017 97.5527 60.0252C97.8421 59.7486 97.9867 59.3572 97.9867 58.8509V58.4994C97.5117 59.0244 96.9117 59.2869 96.1874 59.2869C95.5617 59.2869 95.0149 59.1216 94.5467 58.7912C94.0787 58.4607 93.7187 58.0025 93.4671 57.4165C93.2154 56.8306 93.0896 56.1697 93.0896 55.4337V55.2861C93.0896 54.5173 93.2154 53.84 93.4671 53.254C93.7187 52.6681 94.0798 52.2122 94.5503 51.8864C95.0206 51.5607 95.5711 51.3978 96.2014 51.3978C97.0201 51.3978 97.6575 51.6767 98.1138 52.2345L98.1984 51.5384H100.188ZM97.9867 56.9103V53.7743C97.7327 53.3712 97.3234 53.1697 96.7589 53.1697C96.2837 53.1697 95.9205 53.3654 95.6686 53.7568C95.417 54.1482 95.2912 54.6579 95.2912 55.2861V55.4337C95.2912 56.0478 95.4147 56.5482 95.6616 56.9349C95.9086 57.3216 96.2696 57.515 96.7449 57.515C97.3093 57.515 97.7233 57.3134 97.9867 56.9103ZM57.2377 70.2808C56.8943 70.8221 56.4133 71.2428 55.7947 71.5429C55.176 71.8428 54.4528 71.9928 53.6248 71.9928C52.7404 71.9928 51.976 71.7924 51.3316 71.3917C50.687 70.9909 50.1931 70.4178 49.8496 69.6725C49.5062 68.9272 49.3345 68.0459 49.3345 67.0288V66.4382C49.3345 65.4303 49.5109 64.5514 49.8637 63.8014C50.2167 63.0514 50.7163 62.4748 51.3633 62.0717C52.0102 61.6686 52.764 61.467 53.6248 61.467C54.4764 61.467 55.2055 61.6228 55.8123 61.9346C56.4191 62.2463 56.8907 62.6775 57.2271 63.2283C57.5635 63.7791 57.7646 64.4131 57.8305 65.1303H55.5441C55.5065 64.5209 55.342 64.0697 55.0502 63.7768C54.7586 63.4838 54.2834 63.3373 53.6248 63.3373C52.9521 63.3373 52.4559 63.5834 52.136 64.0756C51.816 64.5678 51.6561 65.3505 51.6561 66.4241V67.0288C51.6561 67.7601 51.7207 68.3506 51.8502 68.8006C51.9796 69.2507 52.1877 69.5835 52.4746 69.7991C52.7617 70.0147 53.1451 70.1224 53.6248 70.1224C54.2411 70.1224 54.7033 69.982 55.0115 69.7007C55.3195 69.4194 55.4925 68.9858 55.5301 68.3998H57.8163C57.774 69.1124 57.5812 69.7393 57.2377 70.2808ZM61.0327 61.4705C61.2584 61.6791 61.3713 61.9498 61.3713 62.2826C61.3713 62.6108 61.2584 62.8791 61.0327 63.0877C60.8068 63.2963 60.5105 63.4006 60.1435 63.4006C59.7766 63.4006 59.4814 63.2963 59.2579 63.0877C59.0345 62.8791 58.9227 62.6108 58.9227 62.2826C58.9227 61.9498 59.0345 61.6791 59.2579 61.4705C59.4814 61.2619 59.7766 61.1576 60.1435 61.1576C60.5105 61.1576 60.8068 61.2619 61.0327 61.4705ZM59.0498 71.8522V64.2443H61.2584V71.8522H59.0498ZM67.269 64.1881L67.2409 66.3116C66.8785 66.2741 66.6246 66.2553 66.4788 66.2553C66.093 66.2553 65.7789 66.3163 65.5366 66.4382C65.2944 66.5601 65.1169 66.7428 65.0038 66.9866V71.8522H62.8023V64.2444H64.8699L64.9403 65.1796C65.1333 64.8326 65.3719 64.5666 65.6565 64.3815C65.9413 64.1963 66.2646 64.1037 66.6269 64.1037C66.8902 64.1037 67.1043 64.1318 67.269 64.1881ZM74.5428 69.1662C74.5428 69.7147 74.4016 70.2033 74.1192 70.6323C73.837 71.0611 73.4536 71.3952 72.969 71.6342C72.4846 71.8733 71.9436 71.9928 71.3461 71.9928C70.5793 71.9928 69.929 71.8263 69.3949 71.4936C68.861 71.1608 68.4613 70.7049 68.1954 70.1261C67.9296 69.5472 67.7967 68.8851 67.7967 68.1398V67.9639C67.7967 67.2186 67.9296 66.5554 68.1954 65.974C68.4613 65.3928 68.86 64.9358 69.3915 64.6029C69.9231 64.2701 70.5723 64.1037 71.3391 64.1037C71.9695 64.1037 72.5257 64.2244 73.0079 64.4658C73.4901 64.7072 73.8665 65.0564 74.1369 65.5136C74.4074 65.9706 74.5428 66.5108 74.5428 67.1342H72.4751C72.4702 66.7639 72.3658 66.4615 72.1612 66.2271C71.9565 65.9928 71.666 65.8756 71.2896 65.8756C70.791 65.8756 70.4512 66.0619 70.2701 66.4346C70.0888 66.8073 69.9983 67.317 69.9983 67.9639V68.1398C69.9983 68.8006 70.0888 69.3126 70.2701 69.6761C70.4512 70.0394 70.7957 70.221 71.3038 70.221C71.6566 70.221 71.9389 70.1261 72.1506 69.9361C72.3622 69.7463 72.4704 69.4898 72.4751 69.1662H74.5428ZM75.7056 71.8522V61.0521H77.9142V71.8522H75.7056ZM86.2251 68.7656H81.4339C81.5185 69.2155 81.7138 69.5705 82.0196 69.8307C82.3252 70.0908 82.7158 70.221 83.1909 70.221C83.5579 70.221 83.8965 70.1553 84.207 70.024C84.5174 69.8928 84.7833 69.6889 85.0044 69.4123L86.0417 70.6428C85.7735 71.0225 85.3807 71.3425 84.8632 71.6026C84.3457 71.8628 83.7413 71.9928 83.0497 71.9928C82.2642 71.9928 81.5797 71.8276 80.9963 71.4972C80.4131 71.1666 79.9662 70.7203 79.6557 70.1576C79.3452 69.5952 79.1898 68.9765 79.1898 68.3014V68.0341C79.1898 67.2796 79.3335 66.6058 79.6204 66.0126C79.9073 65.4197 80.3224 64.9534 80.8658 64.6135C81.4092 64.2737 82.0572 64.1037 82.8098 64.1037C83.5296 64.1037 84.1459 64.2549 84.6586 64.5572C85.1714 64.8596 85.5607 65.2908 85.8264 65.851C86.0923 66.4111 86.2251 67.0709 86.2251 67.8303V68.7656ZM84.0658 67.1342C84.0658 66.7405 83.9589 66.4322 83.7449 66.2096C83.5307 65.987 83.2144 65.8756 82.7957 65.8756C82.0477 65.8756 81.5962 66.3537 81.4409 67.3099H84.0658V67.1342Z" fill="#262838"/>
</svg>
