<svg width="121" height="121" viewBox="0 0 121 121" fill="none" xmlns="http://www.w3.org/2000/svg">
<circle cx="60.5" cy="60.5" r="60.5" fill="#D9D9D9"/>
<path d="M47.9581 53.9512C47.9581 53.8082 48.0532 53.7128 48.1961 53.7128H55.196C58.1485 53.7128 59.7198 55.0954 59.7198 57.3361C59.7198 58.814 58.7199 59.7199 57.6722 60.0536C58.9103 60.435 60.0055 61.5315 60.0055 63.2955C60.0055 65.6315 58.4341 67.1572 55.2914 67.1572H48.1961C48.0532 67.1572 47.9581 67.0618 47.9581 66.9187V53.9512ZM50.4818 55.9059V59.1954H54.9104C56.3866 59.1954 57.1008 58.6233 57.1008 57.5268C57.1008 56.3826 56.339 55.8582 54.9104 55.8582H50.4818V55.9059ZM50.4818 61.3408V65.0594H55.0056C56.6722 65.0594 57.4342 64.392 57.4342 63.2001C57.4342 61.9606 56.6246 61.3408 55.0056 61.3408H50.4818ZM63.1483 60.4827C63.1483 56.4303 66.1959 53.5222 70.196 53.5222C74.1959 53.5222 77.2435 56.4303 77.2435 60.4827C77.2435 64.4873 74.1959 67.4431 70.196 67.4431C66.1483 67.4431 63.1483 64.535 63.1483 60.4827ZM74.6721 60.4827C74.6721 57.9082 72.9102 55.8582 70.2435 55.8582C67.5769 55.8582 65.8149 57.9559 65.8149 60.4827C65.8149 63.1048 67.5769 65.1071 70.2435 65.1071C72.8626 65.1548 74.6721 63.0571 74.6721 60.4827ZM80.4815 60.4827C80.4815 56.4303 83.5291 53.5222 87.529 53.5222C91.5289 53.5222 94.5765 56.4303 94.5765 60.4827C94.5765 64.4873 91.5289 67.4431 87.529 67.4431C83.4816 67.4431 80.4815 64.535 80.4815 60.4827ZM92.0052 60.4827C92.0052 57.9082 90.2433 55.8582 87.5768 55.8582C84.9101 55.8582 83.1482 57.9559 83.1482 60.4827C83.1482 63.1048 84.9101 65.1071 87.5768 65.1071C90.1957 65.1548 92.0052 63.0571 92.0052 60.4827ZM106.243 63.5815L110.243 53.9035C110.291 53.8082 110.338 53.7605 110.434 53.7605H113.719C113.862 53.7605 113.957 53.8559 113.957 53.9989V67.0141C113.957 67.1572 113.862 67.2524 113.719 67.2524H111.672C111.529 67.2524 111.434 67.1572 111.434 67.0141V56.1919L106.957 67.1572C106.91 67.2524 106.862 67.3001 106.767 67.3001H105.338C105.243 67.3001 105.148 67.2524 105.148 67.1572L100.719 56.2873V67.0141C100.719 67.1572 100.624 67.2524 100.481 67.2524H98.5766C98.4337 67.2524 98.3384 67.1572 98.3384 67.0141V53.9989C98.3384 53.8559 98.4337 53.7605 98.5766 53.7605H102.005C102.1 53.7605 102.196 53.8082 102.196 53.9035L106.243 63.5815ZM37.7201 60.5303C37.6725 60.1489 37.3392 59.9106 36.9582 59.9582L29.244 61.0071L37.1963 57.6698C37.5772 57.5268 37.7676 57.0501 37.6248 56.6687C37.482 56.2873 37.0058 56.0966 36.6249 56.2396L30.4344 58.8617L36.4344 54.2373C36.8153 53.9512 36.8629 53.4268 36.5771 53.0454C36.2915 52.664 35.7677 52.6163 35.3868 52.9024L30.3868 56.764L34.7201 51.0431C35.0058 50.6617 34.9581 50.0896 34.5296 49.7558C34.1487 49.4698 33.5773 49.5175 33.2439 49.9465L29.6725 54.6663L32.3392 48.3733C32.5296 47.8965 32.3392 47.3721 31.8629 47.1337C31.3869 46.943 30.863 47.1337 30.6248 47.6105L25.4345 59.7675C24.9583 60.8641 23.8154 61.6268 22.5297 61.6268C21.2917 61.6268 20.2917 60.9117 19.7679 59.8152L14.1965 47.1814C14.1489 47.0384 13.9584 46.943 13.8155 47.0384C13.6727 47.0861 13.5774 47.2768 13.6727 47.4198L18.625 58.5757L11.7203 49.6605C11.5775 49.5175 11.3394 49.4698 11.1965 49.6128C11.0537 49.7558 11.006 49.9942 11.1489 50.1372L18.0536 59.0524L9.86319 52.807C9.67272 52.664 9.38701 52.7117 9.24415 52.9024C9.10129 53.0931 9.14891 53.3791 9.33939 53.5222L17.8631 60.0536L8.81558 56.3826C8.52987 56.2873 8.24416 56.3826 8.1013 56.6687C8.00607 56.9547 8.1013 57.2408 8.38702 57.3838L17.8631 61.2454L8.67273 60.0536C8.3394 60.0059 8.05369 60.2443 8.00607 60.578C7.95845 60.9117 8.19654 61.1978 8.52987 61.2454L18.1964 62.485L9.52986 63.6769C9.14891 63.7245 8.91082 64.0583 8.95844 64.4397C9.00606 64.8211 9.33939 65.0594 9.72034 65.0118L18.7203 63.7722L11.2441 66.9187C10.8632 67.0618 10.6727 67.5386 10.8156 67.9199C10.9584 68.3013 11.4346 68.492 11.8156 68.3489L19.7679 65.0118L13.7679 69.6839C13.387 69.9699 13.3393 70.4943 13.6251 70.8757C13.9108 71.2571 14.4346 71.3049 14.8155 71.0188L21.0536 66.2036L16.9107 71.6386C16.625 72.02 16.6727 72.5921 17.1012 72.9258C17.4822 73.2118 18.0536 73.1641 18.3869 72.7351L22.244 67.6338L20.1012 72.6873C19.9107 73.1641 20.1012 73.6886 20.5774 73.9269C21.0536 74.1176 21.5774 73.9269 21.8155 73.4503L23.4821 69.4933L25.3392 73.7362C25.3868 73.8793 25.5773 73.9747 25.7202 73.8793C25.863 73.8316 25.9583 73.6409 25.863 73.4979L23.7678 68.7303L24.3869 67.3001L28.5773 72.7351C28.7202 72.878 28.9582 72.9258 29.1011 72.7828C29.244 72.6397 29.2916 72.4014 29.1487 72.2583L24.6726 66.4897L25.0059 65.6315L31.72 70.7804C31.9107 70.9235 32.1963 70.8757 32.3392 70.685C32.4821 70.4943 32.4343 70.2084 32.2438 70.0653L25.3392 64.7734L25.4821 64.4397L34.3391 68.063C34.6249 68.1583 34.9105 68.063 35.0534 67.7769C35.1487 67.4908 35.0534 67.2048 34.7676 67.0618L26.2916 63.6292L36.1486 64.9164C36.482 64.9641 36.7678 64.7257 36.8153 64.392C36.8629 64.0583 36.6249 63.7722 36.2915 63.7245L27.9582 62.6757L37.1009 61.4362C37.482 61.2454 37.7676 60.9117 37.7201 60.5303Z" fill="#01030A"/>
</svg>
