<svg width="121" height="121" viewBox="0 0 121 121" fill="none" xmlns="http://www.w3.org/2000/svg">
<circle cx="60.5" cy="60.5" r="60.5" fill="#D9D9D9"/>
<mask id="mask0_73_1744" style="mask-type:luminance" maskUnits="userSpaceOnUse" x="27" y="41" width="67" height="38">
<path d="M93.9096 41H27V79H93.9096V41Z" fill="white"/>
</mask>
<g mask="url(#mask0_73_1744)">
<path d="M64.7409 60.0003C64.7409 70.4935 56.2922 79 45.8708 79C35.4494 79 27 70.4917 27 60.0003C27 49.509 35.4487 41 45.8708 41C56.293 41 64.7409 49.5071 64.7409 60.0003ZM85.4421 60.0003C85.4421 69.8774 81.2178 77.8877 76.0068 77.8877C70.7958 77.8877 66.5715 69.8774 66.5715 60.0003C66.5715 50.1232 70.795 42.113 76.0063 42.113C81.2173 42.113 85.4416 50.1206 85.4416 60.0003H85.4421ZM93.9096 60.0003C93.9096 68.8479 92.4241 76.0247 90.5911 76.0247C88.7582 76.0247 87.2733 68.8498 87.2733 60.0003C87.2733 51.1509 88.7587 43.9761 90.5911 43.9761C92.4233 43.9761 93.9096 51.1502 93.9096 60.0003Z" fill="black"/>
</g>
</svg>
