<svg width="121" height="121" viewBox="0 0 121 121" fill="none" xmlns="http://www.w3.org/2000/svg">
<path d="M77.8165 34.7681L43.5073 42.7743V75.5507L77.8165 67.7143V34.7681Z" fill="white"/>
<path d="M80.4058 30.8843L40.5942 40.2461V89.7925L55.0108 75.38L80.4058 69.4086V30.8843ZM59.2575 69.7304L54.261 70.8826L54.2428 57.8124L49.6679 58.8667L49.6862 71.9368L44.6888 73.0885L44.6976 44.5107L49.6943 43.3587L49.6888 54.5714L54.2636 53.5171L54.2683 42.3044L59.2662 41.1518L59.2575 69.7304ZM71.2974 66.9261L71.2789 53.8561L66.7045 54.9104L66.7226 67.9806L61.7255 69.1325L61.7332 40.5544L66.7314 39.4024L66.7259 50.6151L71.3013 49.561L71.3068 38.3484L76.3043 37.1958L76.2959 65.7738L71.2974 66.9261Z" fill="#4A47C6"/>
</svg>
