<svg width="121" height="121" viewBox="0 0 121 121" fill="none" xmlns="http://www.w3.org/2000/svg">
<mask id="mask0_73_1705" style="mask-type:luminance" maskUnits="userSpaceOnUse" x="10" y="45" width="101" height="30">
<path d="M110.967 45H10V75H110.967V45Z" fill="white"/>
</mask>
<g mask="url(#mask0_73_1705)">
<path fill-rule="evenodd" clip-rule="evenodd" d="M72.6379 68.4606C66.7703 72.7248 58.2661 74.9998 50.944 74.9998C40.6771 74.9998 31.4343 71.2559 24.4419 65.0287C23.8925 64.539 24.3848 63.8717 25.044 64.253C32.5903 68.5821 41.921 71.1865 51.5593 71.1865C58.0594 71.1865 65.2101 69.8604 71.7851 67.1088C72.7784 66.6927 73.609 67.75 72.6379 68.4606Z" fill="#FF9900"/>
<path fill-rule="evenodd" clip-rule="evenodd" d="M75.0772 65.709C74.3301 64.7644 70.1196 65.2627 68.2297 65.4837C67.6539 65.553 67.566 65.059 68.0848 64.7037C71.4381 62.3767 76.9407 63.0483 77.5824 63.8283C78.2241 64.6127 77.4154 70.051 74.2642 72.6467C73.7807 73.0454 73.3192 72.8331 73.5346 72.3044C74.2422 70.5625 75.8288 66.6581 75.0772 65.709Z" fill="#FF9900"/>
<path fill-rule="evenodd" clip-rule="evenodd" d="M68.3615 48.2759V46.0139C68.3615 45.6716 68.6252 45.4419 68.9417 45.4419H79.2129C79.5425 45.4419 79.8062 45.6759 79.8062 46.0139V47.9509C79.8018 48.2759 79.5248 48.7006 79.0327 49.3723L73.7103 56.8647C75.688 56.817 77.7756 57.1073 79.5687 58.104C79.9731 58.3294 80.083 58.6587 80.1139 58.9837V61.3974C80.1139 61.7267 79.7445 62.1124 79.3578 61.9131C76.1979 60.2794 72.0005 60.1017 68.5065 61.9304C68.1504 62.1211 67.7769 61.7397 67.7769 61.4104V59.118C67.7769 58.7497 67.7813 58.1214 68.1549 57.5623L74.3212 48.8436H68.9548C68.6252 48.8436 68.3615 48.6139 68.3615 48.2759Z" fill="black"/>
<path fill-rule="evenodd" clip-rule="evenodd" d="M30.894 62.39H27.7691C27.4702 62.3684 27.2329 62.1474 27.2109 61.8657V46.0532C27.2109 45.7369 27.479 45.4855 27.813 45.4855H30.727C31.0302 45.4985 31.2719 45.7282 31.2939 46.0142V48.0812H31.351C32.1114 46.0835 33.5398 45.1519 35.4647 45.1519C37.4207 45.1519 38.6424 46.0835 39.5214 48.0812C40.2774 46.0835 41.9959 45.1519 43.8374 45.1519C45.147 45.1519 46.5798 45.6849 47.4543 46.8809C48.4432 48.2112 48.2412 50.1439 48.2412 51.8383L48.2368 61.818C48.2368 62.1344 47.9686 62.39 47.6346 62.39H44.5141C44.2021 62.3684 43.9517 62.1214 43.9517 61.818V53.4373C43.9517 52.7699 44.0132 51.1059 43.8638 50.4732C43.6307 49.4116 42.9319 49.1126 42.0265 49.1126C41.2707 49.1126 40.4794 49.6109 40.1587 50.4082C39.8379 51.2056 39.8686 52.5403 39.8686 53.4373V61.818C39.8686 62.1344 39.6004 62.39 39.2666 62.39H36.1459C35.8296 62.3684 35.5835 62.1214 35.5835 61.818L35.579 53.4373C35.579 51.6736 35.8736 49.0779 33.6541 49.0779C31.4082 49.0779 31.4961 51.6086 31.4961 53.4373V61.818C31.4961 62.1344 31.228 62.39 30.894 62.39Z" fill="black"/>
<path fill-rule="evenodd" clip-rule="evenodd" d="M88.6489 45.1519C93.2856 45.1519 95.7952 49.0779 95.7952 54.07C95.7952 58.893 93.0219 62.7194 88.6489 62.7194C84.0956 62.7194 81.6167 58.7933 81.6167 53.9009C81.6167 48.9782 84.1263 45.1519 88.6489 45.1519ZM88.6753 48.3802C86.3722 48.3802 86.2272 51.4742 86.2272 53.4026C86.2272 55.3353 86.1964 59.4607 88.6489 59.4607C91.0706 59.4607 91.1849 56.1326 91.1849 54.1046C91.1849 52.7699 91.1276 51.1752 90.719 49.9099C90.3674 48.8092 89.6684 48.3802 88.6753 48.3802Z" fill="black"/>
<path fill-rule="evenodd" clip-rule="evenodd" d="M101.808 62.39H98.6958C98.3837 62.3684 98.1333 62.1214 98.1333 61.818L98.1289 46.0012C98.1553 45.7109 98.4146 45.4855 98.7311 45.4855H101.627C101.9 45.4985 102.124 45.6805 102.186 45.9275V48.3456H102.243C103.117 46.1832 104.343 45.1519 106.501 45.1519C107.904 45.1519 109.27 45.6502 110.149 47.0152C110.967 48.2806 110.967 50.4082 110.967 51.9379V61.8917C110.932 62.169 110.672 62.39 110.365 62.39H107.231C106.945 62.3684 106.708 62.1604 106.677 61.8917V53.3029C106.677 51.5739 106.879 49.0432 104.721 49.0432C103.961 49.0432 103.262 49.5459 102.915 50.3086C102.475 51.2749 102.418 52.2369 102.418 53.3029V61.818C102.414 62.1344 102.142 62.39 101.808 62.39Z" fill="black"/>
<path fill-rule="evenodd" clip-rule="evenodd" d="M60.1733 54.8368C60.1733 56.0371 60.2042 57.0381 59.5889 58.1041C59.0923 58.9708 58.301 59.5038 57.4264 59.5038C56.2267 59.5038 55.5235 58.6025 55.5235 57.2721C55.5235 54.6461 57.9099 54.1694 60.1733 54.1694V54.8368ZM63.3246 62.3465C63.1181 62.5285 62.8192 62.5415 62.5863 62.4202C61.5491 61.5708 61.3599 61.1765 60.793 60.3662C59.079 62.0909 57.8615 62.6065 55.642 62.6065C53.0095 62.6065 50.9658 61.0075 50.9658 57.8051C50.9658 55.3048 52.3371 53.6017 54.2971 52.7697C55.9936 52.0331 58.3627 51.9031 60.1733 51.6994V51.3007C60.1733 50.5684 60.2306 49.7017 59.7911 49.069C59.4131 48.5014 58.6834 48.2674 58.0373 48.2674C56.8464 48.2674 55.7872 48.8697 55.5279 50.1177C55.4751 50.3951 55.2685 50.6681 54.9828 50.6811L51.9547 50.3604C51.6999 50.3041 51.4142 50.1004 51.4888 49.7147C52.1833 46.092 55.506 45 58.4768 45C59.9975 45 61.9841 45.3987 63.1841 46.534C64.7046 47.9337 64.5596 49.8014 64.5596 51.8337V56.6351C64.5596 58.0781 65.166 58.7108 65.7374 59.4908C65.9352 59.7681 65.9791 60.1018 65.7243 60.3098C65.087 60.8342 63.953 61.8092 63.329 62.3552L63.3246 62.3465Z" fill="black"/>
<path fill-rule="evenodd" clip-rule="evenodd" d="M19.2076 54.8368C19.2076 56.0371 19.2383 57.0381 18.623 58.1041C18.1264 58.9708 17.3397 59.5038 16.4607 59.5038C15.2608 59.5038 14.562 58.6025 14.562 57.2721C14.562 54.6461 16.9485 54.1694 19.2076 54.1694V54.8368ZM22.3588 62.3465C22.1522 62.5285 21.8534 62.5415 21.6205 62.4202C20.5832 61.5708 20.3986 61.1765 19.8273 60.3662C18.1132 62.0909 16.9002 62.6065 14.6763 62.6065C12.0481 62.6065 10 61.0075 10 57.8051C10 55.3048 11.3756 53.6018 13.3314 52.7697C15.0279 52.0331 17.3968 51.9031 19.2076 51.6994V51.3007C19.2076 50.5684 19.2647 49.7017 18.8296 49.069C18.4472 48.5014 17.7177 48.2674 17.076 48.2674C15.8849 48.2674 14.8213 48.8697 14.562 50.1177C14.5093 50.3951 14.3027 50.6681 14.0214 50.6811L10.9889 50.3604C10.734 50.3041 10.4527 50.1004 10.523 49.7147C11.2218 46.092 14.5401 45 17.5111 45C19.0318 45 21.0183 45.3987 22.2182 46.534C23.7389 47.9337 23.5938 49.8014 23.5938 51.8337V56.6351C23.5938 58.0781 24.2003 58.7108 24.7717 59.4908C24.9738 59.7681 25.0178 60.1018 24.7629 60.3098C24.1256 60.8342 22.9917 61.8092 22.3676 62.3552L22.3588 62.3465Z" fill="black"/>
</g>
</svg>
