<svg width="60" height="60" viewBox="0 0 60 60" fill="none" xmlns="http://www.w3.org/2000/svg">
<path d="M23.45 54.1148C25.5844 54.6988 27.787 54.9964 30 54.9998L30.3525 54.9973C31.6158 54.9815 32.8547 54.6467 33.9539 54.0238C35.0532 53.401 35.9771 52.5104 36.64 51.4348C37.995 49.2448 38.1399 46.5523 37.0224 44.2348L36.5275 43.1973C35.395 40.8423 36.285 38.7073 37.4974 37.4948C38.7099 36.2823 40.8499 35.3923 43.1974 36.5248H43.2L44.2325 37.0223C45.3678 37.5713 46.6236 37.8241 47.8829 37.7572C49.1422 37.6903 50.3641 37.3059 51.435 36.6398C52.5112 35.9774 53.4024 35.0536 54.0257 33.9543C54.6491 32.855 54.9842 31.6159 55 30.3523C55.0312 28.0222 54.7341 25.6994 54.1175 23.4523C51.5225 13.8848 43.235 6.56727 33.5025 5.23977C25.63 4.17227 17.9 6.74477 12.325 12.3223C6.74995 17.8998 4.16495 25.6173 5.23995 33.4998C6.56495 43.2348 13.885 51.5198 23.45 54.1148ZM38.75 14.9998C39.7445 14.9998 40.6983 15.3949 41.4016 16.0981C42.1049 16.8014 42.5 17.7552 42.5 18.7498C42.5 19.7443 42.1049 20.6982 41.4016 21.4014C40.6983 22.1047 39.7445 22.4998 38.75 22.4998C37.7554 22.4998 36.8016 22.1047 36.0983 21.4014C35.395 20.6982 35 19.7443 35 18.7498C35 17.7552 35.395 16.8014 36.0983 16.0981C36.8016 15.3949 37.7554 14.9998 38.75 14.9998ZM26.25 12.4998C27.2445 12.4998 28.1983 12.8949 28.9016 13.5981C29.6049 14.3014 30 15.2552 30 16.2498C30 17.2443 29.6049 18.1982 28.9016 18.9014C28.1983 19.6047 27.2445 19.9998 26.25 19.9998C25.2554 19.9998 24.3016 19.6047 23.5983 18.9014C22.895 18.1982 22.5 17.2443 22.5 16.2498C22.5 15.2552 22.895 14.3014 23.5983 13.5981C24.3016 12.8949 25.2554 12.4998 26.25 12.4998ZM22.5 38.7648C22.5 39.7593 22.1049 40.7132 21.4016 41.4164C20.6983 42.1197 19.7445 42.5148 18.75 42.5148C17.7554 42.5148 16.8016 42.1197 16.0983 41.4164C15.395 40.7132 15 39.7593 15 38.7648C15 37.7702 15.395 36.8164 16.0983 36.1131C16.8016 35.4099 17.7554 35.0148 18.75 35.0148C19.7445 35.0148 20.6983 35.4099 21.4016 36.1131C22.1049 36.8164 22.5 37.7702 22.5 38.7648ZM16.25 22.5148C17.2448 22.5151 18.1989 22.9106 18.9021 23.6144C19.6054 24.3181 20.0003 25.2724 20 26.2673C19.9996 27.2622 19.6041 28.2162 18.9004 28.9194C18.1966 29.6227 17.2423 30.0176 16.2475 30.0173C15.2526 30.0169 14.2985 29.6214 13.5953 28.9177C12.892 28.2139 12.4971 27.2597 12.4975 26.2648C12.4978 25.2699 12.8933 24.3159 13.5971 23.6126C14.3008 22.9093 15.2551 22.5144 16.25 22.5148Z" fill="#5C1D9C"/>
</svg>
