<svg width="60" height="60" viewBox="0 0 60 60" fill="none" xmlns="http://www.w3.org/2000/svg">
<path d="M50 42.5C50 43.163 49.7366 43.7989 49.2678 44.2678C48.7989 44.7366 48.163 45 47.5 45C46.837 45 46.2011 44.7366 45.7322 44.2678C45.2634 43.7989 45 43.163 45 42.5V12.5C45 11.837 44.7366 11.2011 44.2678 10.7322C43.7989 10.2634 43.163 10 42.5 10H7.5C6.83696 10 6.20107 10.2634 5.73223 10.7322C5.26339 11.2011 5 11.837 5 12.5V45C5 46.3261 5.52678 47.5979 6.46447 48.5355C7.40215 49.4732 8.67392 50 10 50H47.5C51.635 50 55 46.635 55 42.5V17.5H50V42.5ZM30 17.5H37.5V22.5H30V17.5ZM30 27.5H37.5V32.5H30V27.5ZM12.5 17.5H25V32.5H12.5V17.5ZM12.5 42.5V37.5H37.5V42.5H12.5Z" fill="#05FF00"/>
</svg>
