<svg width="60" height="60" viewBox="0 0 60 60" fill="none" xmlns="http://www.w3.org/2000/svg">
<path d="M50.4249 24.5501C49.7211 24.5462 49.0183 24.6048 48.3249 24.7251C48.1438 23.6304 47.7313 22.5869 47.1148 21.6643C46.4983 20.7417 45.692 19.9613 44.7499 19.3751L44.0499 18.9751L43.5749 19.6501C42.9784 20.5591 42.5467 21.5662 42.2999 22.6251C42.0531 23.5577 41.999 24.5308 42.1409 25.4851C42.2827 26.4393 42.6175 27.3546 43.1249 28.1751C41.98 28.6854 40.7515 28.982 39.4999 29.0501H6.5749C6.16148 29.05 5.76461 29.2125 5.46995 29.5025C5.17529 29.7925 5.00646 30.1867 4.9999 30.6001C4.96913 33.4893 5.46034 36.3604 6.4499 39.0751C7.3382 41.7424 9.09971 44.0323 11.4499 45.5751C14.8659 47.309 18.6732 48.1273 22.4999 47.9501C24.5261 47.9852 26.5512 47.8346 28.5499 47.5001C31.3514 46.9985 34.0478 46.0265 36.5249 44.6251C38.5701 43.385 40.4019 41.8233 41.9499 40.0001C44.2585 37.2842 46.0619 34.1768 47.2749 30.8251H47.7499C48.7721 30.8629 49.7915 30.6967 50.7487 30.3361C51.7059 29.9755 52.5817 29.4279 53.3249 28.7251C53.9738 28.1202 54.478 27.3768 54.7999 26.5501L54.9999 26.0001L54.4999 25.6001C53.2889 24.8232 51.8606 24.4552 50.4249 24.5501Z" fill="#26A4E3"/>
<path d="M14.0251 23.3751H9.6251C9.5232 23.3749 9.42507 23.4136 9.35074 23.4833C9.2764 23.5529 9.23147 23.6484 9.2251 23.7501V27.7001C9.23147 27.8018 9.2764 27.8972 9.35074 27.9669C9.42507 28.0366 9.5232 28.0753 9.6251 28.0751H14.0251C14.127 28.0753 14.2251 28.0366 14.2995 27.9669C14.3738 27.8972 14.4187 27.8018 14.4251 27.7001V23.7501C14.4187 23.6484 14.3738 23.5529 14.2995 23.4833C14.2251 23.4136 14.127 23.3749 14.0251 23.3751ZM20.1251 23.3751H15.7001C15.5982 23.3749 15.5001 23.4136 15.4257 23.4833C15.3514 23.5529 15.3065 23.6484 15.3001 23.7501V27.7001C15.3065 27.8018 15.3514 27.8972 15.4257 27.9669C15.5001 28.0366 15.5982 28.0753 15.7001 28.0751H20.1251C20.2246 28.0751 20.3199 28.0356 20.3903 27.9652C20.4606 27.8949 20.5001 27.7995 20.5001 27.7001V23.7501C20.5001 23.6506 20.4606 23.5552 20.3903 23.4849C20.3199 23.4146 20.2246 23.3751 20.1251 23.3751ZM26.3001 23.3751H21.8751C21.7756 23.3751 21.6803 23.4146 21.6099 23.4849C21.5396 23.5552 21.5001 23.6506 21.5001 23.7501V27.7001C21.5001 27.7995 21.5396 27.8949 21.6099 27.9652C21.6803 28.0356 21.7756 28.0751 21.8751 28.0751H26.3001C26.3996 28.0751 26.4949 28.0356 26.5653 27.9652C26.6356 27.8949 26.6751 27.7995 26.6751 27.7001V23.7501C26.6751 23.6506 26.6356 23.5552 26.5653 23.4849C26.4949 23.4146 26.3996 23.3751 26.3001 23.3751ZM27.9751 23.3751C27.9183 23.3593 27.8586 23.3572 27.8008 23.3688C27.743 23.3805 27.6888 23.4056 27.6425 23.4421C27.5962 23.4786 27.5592 23.5255 27.5345 23.5791C27.5097 23.6326 27.498 23.6912 27.5001 23.7501V27.7001C27.5001 27.7493 27.5098 27.7981 27.5286 27.8436C27.5475 27.8891 27.5751 27.9304 27.6099 27.9652C27.6448 28.0001 27.6861 28.0277 27.7316 28.0465C27.7771 28.0654 27.8259 28.0751 27.8751 28.0751H32.5001C32.5996 28.0751 32.6949 28.0356 32.7653 27.9652C32.8356 27.8949 32.8751 27.7995 32.8751 27.7001V23.7501C32.8751 23.6506 32.8356 23.5552 32.7653 23.4849C32.6949 23.4146 32.5996 23.3751 32.5001 23.3751H27.9751ZM15.7001 17.7251H20.0001C20.1062 17.7251 20.2079 17.7672 20.2829 17.8422C20.358 17.9172 20.4001 18.019 20.4001 18.1251V22.0251C20.4113 22.0835 20.4093 22.1437 20.3942 22.2013C20.3792 22.2588 20.3515 22.3123 20.3132 22.3578C20.2748 22.4033 20.2269 22.4397 20.1727 22.4643C20.1185 22.4889 20.0596 22.5011 20.0001 22.5001H15.7001C15.6006 22.5001 15.5053 22.4606 15.4349 22.3902C15.3646 22.3199 15.3251 22.2245 15.3251 22.1251V18.1001C15.3251 18.0508 15.3348 18.0021 15.3536 17.9566C15.3725 17.9111 15.4001 17.8697 15.4349 17.8349C15.4698 17.8001 15.5111 17.7725 15.5566 17.7536C15.6021 17.7348 15.6509 17.7251 15.7001 17.7251ZM21.8751 17.7251H26.3001C26.3493 17.7251 26.3981 17.7348 26.4436 17.7536C26.4891 17.7725 26.5304 17.8001 26.5653 17.8349C26.6001 17.8697 26.6277 17.9111 26.6466 17.9566C26.6654 18.0021 26.6751 18.0508 26.6751 18.1001V22.0251C26.6751 22.1312 26.633 22.2329 26.5579 22.3079C26.4829 22.3829 26.3812 22.4251 26.2751 22.4251H21.8751C21.7756 22.4251 21.6803 22.3856 21.6099 22.3152C21.5396 22.2449 21.5001 22.1495 21.5001 22.0501V18.1001C21.5001 18.0508 21.5098 18.0021 21.5286 17.9566C21.5475 17.9111 21.5751 17.8697 21.6099 17.8349C21.6448 17.8001 21.6861 17.7725 21.7316 17.7536C21.7771 17.7348 21.8259 17.7251 21.8751 17.7251ZM27.9751 17.7251H32.5001C32.5493 17.7251 32.5981 17.7348 32.6436 17.7536C32.6891 17.7725 32.7304 17.8001 32.7653 17.8349C32.8001 17.8697 32.8277 17.9111 32.8466 17.9566C32.8654 18.0021 32.8751 18.0508 32.8751 18.1001V22.0251C32.8909 22.0819 32.893 22.1416 32.8814 22.1994C32.8697 22.2572 32.8446 22.3114 32.8081 22.3577C32.7715 22.404 32.7246 22.441 32.6711 22.4657C32.6176 22.4904 32.559 22.5022 32.5001 22.5001H27.9751C27.9098 22.5141 27.842 22.5115 27.778 22.4926C27.7139 22.4737 27.6556 22.439 27.6084 22.3918C27.5611 22.3446 27.5265 22.2863 27.5076 22.2222C27.4887 22.1582 27.4861 22.0904 27.5001 22.0251V18.1001C27.498 18.0412 27.5097 17.9826 27.5345 17.9291C27.5592 17.8755 27.5962 17.8286 27.6425 17.7921C27.6888 17.7556 27.743 17.7305 27.8008 17.7188C27.8586 17.7072 27.9183 17.7093 27.9751 17.7251Z" fill="#26A4E3"/>
<path d="M32.4001 12.0498H27.9751C27.768 12.0498 27.6001 12.2177 27.6001 12.4248V16.3748C27.6001 16.5819 27.768 16.7498 27.9751 16.7498H32.4001C32.6072 16.7498 32.7751 16.5819 32.7751 16.3748V12.4248C32.7751 12.2177 32.6072 12.0498 32.4001 12.0498Z" fill="#26A4E3"/>
<path d="M34.125 23.375C34.0255 23.375 33.9302 23.4145 33.8598 23.4848C33.7895 23.5552 33.75 23.6505 33.75 23.75V27.7C33.75 27.7995 33.7895 27.8948 33.8598 27.9652C33.9302 28.0355 34.0255 28.075 34.125 28.075H38.55C38.5992 28.075 38.648 28.0653 38.6935 28.0465C38.739 28.0276 38.7803 28 38.8152 27.9652C38.85 27.9303 38.8776 27.889 38.8965 27.8435C38.9153 27.798 38.925 27.7492 38.925 27.7V23.75C38.925 23.7008 38.9153 23.652 38.8965 23.6065C38.8776 23.561 38.85 23.5197 38.8152 23.4848C38.7803 23.45 38.739 23.4224 38.6935 23.4035C38.648 23.3847 38.5992 23.375 38.55 23.375H34.125Z" fill="#26A4E3"/>
</svg>
