<svg width="60" height="60" viewBox="0 0 60 60" fill="none" xmlns="http://www.w3.org/2000/svg">
<path fill-rule="evenodd" clip-rule="evenodd" d="M30.0649 5C16.2924 5 5.12988 16.1625 5.12988 29.935C5.12988 40.95 12.2724 50.2975 22.1824 53.5975C23.4299 53.8225 23.8799 53.055 23.8799 52.395C23.8799 51.8025 23.8599 50.2325 23.8524 48.155C16.9149 49.66 15.4499 44.81 15.4499 44.81C14.3199 41.93 12.6824 41.1625 12.6824 41.1625C10.4199 39.615 12.8549 39.65 12.8549 39.65C15.3599 39.825 16.6724 42.22 16.6724 42.22C18.8974 46.03 22.5124 44.93 23.9274 44.2925C24.1549 42.68 24.8049 41.58 25.5149 40.9575C19.9799 40.33 14.1599 38.19 14.1599 28.6325C14.1599 25.915 15.1324 23.685 16.7199 21.945C16.4674 21.3125 15.6049 18.775 16.9674 15.345C16.9674 15.345 19.0599 14.6725 23.8224 17.8975C25.8564 17.3442 27.9545 17.0617 30.0624 17.0575C32.1703 17.0609 34.2686 17.3434 36.3024 17.8975C41.0674 14.67 43.1574 15.345 43.1574 15.345C44.5199 18.775 43.6649 21.3125 43.4049 21.945C45.0049 23.685 45.9649 25.9125 45.9649 28.6325C45.9649 38.215 40.1399 40.32 34.5849 40.9375C35.4724 41.7075 36.2724 43.2275 36.2724 45.5525C36.2724 48.8875 36.2424 51.5775 36.2424 52.395C36.2424 53.0625 36.6874 53.8375 37.9599 53.5925C47.8649 50.2875 54.9999 40.9475 54.9999 29.935C54.9999 16.1625 43.8374 5 30.0649 5Z" fill="white"/>
</svg>
