<svg width="60" height="60" viewBox="0 0 60 60" fill="none" xmlns="http://www.w3.org/2000/svg">
<path d="M48.4025 7.52002H11.595C9.34252 7.52002 7.52002 9.34252 7.52002 11.595V48.405C7.52002 50.655 9.34252 52.4825 11.595 52.4825H48.405C50.655 52.4825 52.4825 50.6575 52.4825 48.405V11.595C52.4825 11.0595 52.3769 10.5292 52.1718 10.0344C51.9667 9.5397 51.6661 9.09026 51.2872 8.71179C50.9083 8.33333 50.4585 8.03327 49.9635 7.82878C49.4685 7.62428 48.9381 7.51937 48.4025 7.52002ZM22.545 16.2625C24.0375 16.2625 25.29 17.4425 25.29 18.9575C25.29 20.4975 24.0375 21.6575 22.545 21.6575V21.7125C21.035 21.7125 19.82 20.4975 19.82 18.9925C19.82 17.48 21.035 16.2625 22.545 16.2625ZM40.93 42.1425C38.15 42.1425 36.8025 40.4875 36.8025 38.2275C36.8025 37.5775 36.885 36.895 37.0875 36.1975L38.4075 31.4325C38.5775 30.9125 38.6225 30.42 38.6225 29.98C38.6225 28.4425 37.685 27.52 36.195 27.52C34.2925 27.52 33.045 28.8775 32.395 31.515L29.8125 41.88H25.285L26.1025 38.6225C24.7675 40.805 22.925 42.1525 20.645 42.1525C17.89 42.1525 16.6025 40.5725 16.6025 38.1925C16.6135 37.5103 16.6939 36.831 16.8425 36.165L18.9075 27.75H15.7125L16.6825 24.175H24.37L21.33 36.185C21.13 36.9575 21.055 37.5825 21.055 38.03C21.055 38.7975 21.425 39.02 22.0175 39.16C22.3825 39.235 25.255 39.1875 26.8125 35.72L28.8075 27.75H25.5725L26.55 24.24H33.5175L32.62 28.2825C33.83 26.035 36.25 23.8775 38.635 23.8775C41.165 23.8775 43.2725 25.6975 43.2725 29.155C43.2725 30.155 43.115 31.145 42.8225 32.105L41.5225 36.75C41.4154 37.152 41.3526 37.5644 41.335 37.98C41.335 38.795 41.675 39.19 42.255 39.19C42.85 39.19 43.6375 38.7375 44.5025 36.26L46.2725 36.94C45.2375 40.6225 43.3175 42.1425 40.93 42.1425Z" fill="#FF2450"/>
</svg>
