<svg width="60" height="60" viewBox="0 0 60 60" fill="none" xmlns="http://www.w3.org/2000/svg">
<path d="M5.3751 41.9498H9.3001C9.38488 41.9506 9.46709 41.9207 9.53146 41.8655C9.59583 41.8103 9.63799 41.7337 9.6501 41.6498L10.5251 37.0998H13.5751C14.8518 37.1317 16.1257 36.963 17.3501 36.5998C18.3421 36.2717 19.2478 35.7249 20.0001 34.9998C20.6758 34.3923 21.2423 33.6736 21.6751 32.8748C22.1032 32.0933 22.4068 31.2498 22.5751 30.3748C22.8407 29.4575 22.8863 28.4905 22.7082 27.5522C22.5301 26.614 22.1334 25.7309 21.5501 24.9748C20.8743 24.2881 20.0563 23.7576 19.1537 23.4208C18.251 23.0839 17.2856 22.9487 16.3251 23.0248H8.8251C8.73513 23.0288 8.64916 23.0631 8.58111 23.1221C8.51305 23.1811 8.46689 23.2613 8.4501 23.3498L5.0001 41.4998C4.96188 41.6047 4.96188 41.7198 5.0001 41.8248C5.0478 41.8744 5.10686 41.9117 5.17218 41.9335C5.2375 41.9553 5.30714 41.9609 5.3751 41.9498ZM12.5001 26.5498H15.0001C15.4757 26.4859 15.9593 26.5171 16.4228 26.6415C16.8863 26.766 17.3204 26.9812 17.7001 27.2748C18.1251 27.7248 18.2001 28.5748 17.9751 29.7748C17.8498 30.8483 17.3443 31.8416 16.5501 32.5748C15.56 33.2017 14.3934 33.4911 13.2251 33.3998H11.2251L12.5001 26.5498ZM37.0001 24.1748C35.6467 23.1797 33.9708 22.7251 32.3001 22.8998H29.3251L30.1501 18.4998C30.1745 18.4491 30.1871 18.3935 30.1871 18.3373C30.1871 18.281 30.1745 18.2255 30.1501 18.1748C30.0613 18.1423 29.9639 18.1423 29.8751 18.1748H25.9501C25.8653 18.1739 25.7831 18.2038 25.7187 18.259C25.6544 18.3142 25.6122 18.3909 25.6001 18.4748L22.1501 36.6498C22.126 36.6961 22.1134 36.7475 22.1134 36.7998C22.1134 36.852 22.126 36.9034 22.1501 36.9498C22.1796 36.9959 22.2203 37.0339 22.2683 37.0601C22.3164 37.0863 22.3703 37.1 22.4251 37.0998H26.2751C26.3637 37.1 26.4492 37.0666 26.5141 37.0062C26.5791 36.9459 26.6188 36.8632 26.6251 36.7748L28.5501 26.5998H31.3251C32.4501 26.5998 32.8501 26.8498 32.9751 26.9998C33.0769 27.2455 33.1293 27.5088 33.1293 27.7748C33.1293 28.0407 33.0769 28.3041 32.9751 28.5498L31.4501 36.6498C31.426 36.6961 31.4134 36.7475 31.4134 36.7998C31.4134 36.852 31.426 36.9034 31.4501 36.9498C31.4811 36.9944 31.5221 37.0312 31.5699 37.0572C31.6176 37.0833 31.6708 37.0978 31.7251 37.0998H35.6251C35.7151 37.0957 35.801 37.0614 35.8691 37.0024C35.9371 36.9435 35.9833 36.8632 36.0001 36.7748L37.6001 28.2748C37.8583 27.597 37.9386 26.8644 37.8336 26.1467C37.7286 25.429 37.4417 24.7502 37.0001 24.1748ZM48.3001 22.8998H40.4751C40.4291 22.8964 40.3829 22.9021 40.3391 22.9166C40.2954 22.9311 40.2549 22.9541 40.22 22.9843C40.1852 23.0145 40.1567 23.0513 40.1361 23.0926C40.1155 23.1338 40.1033 23.1788 40.1001 23.2248L36.4501 41.4998C36.4274 41.5509 36.4156 41.6063 36.4156 41.6623C36.4156 41.7183 36.4274 41.7736 36.4501 41.8248C36.4837 41.8648 36.5258 41.8968 36.5734 41.9185C36.621 41.9401 36.6728 41.9508 36.7251 41.9498H40.8001C40.8891 41.957 40.9775 41.93 41.0472 41.8742C41.1169 41.8185 41.1626 41.7382 41.1751 41.6498L42.1001 37.0998H45.2751C46.5928 37.1287 47.9073 36.9602 49.1751 36.5998C50.2667 36.2961 51.2752 35.7491 52.1251 34.9998C52.823 34.3941 53.4145 33.6758 53.8751 32.8748C54.3111 32.0944 54.6232 31.251 54.8001 30.3748C55.0726 29.4566 55.1194 28.4863 54.9366 27.5461C54.7538 26.606 54.3468 25.7239 53.7501 24.9748C53.0432 24.2588 52.1908 23.703 51.2506 23.345C50.3103 22.987 49.3041 22.8352 48.3001 22.8998ZM49.8501 29.8248C49.7006 30.9073 49.1685 31.9005 48.3501 32.6248C47.3242 33.2545 46.1252 33.5433 44.9251 33.4498H42.9251L44.2751 26.5498H46.7751C47.7744 26.4273 48.7832 26.6862 49.6001 27.2748C50.0001 27.7248 50.0001 28.5748 49.8501 29.8248Z" fill="white"/>
</svg>
