<svg width="60" height="60" viewBox="0 0 60 60" fill="none" xmlns="http://www.w3.org/2000/svg">
<path d="M26.8499 32.2251V31.9501C26.9999 31.5751 27.1499 31.2251 27.3249 30.8751C28.7086 27.9508 28.9406 24.6127 27.9749 21.5251C27.9245 21.0841 27.7388 20.6696 27.4434 20.3383C27.148 20.0071 26.7573 19.7754 26.3249 19.6751C24.465 19.5456 22.6203 20.0866 21.1249 21.2001V21.6501C21.2891 23.658 21.2389 25.6778 20.9749 27.6751C20.8331 28.5716 20.899 29.4886 21.1678 30.3555C21.4365 31.2225 21.9009 32.0161 22.5249 32.6751C22.9846 33.1641 23.538 33.5556 24.1522 33.8262C24.7664 34.0968 25.4288 34.2409 26.0999 34.2501C26.3135 33.5622 26.5639 32.8862 26.8499 32.2251ZM24.9999 21.4501C24.8595 21.291 24.7798 21.0873 24.7749 20.8751C24.7901 20.8124 24.8179 20.7535 24.8566 20.7019C24.8952 20.6504 24.944 20.6072 24.9999 20.5751C25.3689 20.3836 25.7916 20.3219 26.1999 20.4001C26.8249 20.4001 27.4499 20.8001 27.3999 21.2501C27.3066 21.4977 27.1385 21.7102 26.919 21.858C26.6995 22.0058 26.4395 22.0817 26.1749 22.0751H26.0249C25.6141 22.0102 25.2457 21.7856 24.9999 21.4501Z" fill="#26A4E3"/>
<path d="M19.7 27.5001C19.9255 25.592 19.9757 23.6673 19.85 21.7501V21.0501C19.7515 16.923 21.1151 12.8939 23.7 9.67506C21.2 8.87506 15.2 7.17506 11.525 9.92506C9.275 11.5251 8.225 14.5251 8.45 18.8001C8.94802 22.535 9.78481 26.2168 10.95 29.8001C12.65 35.3501 14.575 38.8501 16.225 39.4251C16.475 39.4251 17.25 39.7501 18.375 38.4001C19.975 36.5001 21.45 34.8751 22.125 34.1501L21.65 33.6751C20.867 32.8684 20.283 31.8902 19.9445 30.8183C19.6059 29.7463 19.5222 28.6101 19.7 27.5001ZM28.45 36.0001C28.05 35.8501 27.85 35.7501 27.4 36.2751C27.1325 36.5443 26.8898 36.8372 26.675 37.1501C25.8 38.2251 25.425 38.6001 22.9 39.1251C22.558 39.1818 22.2229 39.274 21.9 39.4001C22.178 39.5948 22.4927 39.7309 22.825 39.8001C23.9437 40.1785 25.1543 40.1884 26.2791 39.8285C27.4039 39.4685 28.3838 38.7576 29.075 37.8001C29.1396 37.6633 29.1731 37.5138 29.1731 37.3626C29.1731 37.2113 29.1396 37.0619 29.075 36.9251C28.9959 36.5468 28.7715 36.2146 28.45 36.0001ZM44.175 21.4501C44.291 20.7977 44.3579 20.1375 44.375 19.4751C42.725 19.2751 40.825 19.3001 40.075 20.3751C38.625 22.4501 41.475 27.5751 42.575 29.7501C42.8166 30.136 43.0337 30.5368 43.225 30.9501C43.3248 31.2198 43.4504 31.4794 43.6 31.7251C44.251 30.0273 44.3901 28.176 44 26.4001C43.8804 25.5302 43.8219 24.6531 43.825 23.7751C43.8807 22.9921 43.9977 22.2147 44.175 21.4501ZM42.775 21.0501C42.5585 21.2708 42.2791 21.4192 41.975 21.4751H41.825C41.5873 21.476 41.3549 21.4048 41.1585 21.2709C40.9621 21.137 40.811 20.9467 40.725 20.7251C40.725 20.3751 41.225 20.1251 41.825 20.0251C42.425 19.9251 43.025 20.0251 43.075 20.4001C43.0636 20.6476 42.9559 20.8808 42.775 21.0501Z" fill="#26A4E3"/>
<path d="M42.5 12.2C44.147 14.0314 45.3226 16.2368 45.9251 18.625C45.9383 18.7497 45.9383 18.8754 45.9251 19C45.9333 19.8885 45.8579 20.7757 45.7001 21.65C45.5815 22.3615 45.5064 23.0795 45.4751 23.8C45.47 24.6366 45.5285 25.4723 45.6501 26.3C46.155 28.594 45.8364 30.9925 44.75 33.075L44.925 33.275C50.475 24.55 52.425 14.425 50.6501 12.2C49.513 10.7706 48.0629 9.62144 46.4114 8.84122C44.7599 8.061 42.9513 7.67057 41.1251 7.70003C39.756 7.68092 38.3892 7.81509 37.05 8.10003C39.1499 9.04294 41.0121 10.4438 42.5 12.2Z" fill="#26A4E3"/>
<path d="M47.5196 33.5206L47.047 34.3198L47.9744 34.2745C48.8416 34.232 49.704 34.1199 50.5532 33.9393C51.8183 33.675 52.5436 33.9282 52.9616 34.2282C53.3962 34.54 53.5817 34.9614 53.6531 35.1652C53.9864 36.1175 53.4933 37.0222 52.587 37.8535C51.7066 38.661 50.5809 39.2563 50.0138 39.5465C48.1969 40.3104 46.226 40.6375 44.2596 40.5012L44.2423 40.5H44.225H43.8H43.492C43.5161 40.2901 43.539 40.0875 43.5606 39.894C44.0681 39.9942 44.5858 40.0383 45.1042 40.0251C46.708 40.0391 48.299 39.738 49.7868 39.1389L50.1 39.0127V38.9367C50.7294 38.6161 51.5161 38.1381 52.1345 37.572C52.4923 37.2444 52.8198 36.8639 53.0167 36.4425C53.2175 36.0125 53.2889 35.5208 53.0925 35.0225C52.9245 34.5632 52.58 34.2376 52.0997 34.0834C51.642 33.9364 51.0873 33.952 50.4688 34.0864L50.4631 34.0877C48.116 34.6267 46.9014 34.5203 46.3099 34.356C48.8901 30.2825 50.837 25.8397 52.0831 21.1792L52.0841 21.1752C52.3743 20.0523 52.814 18.138 52.961 16.2163C53.0346 15.2555 53.0363 14.2768 52.9031 13.3859C52.7706 12.4997 52.4987 11.6609 51.9935 11.0165L51.9935 11.0165L51.99 11.0122C50.6496 9.34146 48.9406 8.00378 46.9968 7.1039C45.056 6.20536 42.9337 5.76768 40.7958 5.82498C38.6674 5.80323 36.5503 6.13419 34.5306 6.80413C33.3964 6.5214 32.232 6.37729 31.0628 6.37507C28.9112 6.26918 26.781 6.82772 24.9602 7.97184C23.9321 7.61256 21.6845 6.88527 19.0998 6.59383C16.3134 6.27964 13.0397 6.46092 10.4909 8.26358C7.61016 10.2052 6.34654 13.8215 6.60068 18.7011L6.60163 18.7193L6.60392 18.7375C7.09104 22.6101 7.93405 26.4297 9.12225 30.1476C10.0772 33.3508 11.0834 35.8895 12.1406 37.7445C13.1899 39.5856 14.3318 40.8285 15.5948 41.3164L15.6477 41.3369L15.7039 41.345C16.0338 41.3924 16.3688 41.3934 16.6989 41.3481C17.3214 41.3113 17.9273 41.1321 18.4698 40.8242C19.0107 40.5172 19.4741 40.0904 19.8245 39.5769C19.8355 39.5637 19.8465 39.5506 19.8575 39.5376C19.9347 40.3391 20.5725 40.8665 21.0787 41.1628C21.3693 41.333 21.6649 41.4568 21.9034 41.5386C22.0231 41.5797 22.1324 41.6115 22.224 41.6338C22.2773 41.6467 22.3466 41.6621 22.416 41.6699C23.208 41.8753 24.0215 41.9861 24.8397 41.9999C26.2355 42.0341 27.5997 41.6441 28.7577 40.8947C28.6728 43.9785 28.9245 47.0634 29.5091 50.0947L29.512 50.1099L29.5159 50.1249C29.8149 51.2846 30.4844 52.315 31.4225 53.0595C32.3606 53.804 33.516 54.222 34.7134 54.2499L34.7133 54.2501L34.7264 54.2501C35.3052 54.2485 35.8823 54.1883 36.4489 54.0704C37.1698 54.0042 37.8693 53.8217 38.5222 53.535C37.7159 53.9498 36.8415 54.2188 35.9395 54.3287L35.9121 54.3321L35.8853 54.3384C35.3501 54.4646 34.8019 54.5272 34.252 54.5251L34.2427 54.525L34.2334 54.5253C32.9926 54.5665 31.7861 54.115 30.8772 53.2698C30.1238 52.4746 29.5678 51.5139 29.2535 50.4653C29.2569 50.366 29.2554 50.2667 29.249 50.1675L29.2456 50.1158L29.2317 50.0658C28.7092 48.1909 28.4545 46.2516 28.475 44.3053V44.3V42.275V41.5306L27.7859 41.8122C26.0222 42.5328 24.0696 42.6491 22.2328 42.143L22.2255 42.141L22.2181 42.1392C21.3534 41.9289 20.5704 41.467 19.9681 40.8117L19.6289 40.4426L19.2607 40.7828C18.7676 41.2384 18.162 41.5543 17.5062 41.6978C16.8592 41.8395 16.1866 41.8084 15.5557 41.6079C13.691 40.7561 12.2256 39.2187 11.4643 37.3144L11.4553 37.292L11.4442 37.2705C10.3182 35.0912 9.40085 32.8102 8.70443 30.4581L8.70448 30.4581L8.70239 30.4514C7.52727 26.6785 6.6976 22.8065 6.22361 18.8834C5.98236 13.6674 7.38133 10.0796 10.2765 8.04189C11.7757 7.1057 13.449 6.48256 15.1955 6.21006C16.9463 5.93688 18.7344 6.02175 20.4515 6.45955L20.471 6.46454L20.4909 6.46793C21.9667 6.71967 23.4216 7.08134 24.8435 7.54993L25.0535 7.61913L25.246 7.51036C27.0418 6.49562 29.0775 5.98256 31.1397 6.02495L31.1407 6.02497C32.3304 6.04701 33.5166 6.16153 34.6885 6.3675L34.8046 6.38791L34.9175 6.35431C36.8659 5.77489 38.8892 5.48701 40.9218 5.50004L40.9218 5.50022L40.9351 5.49995C43.1411 5.45562 45.3274 5.92329 47.3223 6.86625C49.3167 7.80898 51.0655 9.20111 52.4314 10.9334C53.2843 12.031 53.5867 13.7153 53.5315 15.6546C53.4767 17.5756 53.0744 19.6524 52.6165 21.4478C51.4675 25.6827 49.7531 29.7435 47.5196 33.5206ZM42.497 47.8857C42.7229 46.6092 43.0518 44.1534 43.3163 41.9821C43.4071 44.1133 43.1148 46.2348 42.462 48.2481C42.4769 48.1279 42.4886 48.0071 42.497 47.8857ZM25.0948 36.0753C24.8124 36.4274 24.6668 36.5833 24.4072 36.7204C24.0888 36.8885 23.5837 37.0333 22.498 37.2606C22.4625 37.268 22.4204 37.2762 22.3728 37.2854C22.1944 37.3201 21.9388 37.3699 21.6624 37.4493C22.383 36.6361 22.9927 35.9702 23.3885 35.54C23.9323 35.792 24.506 35.9718 25.0948 36.0753Z" fill="white" stroke="white"/>
<path d="M43.5749 33.9752C42.9378 33.2229 42.4155 32.3804 42.0249 31.4752C42.0249 31.3002 41.7249 30.8752 41.4499 30.4002C39.9999 27.9002 36.9749 22.3502 38.9499 19.5502C39.6148 18.8432 40.4579 18.3285 41.3905 18.0601C42.3232 17.7917 43.311 17.7797 44.2499 18.0252C43.6072 16.252 42.6502 14.6091 41.4249 13.1752C40.1755 11.636 38.603 10.3903 36.8188 9.5263C35.0345 8.66226 33.0822 8.20102 31.0999 8.17523C29.9301 8.1015 28.7579 8.27486 27.6596 8.68406C26.5612 9.09325 25.5613 9.7291 24.7249 10.5502C22.5963 13.0578 21.3802 16.2127 21.2749 19.5002L21.6499 19.3002C22.6893 18.7396 23.8264 18.3832 24.9999 18.2502C25.4855 18.1378 25.9891 18.1266 26.4792 18.2176C26.9693 18.3085 27.4354 18.4995 27.8483 18.7787C28.2612 19.0579 28.6122 19.4193 28.8791 19.8403C29.1461 20.2612 29.3234 20.7327 29.3999 21.2252C30.4277 24.6063 30.1695 28.248 28.6749 31.4502C28.5123 31.7657 28.3704 32.0914 28.2499 32.4252V32.7002C27.9999 33.3752 27.7749 34.0002 27.6249 34.5252C28.1065 34.4335 28.6048 34.4947 29.0499 34.7002C29.4259 34.8792 29.759 35.1371 30.0265 35.4563C30.294 35.7756 30.4895 36.1487 30.5999 36.5502V36.9502C30.612 37.0247 30.612 37.1007 30.5999 37.1752C30.3306 41.2663 30.5151 45.3747 31.1499 49.4252C31.2625 49.9543 31.4882 50.4528 31.8116 50.8865C32.1349 51.3201 32.5483 51.6787 33.0233 51.9375C33.4982 52.1964 34.0236 52.3494 34.5633 52.3862C35.103 52.4229 35.6442 52.3424 36.1499 52.1502C37.3403 52.07 38.4582 51.5492 39.2855 50.6895C40.1128 49.8298 40.5903 48.6928 40.6249 47.5002C40.9999 45.3002 41.7499 39.1252 41.8499 37.8002C41.8499 35.1502 43.1499 34.6252 43.9499 34.4002L43.5749 33.9752Z" fill="#26A4E3"/>
<path d="M45 35.8248L44.8 35.6748H44.5C43.85 35.8498 43.25 36.0248 43.325 37.6748C44.0627 37.9675 44.8621 38.0706 45.65 37.9748C46.8321 37.9251 47.9978 37.6801 49.1 37.2498C49.8229 36.9236 50.4895 36.4848 51.075 35.9498C49.1011 36.6419 46.9437 36.5975 45 35.8248Z" fill="#26A4E3"/>
</svg>
