<svg width="60" height="60" viewBox="0 0 60 60" fill="none" xmlns="http://www.w3.org/2000/svg">
<path d="M16.05 24.675L30 51.95L43.95 24.675H16.05ZM14.75 10.025L5 23.1H14.05L14.75 10.025ZM30 8.55L16.575 23.1H43.425L30 8.55ZM5.1 24.675L27.825 51.125L14.3 24.675H5.1ZM28.825 7.5H28.45L16.35 8.775C16.3618 8.81583 16.3618 8.85917 16.35 8.9L15.675 21.775L28.825 7.5ZM32.175 51.125L54.9 24.675H45.7L32.175 51.125ZM43.625 8.95C43.6132 8.90917 43.6132 8.86583 43.625 8.825L33.625 7.775L31.125 7.5L44.275 21.775L43.625 8.95ZM45.25 10.025L45.95 23.1H55L49.45 15.65L45.25 10.025Z" fill="#E6EB00"/>
</svg>
