<svg width="60" height="60" viewBox="0 0 60 60" fill="none" xmlns="http://www.w3.org/2000/svg">
<path d="M15.485 36.6099C15.485 39.5099 13.1275 41.8774 10.2275 41.8774C8.83241 41.8735 7.49568 41.317 6.50988 40.3298C5.52408 39.3426 4.96951 38.0051 4.96753 36.6099C4.97017 35.2153 5.52503 33.8784 6.51076 32.8917C7.49649 31.905 8.83284 31.3489 10.2275 31.3449H15.485V36.6099ZM18.1375 36.6099C18.1375 33.7099 20.4975 31.3449 23.3975 31.3449C24.7918 31.3496 26.1275 31.906 27.1127 32.8926C28.0979 33.8792 28.6524 35.2157 28.655 36.6099V49.7949C28.6524 51.1892 28.0979 52.5257 27.1127 53.5123C26.1275 54.4989 24.7918 55.0553 23.3975 55.0599C22.0024 55.0573 20.6653 54.5016 19.6793 53.5146C18.6933 52.5277 18.1389 51.19 18.1375 49.7949V36.6099ZM23.3975 15.4724C20.4975 15.4724 18.1375 13.1024 18.1375 10.2049C18.1375 7.30744 20.4975 4.93994 23.3975 4.93994C24.7918 4.94456 26.1275 5.50099 27.1127 6.48758C28.0979 7.47418 28.6524 8.81068 28.655 10.2049V15.4724H23.3975ZM23.3975 18.1224C24.7922 18.1271 26.1283 18.6838 27.1136 19.671C28.0988 20.6581 28.6531 21.9953 28.655 23.3899C28.6524 24.7842 28.0979 26.1207 27.1127 27.1073C26.1275 28.0939 24.7918 28.6503 23.3975 28.6549H10.23C8.83534 28.651 7.49899 28.0948 6.51326 27.1082C5.52753 26.1215 4.97267 24.7846 4.97003 23.3899C4.97201 21.9948 5.52658 20.6573 6.51238 19.6701C7.49818 18.6829 8.83491 18.1264 10.23 18.1224H23.3975ZM44.515 23.3899C44.515 20.4899 46.8725 18.1224 49.7725 18.1224C51.1676 18.1264 52.5044 18.6829 53.4902 19.6701C54.476 20.6573 55.0306 21.9948 55.0325 23.3899C55.0299 24.7846 54.475 26.1215 53.4893 27.1082C52.5036 28.0948 51.1672 28.651 49.7725 28.6549H44.515V23.3899ZM41.8625 23.3899C41.8625 26.2899 39.5025 28.6549 36.6025 28.6549C35.2083 28.6503 33.8726 28.0939 32.8874 27.1073C31.9022 26.1207 31.3477 24.7842 31.345 23.3899V10.2049C31.3477 8.81068 31.9022 7.47418 32.8874 6.48758C33.8726 5.50099 35.2083 4.94456 36.6025 4.93994C39.5025 4.93994 41.8625 7.30494 41.8625 10.2049V23.3899ZM36.6025 44.5274C39.5025 44.5274 41.8625 46.8974 41.8625 49.7949C41.8625 52.6924 39.5025 55.0599 36.6025 55.0599C35.2083 55.0553 33.8726 54.4989 32.8874 53.5123C31.9022 52.5257 31.3477 51.1892 31.345 49.7949V44.5274H36.6025ZM36.6025 41.8774C35.2078 41.8728 33.8718 41.316 32.8865 40.3289C31.9012 39.3418 31.347 38.0046 31.345 36.6099C31.3477 35.2157 31.9022 33.8792 32.8874 32.8926C33.8726 31.906 35.2083 31.3496 36.6025 31.3449H49.7725C51.1672 31.3489 52.5036 31.905 53.4893 32.8917C54.475 33.8784 55.0299 35.2153 55.0325 36.6099C55.0306 38.0051 54.476 39.3426 53.4902 40.3298C52.5044 41.317 51.1676 41.8735 49.7725 41.8774H36.6025Z" fill="white"/>
</svg>
