<svg width="60" height="60" viewBox="0 0 60 60" fill="none" xmlns="http://www.w3.org/2000/svg">
<path d="M46.875 7.5H13.125C11.6332 7.5 10.2024 8.09263 9.14752 9.14752C8.09263 10.2024 7.5 11.6332 7.5 13.125V46.875C7.5 48.3668 8.09263 49.7976 9.14752 50.8525C10.2024 51.9074 11.6332 52.5 13.125 52.5H46.875C48.3668 52.5 49.7976 51.9074 50.8525 50.8525C51.9074 49.7976 52.5 48.3668 52.5 46.875V13.125C52.5 11.6332 51.9074 10.2024 50.8525 9.14752C49.7976 8.09263 48.3668 7.5 46.875 7.5ZM27.075 41.5875C27.075 42.3036 26.7905 42.9903 26.2842 43.4967C25.7778 44.003 25.0911 44.2875 24.375 44.2875H16.05C15.3339 44.2875 14.6472 44.003 14.1408 43.4967C13.6345 42.9903 13.35 42.3036 13.35 41.5875V16.05C13.35 14.5575 14.5575 13.35 16.05 13.35H24.375C25.865 13.35 27.075 14.5575 27.075 16.05V41.5875ZM46.65 30.3375C46.65 31.0536 46.3655 31.7403 45.8592 32.2467C45.3528 32.753 44.6661 33.0375 43.95 33.0375H35.625C34.9089 33.0375 34.2222 32.753 33.7158 32.2467C33.2095 31.7403 32.925 31.0536 32.925 30.3375V16.05C32.925 14.5575 34.135 13.35 35.625 13.35H43.95C45.4425 13.35 46.65 14.5575 46.65 16.05V30.3375Z" fill="#087DC1"/>
</svg>
