<svg width="60" height="60" viewBox="0 0 60 60" fill="none" xmlns="http://www.w3.org/2000/svg">
<rect x="0.5" y="0.5" width="59" height="59" rx="9.5" fill="black" stroke="white"/>
<path d="M14.0201 19.31L16.9001 19.4C19.0201 19.4 20.6201 19.32 21.7001 19.16C21.8201 19.32 21.8801 19.49 21.8801 19.67L21.8201 19.91C20.7601 20.15 20.0901 20.46 19.8101 20.84C19.5901 21.12 19.4401 21.56 19.3601 22.16C19.1201 24.5 19.0001 27.82 19.0001 32.12C19.0001 34.7 19.5201 36.71 20.5601 38.15C21.6001 39.59 23.2201 40.31 25.4201 40.31C28.0401 40.31 29.8501 39.61 30.8501 38.21C31.8701 36.79 32.3801 34.63 32.3801 31.73V28.01C32.3801 24.37 32.2801 21.81 32.0801 20.33C31.6201 20.27 30.7601 20.24 29.5001 20.24C29.4601 20.08 29.4401 19.91 29.4401 19.73C29.4401 19.53 29.4601 19.39 29.5001 19.31L33.0401 19.4C34.5601 19.4 35.7301 19.32 36.5501 19.16C36.6501 19.28 36.7001 19.45 36.7001 19.67L36.6701 19.91C35.1301 20.25 34.2901 21.29 34.1501 23.03C33.9301 25.61 33.8201 28.76 33.8201 32.48C33.8201 35.42 33.0901 37.68 31.6301 39.26C30.1901 40.82 28.0401 41.6 25.1801 41.6C23.6601 41.6 22.3301 41.41 21.1901 41.03C20.0701 40.65 19.1901 40.17 18.5501 39.59C17.9301 39.01 17.4301 38.3 17.0501 37.46C16.6701 36.62 16.4201 35.83 16.3001 35.09C16.2001 34.33 16.1501 33.51 16.1501 32.63V28.04C16.1501 26.42 16.0601 23.85 15.8801 20.33C15.5001 20.27 14.8801 20.24 14.0201 20.24C13.9801 20.1 13.9601 19.94 13.9601 19.76C13.9601 19.58 13.9801 19.43 14.0201 19.31ZM38.8932 19.31L42.7932 19.4L46.6332 19.31C46.6732 19.43 46.6932 19.58 46.6932 19.76L46.6332 20.24C45.7532 20.24 45.0832 20.27 44.6232 20.33C44.2832 20.37 44.1132 22.62 44.1132 27.08V31.97C44.1132 33.87 44.1532 35.69 44.2332 37.43C44.3332 39.17 44.4532 40.05 44.5932 40.07C45.1132 40.13 45.9932 40.16 47.2332 40.16C47.2732 40.3 47.2932 40.46 47.2932 40.64C47.2932 40.82 47.2732 40.97 47.2332 41.09L43.4232 41C41.3232 41 39.6032 41.08 38.2632 41.24C38.1632 41.14 38.1132 40.97 38.1132 40.73L38.1432 40.49C39.4432 40.21 40.2432 39.88 40.5432 39.5C40.7232 39.26 40.8432 39.05 40.9032 38.87C40.9632 38.69 41.0132 38.41 41.0532 38.03C41.2932 36.47 41.4132 33.94 41.4132 30.44V27.08C41.4132 22.62 41.2432 20.37 40.9032 20.33C40.4432 20.27 39.7732 20.24 38.8932 20.24C38.8532 20.1 38.8332 19.94 38.8332 19.76C38.8332 19.58 38.8532 19.43 38.8932 19.31Z" fill="white"/>
</svg>
