<svg width="60" height="60" viewBox="0 0 60 60" fill="none" xmlns="http://www.w3.org/2000/svg">
<path d="M10.0001 52.5001C10.1994 52.5242 10.4008 52.5242 10.6001 52.5001L20.6001 50.0001C21.0437 49.8947 21.45 49.6699 21.7751 49.3501L52.5001 18.5251C53.4314 17.5883 53.9541 16.3211 53.9541 15.0001C53.9541 13.6792 53.4314 12.4119 52.5001 11.4751L48.5501 7.50012C48.0857 7.03524 47.5343 6.66645 46.9273 6.41483C46.3203 6.1632 45.6697 6.03369 45.0126 6.03369C44.3555 6.03369 43.7049 6.1632 43.0979 6.41483C42.4909 6.66645 41.9395 7.03524 41.4751 7.50012L10.7501 38.2251C10.4271 38.5517 10.1945 38.9566 10.0751 39.4001L7.57509 49.4001C7.48524 49.7236 7.46146 50.0619 7.50516 50.3947C7.54887 50.7276 7.65918 51.0482 7.8295 51.3376C7.99982 51.6269 8.22666 51.8789 8.49651 52.0786C8.76635 52.2784 9.07365 52.4217 9.40009 52.5001C9.59937 52.5242 9.80082 52.5242 10.0001 52.5001ZM45.0001 11.0251L48.9751 15.0001L45.0001 18.9751L41.0501 15.0001L45.0001 11.0251ZM14.7751 41.2751L37.5001 18.5251L41.4751 22.5001L18.7251 45.2501L13.4501 46.5501L14.7751 41.2751Z" fill="white"/>
</svg>
