<svg width="60" height="60" viewBox="0 0 60 60" fill="none" xmlns="http://www.w3.org/2000/svg">
<rect x="0.5" y="0.5" width="59" height="59" rx="9.5" fill="black" stroke="white"/>
<path d="M8.38602 19.31L11.266 19.4C13.386 19.4 14.986 19.32 16.066 19.16C16.186 19.32 16.246 19.49 16.246 19.67L16.186 19.91C15.126 20.15 14.456 20.46 14.176 20.84C13.956 21.12 13.806 21.56 13.726 22.16C13.486 24.5 13.366 27.82 13.366 32.12C13.366 34.7 13.886 36.71 14.926 38.15C15.966 39.59 17.586 40.31 19.786 40.31C22.406 40.31 24.216 39.61 25.216 38.21C26.236 36.79 26.746 34.63 26.746 31.73V28.01C26.746 24.37 26.646 21.81 26.446 20.33C25.986 20.27 25.126 20.24 23.866 20.24C23.826 20.08 23.806 19.91 23.806 19.73C23.806 19.53 23.826 19.39 23.866 19.31L27.406 19.4C28.926 19.4 30.096 19.32 30.916 19.16C31.016 19.28 31.066 19.45 31.066 19.67L31.036 19.91C29.496 20.25 28.656 21.29 28.516 23.03C28.296 25.61 28.186 28.76 28.186 32.48C28.186 35.42 27.456 37.68 25.996 39.26C24.556 40.82 22.406 41.6 19.546 41.6C18.026 41.6 16.696 41.41 15.556 41.03C14.436 40.65 13.556 40.17 12.916 39.59C12.296 39.01 11.796 38.3 11.416 37.46C11.036 36.62 10.786 35.83 10.666 35.09C10.566 34.33 10.516 33.51 10.516 32.63V28.04C10.516 26.42 10.426 23.85 10.246 20.33C9.86602 20.27 9.24602 20.24 8.38602 20.24C8.34602 20.1 8.32602 19.94 8.32602 19.76C8.32602 19.58 8.34602 19.43 8.38602 19.31ZM32.2391 19.13L36.9791 19.01C37.2791 19.01 37.9691 19.75 39.0491 21.23C39.8291 22.27 40.6991 23.64 41.6591 25.34C42.6391 27.02 43.2391 28.04 43.4591 28.4L44.5991 26.99C44.7191 26.83 44.9591 26.53 45.3191 26.09C45.6991 25.63 45.9491 25.32 46.0691 25.16C46.2091 25 46.4191 24.73 46.6991 24.35C46.9991 23.97 47.2191 23.67 47.3591 23.45C47.5191 23.21 47.7091 22.91 47.9291 22.55C48.3491 21.85 48.7291 21.13 49.0691 20.39C48.0891 20.35 47.1591 20.33 46.2791 20.33C46.1991 20.17 46.1591 20 46.1591 19.82C46.1591 19.64 46.1991 19.5 46.2791 19.4H49.3391C50.7391 19.4 52.1191 19.32 53.4791 19.16C53.5791 19.28 53.6291 19.44 53.6291 19.64L53.5991 19.97C52.8191 20.19 52.0191 20.68 51.1991 21.44C50.3791 22.2 49.2391 23.45 47.7791 25.19L44.1191 29.57C44.9191 31.03 45.9791 32.83 47.2991 34.97C49.2991 38.21 50.9291 39.9 52.1891 40.04C52.5291 40.06 53.1291 40.07 53.9891 40.07C54.0491 40.21 54.0791 40.38 54.0791 40.58C54.0791 40.76 54.0591 40.9 54.0191 41C52.8191 41.06 51.7391 41.17 50.7791 41.33C49.8391 41.51 49.3191 41.6 49.2191 41.6C48.9191 41.6 48.3791 41.17 47.5991 40.31C46.8391 39.45 45.9291 38.18 44.8691 36.5C43.8091 34.8 42.8191 33.14 41.8991 31.52L40.3391 33.56C38.3191 36.22 36.9491 38.37 36.2291 40.01C37.2091 40.05 38.0791 40.07 38.8391 40.07C38.8791 40.23 38.8991 40.41 38.8991 40.61C38.8991 40.79 38.8791 40.92 38.8391 41H35.7791C34.6191 41 33.3591 41.08 31.9991 41.24C31.8791 41.06 31.8191 40.81 31.8191 40.49C32.3791 40.33 33.0091 39.91 33.7091 39.23C34.4291 38.55 35.7791 37.01 37.7591 34.61L41.2691 30.35C40.1091 28.33 39.0791 26.56 38.1791 25.04C37.2791 23.52 36.4791 22.4 35.7791 21.68C35.0991 20.96 34.5691 20.52 34.1891 20.36C33.8091 20.2 33.1591 20.09 32.2391 20.03C32.1791 19.91 32.1491 19.76 32.1491 19.58C32.1491 19.4 32.1791 19.25 32.2391 19.13Z" fill="white"/>
</svg>
